<?xml version="1.0" encoding="utf-8"?>
<!-- Generator: Adobe Illustrator 23.0.2, SVG Export Plug-In . SVG Version: 6.00 Build 0)  -->
<svg version="1.1" id="Capa_1" xmlns="http://www.w3.org/2000/svg" xmlns:xlink="http://www.w3.org/1999/xlink" x="0px" y="0px"
	 viewBox="0 0 566.9 389.3" style="enable-background:new 0 0 566.9 389.3;" xml:space="preserve">
<style type="text/css">
	.st0{fill:#FFFFFF;}
</style>
<g>
	<path class="st0" d="M89.4,326.7c129.6-23.2,258.1-24.2,387.8-1.1l61.9-166.9c-37.2,31.3-64.3,54.8-84.7,55.8
		c-11.6-9.1-14.4-59.6-10.9-140.8c-67.7,97-89.5,116.9-97.2,115.6c-15.1-4.2-33.9-62.1-62.1-150.3c-23.5,74.5-46.6,145.9-62.1,150.2
		c-19.6-4.6-56.4-53.8-97.2-113.4c1,81.1-1.5,133.6-9.9,138.5c-6.6,4.4-48.4-23.9-88.6-58.8L89.4,326.7z"/>
	<circle class="st0" cx="13.2" cy="136.9" r="13.2"/>
	<circle class="st0" cx="115.7" cy="55.6" r="13.2"/>
	<circle class="st0" cx="284.3" cy="13.2" r="13.2"/>
	<circle class="st0" cx="453.9" cy="49.9" r="13.2"/>
	<circle class="st0" cx="553.8" cy="138.9" r="13.2"/>
	<path class="st0" d="M96.7,341c124.8-19.1,250.4-18.9,376.7,0c5.3,10.8,4.9,22.2,0,33.8c-126.3,19.2-251.9,19.4-376.7,0
		C90.8,363.9,89.7,352.8,96.7,341z"/>
</g>
</svg>
