<?xml version="1.0" encoding="utf-8"?>
<!-- Generator: Adobe Illustrator 23.0.2, SVG Export Plug-In . SVG Version: 6.00 Build 0)  -->
<svg version="1.1" xmlns="http://www.w3.org/2000/svg" xmlns:xlink="http://www.w3.org/1999/xlink" x="0px" y="0px"
	 viewBox="0 0 485.5 722.4" style="enable-background:new 0 0 485.5 722.4;" xml:space="preserve">
<style type="text/css">
	.st0{fill:#7837F0;}
	.st1{fill:#5828B0;}
	.st2{fill:#9054FF;}
	.st3{enable-background:new    ;}
	.st4{clip-path:url(#SVGID_2_);}
	.st5{fill:#FFFFFF;}
	.st6{clip-path:url(#SVGID_4_);}
	.st7{fill:#190C35;}
	.st8{fill:#070707;}
	.st9{fill:#616668;}
	.st10{fill:#D8B4B4;}
	.st11{fill:#B4BCC1;}
	.st12{fill:#F4C4C4;}
	.st13{fill:#2D125E;}
	.st14{fill:#8F989B;}
</style>
<g id="Cubi-chica">
	<g id="Capa_1">
		<g>
			<g>
				<path class="st0" d="M486.1,382.5V564c0,22.9-12.6,44-32.7,54.9L271,715.1c-17.4,9.6-38.5,9.6-55.9,0L32.9,619
					c-20.2-10.9-32.7-32-32.7-54.9V382.6c0-10.4,2.6-20.6,7.6-29.8h0.1c5.6-10.7,14.5-19.4,25.1-25l182.1-96.3
					c17.4-9.4,38.4-9.4,55.8,0l182.3,96.3c10.7,5.6,19.4,14.3,25.1,25h0.1C483.5,361.9,486.1,372.1,486.1,382.5z"/>
				<path class="st1" d="M243.1,473.2v249.2c-9.8,0-19.4-2.5-28-7.1L32.9,619C12.7,608.1,0,587,0,564V382.5c0-10.4,2.6-20.7,7.6-29.8
					L243.1,473.2z"/>
				<path class="st2" d="M478.5,352.9L243.1,473.5L7.6,352.9c5.6-10.8,14.5-19.5,25.3-25.1l182.2-96.4c17.4-9.3,38.4-9.3,55.9,0
					l182.3,96.3C464,333.4,472.9,342.1,478.5,352.9L478.5,352.9z"/>
			</g>
			<g>
				<g>
					<g class="st3">
						<g>
							<g>
								<defs>
									<polygon id="SVGID_1_" points="23.7,524.8 24.1,386.6 201.6,489.2 201.3,627.4 								"/>
								</defs>
								<clipPath id="SVGID_2_">
									<use xlink:href="#SVGID_1_"  style="overflow:visible;"/>
								</clipPath>
								<g class="st4">
									<g>
										<g>
											<g>
												<path class="st5" d="M63.7,409.5c-7.5-3.8-14-5.9-19.9-6c-2.5-0.1-4.9,0.2-7.4,0.9c-2.3,0.7-4.5,2-6.4,3.9
													c-1.8,2-3.3,4.7-4.5,8.1c-1.1,3.4-1.7,7.8-1.7,13.1V484c0,6.5,0.7,12.5,2.3,17.9s3.6,10.4,6,14.8
													c2.5,4.4,5.2,8.3,8.2,11.8c2.9,3.4,5.9,6.4,8.7,8.8s5.4,4.5,7.7,6s3.9,2.6,5,3.2c6.4,3.7,12.1,6,17.4,7
													c5.3,1,9.8,0.6,13.7-1c3.8-1.7,6.7-4.8,9-9.2c2.1-4.4,3.2-10.2,3.2-17.4c0-0.4-0.1-1.1-0.2-2.2s-0.6-2.6-1.5-4.2
													c-0.9-1.6-2.2-3.4-4-5.4c-1.8-2-4.4-3.9-7.8-5.9c-3.4-2-6.1-3.2-8.1-3.8s-3.4-0.7-4.5-0.4c-1,0.2-1.7,0.9-2,1.7
													c-0.2,0.9-0.4,1.8-0.5,2.8c0,3.1-0.2,5.9-0.6,8.5c-0.4,2.6-1.1,4.7-2,6.3c-1,1.6-2.3,2.6-4,2.8c-1.7,0.2-3.9-0.4-6.5-1.8
													c-2.8-1.6-4.9-3.7-6.4-6c-1.5-2.5-2.6-4.8-3.3-7.1c-0.7-2.6-1.2-5.4-1.3-8.3l0.1-61.9c0.1-2.3,0.6-4.2,1.3-5.5
													c0.7-1.1,1.7-2,3.3-2.5c1.5-0.5,3.7,0.1,6.4,1.7c2.7,1.6,4.9,3.3,6.5,5.4c1.7,2.1,3.1,4.3,3.9,6.7c1,2.5,1.6,5.3,2,8.3
													c0.4,3.1,0.5,6.3,0.5,9.8c0,2.3,0.6,4.4,1.7,6.3c1.1,2,2.5,3.7,4,5.3s3.2,2.9,4.9,4.2c1.7,1.1,3.1,2.1,4.3,2.7
													c3.4,2,6,3.1,7.8,3.2c1.8,0.1,3.2-0.1,4-1s1.3-1.8,1.5-3.2s0.2-2.5,0.2-3.4c0-2.3-0.1-5-0.5-8.3c-0.2-3.3-1-7-2-10.9
													c-1-3.9-2.5-8.1-4.3-12.5c-1.8-4.4-4.3-8.7-7.4-13.1c-3.1-4.4-6.9-8.7-11.4-12.9C75.3,416.9,69.9,413,63.7,409.5"/>
												<path class="st5" d="M187.5,481.8c-3.3-2-5.9-2.8-7.8-2.6c-1.8,0.2-3.3,1.1-4.2,2.6c-1,1.6-1.5,3.6-1.7,6.1
													c-0.2,2.6-0.4,5.2-0.4,8l-0.2,76.9c-0.1,2.8-0.6,5-1.5,6.7c-0.4,0.7-0.9,1.5-1.3,2.1c-0.5,0.6-1.2,1-2,1.2
													c-0.7,0.2-1.7,0.4-2.8,0.1c-1.1-0.2-2.3-0.7-3.7-1.5c-1.3-0.7-2.6-1.7-3.6-2.7c-1.1-1-2-2.1-2.7-3.3
													c-0.7-1.1-1.5-2.3-2-3.6c-0.6-1.2-1-2.5-1.3-3.6c-0.9-2.7-1.3-5.5-1.5-8.5l0.2-76.9c0-2.8-0.1-5.6-0.4-8.3
													c-0.2-2.8-0.7-5.5-1.7-8.1c-1-2.6-2.3-5.2-4.3-7.5c-1.8-2.3-4.5-4.5-7.7-6.4c-3.3-1.8-5.9-2.7-7.7-2.6
													c-1.8,0.2-3.3,1.1-4.2,2.6c-1,1.6-1.6,3.6-1.8,6.1c-0.2,2.6-0.4,5.2-0.4,8l-0.2,74.4c0,6.6,0.9,13,2.8,19.1
													c1.8,6.1,4.5,12,8,17.4c3.4,5.5,7.6,10.4,12.4,15.1c4.8,4.7,10.2,8.6,16.1,11.9c5.9,3.3,11.2,5.6,16.1,6.6
													c4.9,1.1,9.1,0.9,12.5-0.5c3.4-1.3,6.3-4,8.1-8.1c2-4,2.8-9.3,2.9-16.1l0.2-74.4c0-2.8-0.1-5.6-0.4-8.5s-0.9-5.5-1.7-8.2
													c-1-2.6-2.3-5.2-4.2-7.5C193.4,485.7,190.8,483.6,187.5,481.8"/>
											</g>
										</g>
									</g>
								</g>
							</g>
						</g>
					</g>
				</g>
			</g>
			<g>
				<g>
					<g class="st3">
						<g>
							<g>
								<defs>
									<polygon id="SVGID_3_" points="297.6,611.7 297.1,475.1 423.2,402.2 423.7,538.9 								"/>
								</defs>
								<clipPath id="SVGID_4_">
									<use xlink:href="#SVGID_3_"  style="overflow:visible;"/>
								</clipPath>
								<g class="st6">
									<g>
										<g>
											<g>
												<path class="st5" d="M323.4,573.8l-0.1-36.7l11.8-6.7c2.8-1.3,5.3-2,7.5-1.8c0.9,0.1,1.8,0.2,2.7,0.7
													c0.9,0.4,1.7,1.1,2.5,2c0.7,1,1.2,2.2,1.7,3.7c0.5,1.6,0.6,3.6,0.6,5.9c0,2.2-0.2,4.3-0.6,6.1c-0.4,1.8-1,3.7-1.6,5.3
													c-0.7,1.7-1.5,3.2-2.3,4.5c-0.9,1.3-1.7,2.6-2.6,3.6c-2.1,2.6-4.4,4.5-7.1,6.3L323.4,573.8 M323.1,516.4l-0.1-33.2
													l10.2-5.9c2.6-1.2,4.8-1.7,6.9-1.7c0.9,0.1,1.7,0.4,2.5,0.7c0.9,0.4,1.6,1,2.2,1.8c0.6,0.9,1.2,2,1.6,3.4
													s0.6,3.3,0.6,5.5c0,2-0.1,3.8-0.5,5.5s-0.9,3.3-1.5,4.7c-0.6,1.5-1.3,2.8-2.1,4c-0.7,1.2-1.6,2.3-2.3,3.2
													c-2,2.3-4,4.2-6.5,5.8L323.1,516.4 M334.8,453.4l-24.6,14.2c-3.2,1.8-5.8,3.9-7.5,6.3c-1.7,2.3-3.1,4.7-3.8,7.2
													c-0.7,2.6-1.2,5.2-1.3,8c-0.1,2.7-0.2,5.5-0.2,8.3l0.2,92c0,2.8,0.1,5.6,0.2,8.2c0.1,2.6,0.6,4.7,1.5,6.4
													c0.7,1.7,2.1,2.6,3.8,2.8c1.7,0.2,4.3-0.6,7.5-2.5l27.8-16.1c7-4.4,13.2-9.7,18.8-15.9c2.3-2.6,4.7-5.5,6.9-8.8
													c2.2-3.3,4.3-6.9,6-10.7c1.7-3.8,3.2-8,4.2-12.5c1.1-4.5,1.6-9.3,1.6-14.3c0-1.1,0-2.5-0.1-4c-0.1-1.7-0.4-3.4-0.7-5.3
													c-0.4-1.8-1.1-3.6-2-5.3c-0.9-1.7-2.1-3.1-3.7-4.3c-1.6-1.1-3.6-2-5.9-2.3s-5.2-0.1-8.6,0.7c0.4-0.4,1.1-1.1,2.1-2.3
													c1-1.2,2.1-2.7,3.3-4.4c1.2-1.8,2.6-3.8,3.8-6.1c1.3-2.3,2.6-4.8,3.7-7.4c1.1-2.7,2-5.4,2.7-8.3c0.7-2.9,1.1-5.9,1-9
													c0-5.9-1-10.5-2.9-14c-2-3.3-4.5-5.5-7.8-6.6s-7.2-1.1-11.6,0C344.5,448.4,339.8,450.4,334.8,453.4"/>
												<path class="st5" d="M409.1,410.4c-3.3,1.8-5.9,4-7.7,6.4s-3.3,4.9-4.2,7.6c-1,2.7-1.5,5.4-1.7,8.2
													c-0.2,2.8-0.4,5.6-0.4,8.5l0.2,91.7c0,2.8,0.1,5.5,0.4,8.1c0.2,2.6,0.9,4.5,1.8,6.1c1,1.6,2.3,2.5,4.2,2.7
													s4.4-0.6,7.7-2.6c3.3-1.8,5.9-4,7.7-6.4c1.8-2.3,3.3-4.9,4.2-7.5c1-2.7,1.5-5.4,1.7-8.2c0.2-2.8,0.4-5.6,0.4-8.5
													l-0.2-91.7c0-2.8-0.1-5.5-0.4-8c-0.2-2.6-0.9-4.5-1.8-6.1s-2.3-2.5-4.2-2.7C415,407.6,412.4,408.5,409.1,410.4"/>
											</g>
										</g>
									</g>
								</g>
							</g>
						</g>
					</g>
				</g>
			</g>
		</g>
	</g>
	<g id="Capa_2">
		<g>
			<path class="st7" d="M303.1,404.2c3.4-1.4,6.8-2.8,10.3-4.2c2.2,7.4,8.6,10.4,10.3,18.1c0.9,4.2,1.8,8.5,0.9,12.8
				c-1.2,5.7-5.9,10.8-12,13.2c-6.2,2.3-13.7,1.9-19.4-1.2c-6.5-3.5-10.9-7.6-16-12.8c-1.9-2-3.9-4-5-6.6c-1.1-2.6-1-5.8,0.9-7.8
				c1.3,0.5,2.7,0,3.9-0.5C285.6,411.4,294.3,407.8,303.1,404.2z"/>
			<path class="st7" d="M153.6,384.1c-9.9,2.9-20.4,6.8-27.3,18c-2.2,3.5-4,8-3.9,12.8c0,4,1.3,7.8,3,10.9
				c4.8,8.9,12.9,13.2,20.3,10.8c5.1-1.7,9.6-6.2,14.5-8.7c7.1-3.6,14.7-2.8,22.1-3.1c6.6-0.3,13.2-1.3,19.6-3.2
				c6.2-1.8,13.3-5.6,15.4-14.7c1.6-6.9-0.2-14.4-2-21.1c-4.6-17.5-16.2-11.7-26-10C177.3,377.9,165.4,380.7,153.6,384.1z"/>
			<path class="st8" d="M341.5,280.4c11.3,5.4,21.8,12.5,31.1,21.9c2.1,2.2,4.2,4.5,5.3,7.5c8.7,23.4-5.6,48.3-19.2,65.6
				c-16,20.3-42.1,31.5-64.8,40.3c-7.6,3-15.4,5.6-23.4,7.2c-17.2,3.3-39.3,4.5-56-0.9c-7.9-2.6-16.9-7.3-18.5-16.5
				c-0.6-3.9,1.2-9.1,2.2-12.7c0.6-2.3,1.2-5.1,2.2-7.2c1.2-2.4,3.5-3.7,4.5-6.3c0.9-2.4,0.5-5.8-1.7-7c-0.9-0.5-2-0.6-3.1-0.6
				c-2.9-0.1-5.9,0.2-8.7,0.8c-2.2,0.4-3.2,2.5-5.1,3.4c-0.8,0.4-1.4,0.5-2.2,0.5c-0.8,0-1.4,0.4-2.1,0.7c-0.7,0.3-1.5,0.5-2.3,0.6
				c-1.8,0.4-3.6,0.7-5.4,1.1c-0.9,0.2-1.8,0.4-2.7,0.5c-1.3,0.3-2.6,0.5-3.9,0.4c-0.9-0.1-1.7-0.3-2.5-0.8c-0.3-0.2-0.6-0.6-1-0.8
				c-0.3-0.2-0.8-0.2-1.2-0.3c-2-0.5-3.9-1.3-5.9-1.8c-7.9-1.9-16-3.6-23.8-6.1c-11.5-3.7-22.4-9.4-32.7-15.9c-1.8-1.1-3.6-2.3-4.9-4
				c-1.6-2.1-2.4-4.9-2.9-7.6c-3.3-17.5,2.2-36.7,14.2-49c5-5.2,10.6-9.7,16.1-14.2c4.8-3.9,10.7-5.7,16.3-8.3
				c12.5-5.9,24.5-12.8,36.1-20.7c5.4-3.7,11.5-8.4,18-9.2c5.9-0.7,12.5,0,18.6-0.1c17-0.4,34.2-0.8,50.7,3.5c9,2.3,17.7,6,26.2,10.2
				c13.5,6.6,25.7,15.6,39.3,20.4C332.8,276.6,337.2,278.4,341.5,280.4z"/>
			<path class="st9" d="M99.6,364.1l225.8,35.8c2-0.5,2-2.6,1-5.5L316,379.8l-180-26.4c-17.2,0.6-38,0.8-40.7,2.8
				C95,360.7,96,363.7,99.6,364.1z"/>
			<path class="st8" d="M202.8,74.5c-0.3-5-0.3-10.1-0.6-15c-0.6-9.5-0.2-19.2,3-28.1c4-11,12.2-20,22.1-25.2
				c9.8-5.2,21.1-6.7,32-5.1c7.6,1.1,15,3.8,22.1,7c4.4,2,8.8,4.3,12.4,7.6c5.1,4.5,8.6,10.8,11.4,17.3c3.9,8.9,6.6,18.4,8,28.2
				c1.4,9.4,0,18.2,1,27.5c2.4,22.2,3.4,44.7,3,67.1c-0.2,11.2-1.1,22.3-0.3,33.3c0.6,8.6-5,12.8-12.1,15c-8.3,2.5-15.5-0.9-22-7
				c-13-12.3-11.4-30.7-11.4-47.6c0-3.6,2-10.9,0.8-14.1c-2-5.6-12-0.4-16.2-0.1c-6,0.5-12.1,0.1-18.1-0.3c-5.7-0.4-11.4-0.8-17-2.3
				c-3.8-1.1-7.9-3.2-9.1-7.3c-0.4-1.5-0.4-3.1-0.4-4.6c0-4.4,0.8-9.6,0.1-13.9c-0.5-3.3-2.3-5.8-3.6-9
				C204.9,90.4,203.3,82.4,202.8,74.5z"/>
			<path class="st10" d="M272.9,166.2c7.8-0.5,16.6-1.7,20.8-6.6c1.5-1.7,2.2-3.7,2.8-5.7c1.8-5.9,2.8-11.9,3-17.9
				c0.2-4.2-0.2-8.7-3.3-12.3c-5-5.6-15.8-6.9-24.2-4.5c-6.1,1.7-11,4.9-17.2,6c-5.3,0.9-10.5,2.3-15.8,3.6
				c-4.6,1.1-9.5,0.3-14.2-0.4c-0.8-0.1-1.6-0.2-2.2,0.3c-0.5,0.4-0.6,1.1-0.8,1.7c-0.9,3.4-3.6,7.5-2.7,11.1
				c0.9,3.6,4.8,4.8,7.7,6.8c4.2,2.9,4.7,7.5,7.7,10.8c3.2,3.6,9,3.8,13.3,5.2C255.8,166.9,264.4,166.7,272.9,166.2z"/>
			<path class="st5" d="M222.3,261.4c15.9,4.2,32.3,6.1,48.7,5.7c1,0,2.1-0.1,3-0.6c1.6-1,1.9-3.4,2.1-5.4
				c3.4-38.9,6.4-77.9,9.7-116.7c0.4-4.4,2.2-8.4,3.7-12.4c0.8-2.1,1.3-4.2,1.8-6.3c0.5-1.9,2-3,2.1-5.3c0-0.1,0-0.2-0.1-0.3
				c-0.1-0.1-0.2-0.2-0.3-0.2c-1.6-0.8-3.7-2.1-5.5-2.3c-1.4-0.1-2.6,1.5-3.3,2.7c-4.4,6.4-8.3,13.2-11.8,20.2
				c-4.1,8.2-11.9,8.9-19.9,9.3c-7.1,0.3-14.5,0.4-17.2-7.6c-1.3-3.8-1.4-8-2.9-11.7c-1.5-3.9-4.5-7-8.1-8.6
				c-0.9,1.6-1.2,3.4-1.4,5.3c-0.4,3.7-0.8,7.4-0.5,11c0.4,4.1,2.6,6.6,3.5,10.2c1,3.8,0,9.5-0.1,13.4
				C225.6,170.6,219.7,260.7,222.3,261.4z"/>
			<path class="st11" d="M136,348.5L136,348.5c0-0.8,0.2-1.7,0.5-2.4l36.2-91.2c0.9-2.2,2.8-3.5,4.9-3.3L313,267.2
				c2.5,0.3,4.4,2.7,4.4,5.7v100.6c0,0.8-0.2,1.7-0.5,2.4l-0.4,1c-0.9,2.3-2.9,3.6-5,3.3l-171.3-26C137.8,353.8,136,351.3,136,348.5z
				"/>
			<path class="st12" d="M293.6,267.1c-3.2,2.7-6.3,5.6-7.3,10c-0.1,0.5-0.2,1,0.1,1.4c0.2,0.3,0.5,0.4,0.8,0.5
				c1.5,0.4,3.2,0.1,4.5-0.9c0.7-0.6,1.5-1.4,2.3-1.1c0.8,0.3,1,1.4,1.1,2.4c0,0.6,0.1,1.2-0.1,1.7c-0.1,0.4-0.4,0.8-0.6,1.2
				c-1.7,2.4-3.6,4.5-4.8,7.2c-2.1,5.7,3.9,8.5,8,9.5c6.1,1.5,12.7-0.8,17.4-5.2c7.4-7,9.2-16,11.5-25.8c0.8-3.6,1.7-7.4,0.6-10.9
				C321,236.8,300.8,260.9,293.6,267.1z"/>
			<path class="st13" d="M361.7,217.6c-0.1-1.1-0.2-2.3-0.3-3.4c-2.9-25.6-11.8-49.2-26.9-69.3c-8-10.8-16.5-15.4-28.2-20.3
				c-4.5-1.9-13.2-9.2-17.6-4.4c-1.6,1.8-2.3,4.2-2.9,6.6c-3.3,12.8-5,26-6.7,39.1c-3.9,29.8-7.9,59.8-6.5,89.9
				c0.1,2.2,0.2,4.5,1.2,6.5c2.3,4.6,8,3,11.6,1.7c2.3-0.8,4.3-2.7,6.5-3.5c2.8-1,5.6,0,8.4-0.5c3.2-0.5,4.5-2.7,7.2-4.1
				c3.9-2,8.4-2.4,10.7,1.7c3,4.9,3.9,12,5.1,17.6c0.8,3.6,1.7,9.4,6,6.2c3.1-2.3,5.1-7,6.9-10.4c5.2-9.6,12.6-17.5,18.5-26.6
				C360.6,235.5,362.4,228,361.7,217.6z M323.4,231c-0.2,4.5-3.6,7.7-6.9,9.8c-2.2,1.4-8.7,6.1-11.1,3.7c-0.9-0.9-1.2-2.2-1.5-3.5
				c-0.8-4.2-1-8.7-0.4-13c0.3-2,0.7-4,0.9-6c0.2-2.2,0.2-4.5,0.2-6.8c0-5.7,0-11.4-0.1-17.1c0-2.8,0-5.6,0.5-8.3
				c0.5-2.6,2.5-7.3,5.5-6.4c3,0.9,5.1,6.2,6.2,8.9c3.7,9.2,5.9,19,6.5,28.9C323.4,224.6,323.5,227.8,323.4,231z"/>
			<polygon class="st8" points="156.9,353.1 297.5,374.6 296.9,377.9 155.9,356.7 		"/>
			<g>
				<path class="st14" d="M169.7,304.3c1.5,0.9,5.3,0.7,7,1c2.5,0.4,5,0.9,7.5,1.3c2.1,0.4,3-0.2,3.5-2.6c0.8-4,0.7-6.8-4.2-6.7
					c-1.8,0-3.6-0.5-5.4-0.8c-1.7-0.3-5.3-1.5-6.9-0.6c-1.9,1.2-3.7,6.7-1.7,8.2C169.6,304.3,169.7,304.3,169.7,304.3z"/>
				<path class="st14" d="M304,317.4c-0.1-0.2-0.3-0.3-0.5-0.5c-2.2-1.7-9.1-1-12-1.8c-3.2-0.9-3.1,1.6-3.3,3.7c-0.2,2-1.7,4.7,2,5.2
					c3.6,0.5,10.4,3.6,13.4,0.3C305.2,322.7,305.3,319.1,304,317.4z"/>
				<path class="st14" d="M169,314.8c2.4,0.1,4.9,0.6,7.3,1.2c2.8,0.7,4.4,0.4,4.9-3.4c0.4-3.5-0.3-4.9-3.5-5c-1.2,0-2.4-0.4-3.6-0.6
					c-1.4-0.2-2.8-0.3-4.1-0.7C167.5,305.7,163,314.6,169,314.8z"/>
				<path class="st14" d="M303.7,328.3c-1.2,0-2.4-0.4-3.6-0.6c-1.2-0.2-2.5-0.3-3.6-0.6c-3.1-1-4.3,0.1-4.8,3.6
					c-0.5,3.4,0.4,4.5,3.4,4.7c2.2,0.2,6.2,2.4,8.2,1.7C306.3,336,307.6,328.3,303.7,328.3z"/>
				<path class="st14" d="M300.1,338.4c-2.3,0.8-5-2.4-6.7,0.8c-2.3,4.2-0.8,7,3.6,7.8c1.1,0.2,2.1,0.3,3.2,0.5
					c5.4,0.9,5.8,0.5,5.9-5.2C306.1,336.9,301.7,340.4,300.1,338.4z"/>
				<path class="st14" d="M275.4,310.5c3.1,0.7,4.7,0.3,5.3-3.7c0.7-4.4-1.1-5.3-4.4-5.2c-3.2-1.2-4.9-0.6-5.5,3.7
					C270.1,310.1,272.6,309.8,275.4,310.5z"/>
				<path class="st14" d="M212.5,300.2c3.2,0.4,5.4,0.9,5.9-3.9c0.5-4.2-1.2-4.9-3.7-4.9c-3-0.4-5.7-2-6.2,3.1
					C208.1,298.5,208.9,299.8,212.5,300.2z"/>
				<path class="st14" d="M276.5,343.8c3.3,0.6,4.6-0.3,5.1-4c0.5-3.6-0.5-5-3.7-4.7c-3.3-1.5-4.4,0.1-5,3.7
					C272.4,342.3,273.5,343.3,276.5,343.8z"/>
				<path class="st14" d="M203.5,300.6c-3-0.4-4.8-0.1-4.4,3.9c-1.6,3.5,0.1,4.6,3.4,5.2c3.1,0.5,4.3-0.3,4.8-3.7
					C207.7,302.3,206.9,301.1,203.5,300.6z"/>
				<path class="st14" d="M217.2,307.8c0.3-3.3,0.4-5.7-3.5-5.3c-3-1.2-4.4-0.4-4.8,3.3c-0.4,3.3-0.3,5.2,3.4,5.6
					C215.2,311.6,216.9,311.7,217.2,307.8z"/>
				<path class="st14" d="M272,321.2c3.2,0.4,4.4-0.3,4.7-3.8c0.3-3.1,0.6-5.4-3.2-5c-2.9-1.1-4.6-0.7-5.1,3.2
					C268,319,268.3,320.6,272,321.2z"/>
				<path class="st14" d="M266.7,315.4c0.4-3.4,0-5.1-3.4-4.8c-2.9-1-4.5-0.6-5,3.2c-0.4,3.4-0.2,5.1,3.5,5.6
					C265.3,320.1,266.3,319,266.7,315.4z"/>
				<path class="st14" d="M278.3,317.3c-0.3,3-0.4,4.9,3.2,5.4c3.3,0.5,4.7,0,5.2-3.9c0.4-3.4-0.2-5.2-3.6-4.9
					C279.9,312.5,278.7,313.7,278.3,317.3z"/>
				<path class="st14" d="M266.7,342.2c3,0.5,4.3-0.1,4.9-3.6c0.6-3.8-0.5-4.8-3.8-5.3c-3.3-0.5-4.6,0.4-4.3,3.9
					C262.1,340.7,263.7,341.7,266.7,342.2z"/>
				<path class="st14" d="M255,346.6c0.7-3.7-0.6-4.8-3.7-4.6c-3.2-1.3-4.1,0.1-4.7,3.5c-0.7,4.1,1,4.5,4,5.2
					C254.2,351.5,254.4,349.5,255,346.6z"/>
				<path class="st14" d="M237,310.6c0.5-3.5-0.5-4.5-3.6-5c-3.1-0.5-4.7,0.1-4.4,4c-1.2,3-0.4,4.5,3,5.1
					C235.5,315.2,236.5,314.2,237,310.6z"/>
				<path class="st14" d="M225.5,341.9c0.4-3.5-0.4-5-3.7-4.8c-3-1.3-4.3-0.3-4.7,3.3c-0.3,3.1-0.2,4.8,3.3,5.3
					C223.5,346.2,225,345.9,225.5,341.9z"/>
				<path class="st14" d="M285.6,312.2c3.2,0.4,4.8,0.1,5.2-3.9c0.3-3.3,0-5.2-3.7-4.9c-2.9-1.5-4.1-0.3-4.5,3.3
					C282.3,309.6,281.8,311.7,285.6,312.2z"/>
				<path class="st14" d="M195.5,337.1c0.4-3.4,0-5.2-3.7-4.9c-2.4-1-4.1-1-4.4,2.9c-0.2,3.1-0.7,5.3,3.3,5.8
					C193.9,341.3,195,340.6,195.5,337.1z"/>
				<path class="st14" d="M185.6,335.3c0.4-3.5-0.3-5-3.6-4.7c-3.3-1.4-4.6,0-5.1,3.7c-0.6,3.7,0.9,4.3,3.7,4.9
					C183.9,339.9,185.2,339.1,185.6,335.3z"/>
				<path class="st14" d="M246.7,338.9c2.7,0.2,4.8,0.7,5-3.4c0.1-2.8,0.9-5.5-2.7-5.2c-2.7-0.4-5.2-1.7-5.5,2.9
					C243.2,336.2,242.7,338.6,246.7,338.9z"/>
				<path class="st14" d="M246.5,312.3c1.1-3.2,0.3-4.6-3-5.2c-3.5-0.7-4.4,0.5-4.9,4c-0.5,3.5,0.5,4.5,3.6,5.1
					C245.4,316.8,246.8,315.9,246.5,312.3z"/>
				<path class="st14" d="M270.8,345.2c-3.2-1.7-3.7,0.5-4.3,3.6c-0.7,3.6,0.5,4.4,3.5,5c3.5,0.7,4.4-0.5,4.9-4.1
					C275.6,345.8,274,345.1,270.8,345.2z"/>
				<path class="st14" d="M167.2,326.1c0.9,0,1.8,0,2.3-0.1c2.1-0.3,2.7-1.2,2.5-3.4c0.8-2.9,1-5.2-2.8-5.5c-3.2-0.3-5.5,1.8-6.1,5.1
					c-0.1,0.9-0.1,1.9,0.4,2.6C164,325.7,165.6,326.1,167.2,326.1z"/>
				<path class="st14" d="M187,329.1c2.7,0.4,4.7,0.6,4.9-3.4c0.2-2.8,1-5.2-3-5.4c-2.5-0.1-5.1-1.1-4.8,3.4
					C183.2,326.6,183.4,328.7,187,329.1z"/>
				<path class="st14" d="M236.7,337.2c2.9,0.5,4.4,0.2,4.9-3.5c0.5-3.8-0.4-4.8-3.7-5.3c-3.1-0.4-4.8,0.1-4.4,3.8
					C232.1,335.7,233.6,336.7,236.7,337.2z"/>
				<path class="st14" d="M201.6,298.5c3.3,0.5,4.7,0,5.1-3.9c0.4-3.4-0.3-4.7-3.5-5.1c-2.9-0.4-4.9-0.4-4.5,3.5
					C197.7,296,198,297.9,201.6,298.5z"/>
				<path class="st14" d="M281.1,346.9c-3-1.5-3.9,0.1-4.5,3.4c-0.8,4.1,1,4.6,4,5.2c3.5,0.7,4-1,4.5-4
					C285.7,347.8,284.4,346.7,281.1,346.9z"/>
				<path class="st14" d="M264.7,349.1c0.1-2.6,1.3-5.3-2.8-5.6c-2.6-0.2-5.1-1.2-4.8,3.2c-0.8,3-0.9,5.3,2.9,5.5
					C262.5,352.4,264.5,353,264.7,349.1z"/>
				<path class="st14" d="M205.2,338.8c0.4-3.3-0.1-4.8-3.4-5.2c-3-0.4-4.9-0.2-4.6,4c-1.5,3.4,0.1,4.3,3.2,4.8
					C203.4,343,204.8,342.4,205.2,338.8z"/>
				<path class="st14" d="M256.8,314.2c0.2-2.9,0.7-5.1-3.1-5.3c-2.6-0.2-5.1-1-4.8,2.9c-0.4,2.9-1.5,5.6,2.7,6
					C254.6,318.1,256.5,318.4,256.8,314.2z"/>
				<path class="st14" d="M235,343.4c0.7-3.7-0.8-4.3-3.6-4.9c-3.3-0.6-4.5,0.5-4.3,4.2c-1.7,3.7,0.7,4,3.4,4.7
					C234,348.2,234.5,346.4,235,343.4z"/>
				<path class="st14" d="M222,313c3.5,0.7,4.4-0.7,4.9-4.1c0.5-3.6-0.6-4.5-3.6-5c-3.2-0.5-4.7,0.2-4.4,4
					C217.7,311,218.7,312.3,222,313z"/>
				<path class="st14" d="M214.8,340.5c0.3-3,0.5-4.9-3.1-5.3c-3.1-0.4-4.8-0.1-4.4,4c-1.5,3.4,0,4.3,3.1,4.9
					C213.4,344.6,214.4,343.8,214.8,340.5z"/>
				<path class="st14" d="M194.2,299.1c-3-0.3-4.8-0.2-4.5,3.6c-1,3.1-0.6,4.9,3,5.4c3.2,0.5,4.3-0.4,4.7-3.8
					C197.6,301.3,197.8,299.5,194.2,299.1z"/>
				<path class="st14" d="M245.6,327.4c2.7,0.2,4.6,0.8,5-3.3c0.3-3.2,0.2-5.3-3.6-4.9c-2.7-1.2-4.3-0.8-4.8,3.1
					C241.8,325.6,242.2,327.1,245.6,327.4z"/>
				<path class="st14" d="M215.8,322.6c3,0.5,4.3,0.1,4.7-3.5c0.4-3.3,0-5.2-3.7-4.7c-3-1.6-4.1-0.1-4.6,3.3
					C211.6,321.1,212.8,322.1,215.8,322.6z"/>
				<path class="st14" d="M202.1,315.7c-0.4,3.3,0,4.9,3.3,5.2c2.6,0.2,4.7,0.9,4.9-3.2c0.2-3,0.6-5.4-3.2-5
					C204.5,311.7,202.6,311.7,202.1,315.7z"/>
				<path class="st14" d="M301,350.1c-3.1-1.4-4.3-0.2-4.8,3.3c-0.4,3.2,0,4.7,3.3,5.2c3.1,0.5,4.3-0.2,4.7-3.7
					C304.6,351.9,304.8,349.7,301,350.1z"/>
				<path class="st14" d="M294.1,353.1c1.5-3.6-0.3-4.3-3.3-4.9c-3.1-0.6-3.9,0.4-4.3,3.6c-0.4,3.1-0.3,4.8,3.2,5.3
					C292.9,357.5,294.4,356.7,294.1,353.1z"/>
				<path class="st14" d="M287.8,336.5c-3.6-0.8-3.9,1.1-4.4,4.1c-0.6,3.2,0.2,4.4,3.2,4.8c3.2,0.5,4.7-0.2,4.5-3.9
					C292.5,338,290.8,337.2,287.8,336.5z"/>
				<path class="st14" d="M296.4,314c3.2,0.5,3.9-0.8,4.4-3.8c0.5-3.1,0.3-4.8-3.2-5.3c-3.1-0.4-4.3,0.5-4.2,3.7
					C292.4,311.6,292.8,313.5,296.4,314z"/>
				<path class="st14" d="M245.1,345.5c0.3-3,0.5-4.9-3.2-5.3c-2.7-0.2-4.7-0.7-4.9,3.4c-0.1,2.8-1,5.5,3,5.2
					C243,349.8,244.8,349.4,245.1,345.5z"/>
				<path class="st14" d="M256.7,340.5c3.4,0.7,4-0.9,4.6-4c0.6-3.6-0.6-4.4-3.6-4.9c-3.3-0.6-4.6,0.4-4.3,3.9
					C252,339.2,253.8,339.9,256.7,340.5z"/>
				<path class="st14" d="M208.6,323.8c-3-1.2-4.4-0.4-4.8,3.3c-0.3,3.1-0.3,4.9,3.2,5.3c3,0.4,4.5,0.1,4.8-3.6
					C212,325.8,212.4,323.4,208.6,323.8z"/>
				<path class="st14" d="M197.2,330.8c3.4,0.6,4.1-0.8,4.5-4c0.4-3,0.1-4.4-3.1-4.9c-3-0.4-4.9-0.3-4.5,3.6
					C193,328.8,193.8,330.2,197.2,330.8z"/>
				<path class="st14" d="M177.2,327.5c3.3,0.6,4.2-0.5,4.7-3.9c0.5-3.5-0.3-4.6-3.5-5c-3.1-0.5-4.7,0.1-4.4,3.8
					C172.6,325.9,174.1,326.9,177.2,327.5z"/>
				<path class="st14" d="M286.2,325.6c-3-1.5-4-0.1-4.6,3.4c-0.6,3.7,0.8,4.4,3.7,4.9c3.1,0.6,4.2-0.1,4.7-3.6
					C290.4,326.8,289.7,325.2,286.2,325.6z"/>
				<path class="st14" d="M235.4,325.7c2.4,0.2,4.9,1.1,4.4-3.2c1-3,0.6-4.8-3-5.2c-3.1-0.4-4.3,0.2-4.8,3.7
					C231.6,324.4,232.5,325.5,235.4,325.7z"/>
				<path class="st14" d="M192.6,314.4c-0.4,3-0.1,4.5,3.1,4.8c2.7,0.3,4.6,0.7,4.9-3.3c0.2-3.1,0.4-5.3-3.3-4.9
					C194.1,309.6,193,310.9,192.6,314.4z"/>
				<path class="st14" d="M190.4,314.3c0.2-2.9,0.8-5.4-3.1-5c-2.7-1.1-4.2-0.5-4.5,3c-0.3,3.1-0.3,4.9,3.2,5.2
					C188.7,317.9,190.1,317.9,190.4,314.3z"/>
				<path class="st14" d="M227.3,335.6c2.9,0.4,4.1-0.1,4.4-3.5c0.3-2.9,0.7-4.9-3-5.3c-2.9-0.3-4.9-0.3-4.5,3.6
					C222.9,333.8,224,335.1,227.3,335.6z"/>
				<path class="st14" d="M217.3,333.8c3.7,1.6,3.7-1.1,4.4-3.9c0.9-4-1.1-4.1-3.8-4.7c-3.5-0.9-3.6,1.2-4.1,3.9
					C213.1,332.4,214,334.1,217.3,333.8z"/>
				<path class="st14" d="M275.1,332c2.5,0.9,4.7,1.2,4.8-2.9c0.1-2.4,1.2-4.9-2.6-5.2c-2.7-0.2-5.1-1.1-5.3,3.4
					C271.9,330,271.3,332.4,275.1,332z"/>
				<path class="st14" d="M264.9,330.6c2.6,0.2,4.8,1,4.9-3.2c0.1-2.5,1-4.9-2.8-5.1c-2.5-0.1-5.1-1.2-4.8,3.1
					C261.7,328.1,261.2,330.3,264.9,330.6z"/>
				<path class="st14" d="M255.5,329.1c2.9,0.5,4.4-0.2,4.1-3.5c0.8-2.8,0.9-4.6-2.7-5.1c-3.1-0.4-4.3,0.2-4.8,3.7
					C251.8,327.5,252.6,328.6,255.5,329.1z"/>
				<path class="st14" d="M227.8,315.8c-2.6-0.2-4.8-1-4.9,3.2c-0.1,2.4-1.2,4.9,2.6,5.1c2.5,0.1,5.1,1.2,4.8-3.1
					C230.9,318.4,231.5,316.1,227.8,315.8z"/>
				<path class="st14" d="M220.3,300.5C220.3,300.5,220.3,300.5,220.3,300.5c0.9,1.9,2.7,1.3,4.1,1.5c12.2,2.1,24.3,4,36.5,6
					c6.9,1.1,7,1.1,6.9-6.9c-0.8-2-2.6-1.3-4-1.6c-12.2-2.1-24.5-4.1-36.7-6.1c-6.2-1-6.2-1-6.9,5.9
					C220.2,299.8,220.3,300.1,220.3,300.5C220.3,300.5,220.3,300.5,220.3,300.5z"/>
				<path class="st14" d="M227.3,348.9c-1.2,1-3.8-2.2-4.5,1.6c-0.6,3.4,2.1,2.7,3.6,2.8c1.6,0.1,4.1,2.3,4.8-1.3
					C231.8,348.6,228.9,349.8,227.3,348.9z"/>
				<path class="st14" d="M278.6,357.6c-1.6-0.2-4.2-2.3-4.7,1.5c-0.4,3.5,2.6,1.8,3.9,2.8c1.6-0.4,3.9,1.9,4.5-1.6
					C282.9,356.8,280,357.8,278.6,357.6z"/>
				<path class="st14" d="M288.6,359c-1.5,0.6-4.1-2.2-4.5,1.8c-0.4,3.4,2.4,2.4,3.8,2.6c1.6,0.3,4.2,2.2,4.6-1.5
					C292.8,358.4,290,359.9,288.6,359z"/>
				<path class="st14" d="M298.8,360.6c-1.6,0.5-4.2-2.1-4.7,1.7c-0.4,3.4,2.4,2.4,3.8,2.6c1.6,0.2,4.2,2.2,4.6-1.5
					C303,360,300,361.7,298.8,360.6z"/>
				<path class="st14" d="M237.6,350.7c-1.6,0.5-4.1-2.2-4.6,1.6c-0.4,3.3,2.3,2.5,3.7,2.7c1.6,0.2,4.1,2.2,4.6-1.5
					C241.8,350.1,238.9,351.5,237.6,350.7z"/>
				<path class="st14" d="M186.8,342.3c-1.5,0.8-4-2.3-4.6,1.6c-0.5,3.5,2.2,2.5,3.6,2.7c1.5,0.1,4,2.5,4.6-1.3
					C191,341.7,188.1,343.4,186.8,342.3z"/>
				<path class="st14" d="M217.4,347.3c-1.1,1.3-4.1-2.7-4.7,1.7c-0.5,3.1,2.1,2.5,3.4,2.5c1.6,0.1,4.1,2.4,4.9-1.2
					C221.7,347.2,219.2,348.1,217.4,347.3z"/>
				<path class="st14" d="M247.6,352.3c-1.6,0.3-4-1.8-4.2,1.8c-0.2,3.7,2.7,2.2,4.2,2.6c1.4,0.4,3.8,2,4.1-1.6
					C252,351.3,248.8,353.5,247.6,352.3z"/>
				<path class="st14" d="M258.2,354.3c-1.6-0.1-4-2.5-4.7,1.2c-0.7,3.5,2.1,2.2,3.6,3c1.5-0.7,3.9,2.3,4.6-1.4
					C262.4,353.5,259.6,354.4,258.2,354.3z"/>
				<path class="st14" d="M267.9,355.5c-1.2,1.3-3.9-2.3-4.4,1.8c-0.4,3.5,2.3,2.5,3.7,2.6c1.5,0.1,4.1,2.5,4.6-1.4
					C272.3,354.9,269.4,356.7,267.9,355.5z"/>
				<path class="st14" d="M196.8,344c-1.5,0.7-4-2.3-4.6,1.6c-0.5,3.5,2.3,2.5,3.7,2.6c1.5,0.2,4.1,2.5,4.6-1.4
					C201,343.3,198.1,345,196.8,344z"/>
				<path class="st14" d="M165.7,338.8c-1.1,1.4-3.7-2.4-4.4,1.6c-0.6,3.5,2.1,2.6,3.5,2.7c1.6,0.1,4,2.5,4.7-1.2
					C170.2,338.3,167.3,339.9,165.7,338.8z"/>
				<path class="st14" d="M207,345.6c-1.4,0.7-3.8-2.1-4.4,1.5c-0.6,3.5,2.2,2.6,3.7,2.8c1.4,0.2,3.8,2.2,4.4-1.3
					C211.2,345,208.2,346.6,207,345.6z"/>
				<path class="st14" d="M182.4,295c1.5,0.1,3.8,2.2,4.4-0.9c0.7-3.4-2.3-1.8-3.8-2.9c-1.2,1-3.6-2-4,1.5
					C178.5,295.7,181.1,294.9,182.4,295z"/>
				<path class="st14" d="M192.5,291.7c1.5,0.1,4.1,2.5,4.6-1.2c0.4-2.9-2.3-1.6-3.7-2.6c-1.2,0.9-3.6-1.9-4.2,1.3
					C188.6,292.3,191.2,291.7,192.5,291.7z"/>
				<path class="st14" d="M183.7,290.2c1.2,0.4,3.6,1.8,3.8-1.3c0.2-3.3-2.6-1.6-3.8-2.6c-1.5,0.3-3.7-1.7-4.1,1.2
					C179.2,291.3,182.2,289.7,183.7,290.2z"/>
				<path class="st14" d="M173.4,288.4c1.5,0.1,4.1,2.5,4.6-1.2c0.4-2.9-2.3-1.6-3.6-2.5c-1.4,0.6-3.7-2-4.3,1.2
					C169.6,289.1,172.2,288.4,173.4,288.4z"/>
				<path class="st14" d="M176.5,340.4c-1.3,1.2-4-2.1-4.4,2c-0.3,3.5,2.5,2.3,3.9,2.5c1.5,0.2,4.1,2.5,4.5-1.5
					C180.8,339.8,177.8,341.8,176.5,340.4z"/>
				<path class="st14" d="M168.2,336.6c7.1,1.2,7.1,1.2,7.4-6.9c-1.8-1.9-4.2-1.4-6.4-1.8c-2.6-0.5-5.1-0.3-7.6-0.7
					c-0.2,0-0.4-0.1-0.7,0c-0.3,0.1-0.5,0.3-0.7,0.6c-0.9,1.1-1.6,2.3-2.2,3.6c-0.3,0.7-0.6,1.6-0.1,2.2
					C159.3,335.6,165.9,336.2,168.2,336.6z"/>
				<path class="st14" d="M225.3,287.2c10.5,1.6,21,3.3,31.4,5.1c3.3,0.6,4.9-0.3,5.3-4.1c0.5-4.9,1.2-9.9,2.1-14.8
					c0.7-3.8-0.3-5.6-4-6c-5.3-0.6-10.6-1.7-15.9-2.5c-5.3-0.9-10.6-1.6-15.9-2.7c-2.7-0.5-4,0.2-4.3,3.3c-0.6,5.4-1.4,10.9-2.3,16.3
					C221.1,285.3,222.2,286.8,225.3,287.2z"/>
			</g>
			<path class="st12" d="M177.9,270c0,0,0.1,0.1,0.1,0.1c1,1.5,2.9,2.6,4.2,3.9c2.7,2.9,5.1,6.1,7.6,9.2c6,7.3,11.4,11.3,20.4,11.8
				c4.4,0.3,8.9,0,12.9-2c2.1-1,5.9-3.7,6.5-6.2c0.3-1.2-0.1-2.6-0.6-3.7c-1.1-2.5-2.8-4.7-4.9-6.2c-2.9-2.2-6.8-3-9.1-6
				c-0.3-0.4-0.6-0.9-0.7-1.4c-0.1-0.5,0-1.1,0.4-1.4c0.3-0.2,0.7-0.2,1.1-0.3c0.7,0,1.5,0,2.2,0.3c1.2,0.5,2.2,0.2,3.5-0.2
				c0.3-0.1,0.6-0.2,0.8-0.5c0.2-0.2,0.2-0.5,0.2-0.8c-0.2-2.9-5.7-6.3-7.7-7.9c-3.2-2.4-6.6-4.5-10.1-6.3c-7-3.4-14.6-5.3-22.2-5.5
				c-2.7,4-5.7,7-7.1,11.7c-0.7,2.3-1,5,0.4,7C176.5,267,177,268.8,177.9,270z"/>
			<path class="st13" d="M225.1,161.8c0.3-8.5,0.9-17,1.8-25.4c0.6-5.1,1.5-9.8,1.9-15c-7.8-4-17.2-3.2-25.3,0.2
				c-8.1,3.4-15.1,9.1-21.9,15c-12.5,10.7-24.7,22.1-33.6,36.4c-6.7,10.7-11.3,23-13.6,35.7c-1.6,8.9-2,18.3,0.6,26.9
				c3.1,10.1,10.1,18,18.1,23.9c3.7,2.7,7.5,4.5,10.7,7.7c2.9,3,4.9,7.5,9.6,6.2c3.8-1,6.7-5.1,8.8-8.4c1.7-2.6,3.5-5.2,4.8-8.1
				c0.7-1.5,1.3-3.1,2.1-4.6c1.7-3.2,4.4-5.1,7.4-6.6c3.7-1.8,5.3-1.3,8.8,1c7.2,4.8,20.7,20.3,20.7,1.7
				C225.9,220,224.1,190.6,225.1,161.8z M198.9,214.4c-0.1,1.6-0.2,3.2-0.3,4.7c-0.6,7,2.4,21.2-6.6,14.9c-1.2-0.8-2.5-1.6-3.8-2.2
				c-3.4-1.8-6.6-2.3-7.9-6.2c-1.2-4,0.6-8.4,1.4-12.2c1-4.6,1-8.9,1.3-13.6c0.4-5.2,8.2-16.5,14-13.1
				C202,189.5,199.1,209.5,198.9,214.4z"/>
			<path class="st12" d="M218.6,93c0.1,1.4,0.2,2.9,0.3,4.3c0.5,7.2,2.8,15.2,5.6,21.8c4.7,11.4,14.6,20.5,26.1,24.1
				c3.1,1,6.5,1.6,9.7,0.7c3.4-0.9,6.2-3.4,8.7-5.9c11.7-12,21.2-28.9,21.1-45.9c0-2.4,0-4.7,0-7.1c0-4.7-1-6.4-5-8.2
				c-4.7-2.1-9.1-4.6-13.8-6.7c-9.2-4.1-18.9-7.5-29-8.3c-1.5-0.1-3.1-0.2-4.4,0.6c-1.4,0.8-2.2,2.3-3,3.6c-1.9,2.9-4.7,6.1-7.8,7.5
				c-2.8,1.3-4,1.3-5.7,4.2c-1.3,2.3-2,4.8-2.4,7.3C218.5,87.6,218.5,90.3,218.6,93z"/>
		</g>
	</g>
</g>
</svg>
