<svg id="Capa_1" data-name="Capa 1" xmlns="http://www.w3.org/2000/svg" xmlns:xlink="http://www.w3.org/1999/xlink" viewBox="0 0 486.07 722"><defs><style>.cls-1{fill:none;}.cls-2{fill:#7837f0;}.cls-3{fill:#5828b0;}.cls-4{fill:#9054ff;}.cls-5{isolation:isolate;}.cls-6{clip-path:url(#clip-path);}.cls-7{fill:#fff;}.cls-8{clip-path:url(#clip-path-2);}.cls-9{fill:#190c35;}.cls-10{fill:#070707;}.cls-11{fill:#616668;}.cls-12{fill:#d8b4b4;}.cls-13{fill:#b4bcc1;}.cls-14{fill:#f4c4c4;}.cls-15{fill:#2d125e;}.cls-16{fill:#8f989b;}</style><clipPath id="clip-path" transform="translate(-0.04 -0.38)"><polygon class="cls-1" points="23.7 524.84 24.07 386.65 201.63 489.16 201.26 627.35 23.7 524.84"/></clipPath><clipPath id="clip-path-2" transform="translate(-0.04 -0.38)"><polygon class="cls-1" points="297.64 611.66 297.15 475.06 423.2 402.22 423.69 538.94 297.64 611.66"/></clipPath></defs><title>Cubi chica 2</title><path class="cls-2" d="M486.11,382.48V564a62.57,62.57,0,0,1-32.74,54.93L271,715.15a58.08,58.08,0,0,1-55.91,0L32.9,619A62.34,62.34,0,0,1,.16,564.08V382.6a61.89,61.89,0,0,1,7.6-29.8h.13a60.24,60.24,0,0,1,25.13-25l182.1-96.26a58.49,58.49,0,0,1,55.79,0l182.34,96.26a60.93,60.93,0,0,1,25.13,25h.13A61.17,61.17,0,0,1,486.11,382.48Z" transform="translate(-0.04 -0.38)"/><path class="cls-3" d="M243.07,473.22V722.38a58.43,58.43,0,0,1-27.95-7.11L32.9,619A62.5,62.5,0,0,1,0,564V382.48a61.49,61.49,0,0,1,7.6-29.8Z" transform="translate(-0.04 -0.38)"/><path class="cls-4" d="M478.51,352.93,243.07,473.46,7.64,352.93A59.44,59.44,0,0,1,32.9,327.79l182.22-96.38a59.39,59.39,0,0,1,55.91,0l182.34,96.26a60.79,60.79,0,0,1,25.14,25.26Z" transform="translate(-0.04 -0.38)"/><g class="cls-5"><g class="cls-6"><path class="cls-7" d="M63.68,409.45c-7.48-3.8-14-5.88-19.87-6a25,25,0,0,0-7.35.85,14.68,14.68,0,0,0-6.38,3.93,23,23,0,0,0-4.54,8.09,43.78,43.78,0,0,0-1.71,13.12V484a63,63,0,0,0,2.33,17.9,73.5,73.5,0,0,0,6,14.84,64.9,64.9,0,0,0,8.22,11.77,85,85,0,0,0,8.71,8.83,67.26,67.26,0,0,0,7.72,6c2.33,1.47,3.92,2.57,5,3.18,6.37,3.68,12.14,6,17.41,7a24,24,0,0,0,13.73-1c3.81-1.71,6.75-4.78,9-9.19s3.18-10.18,3.18-17.42c0-.36-.12-1.1-.24-2.2a12,12,0,0,0-1.47-4.17,26.59,26.59,0,0,0-4-5.4,33.29,33.29,0,0,0-7.85-5.88,43.59,43.59,0,0,0-8.09-3.8,7.54,7.54,0,0,0-4.54-.37,2.57,2.57,0,0,0-2,1.71,19.69,19.69,0,0,0-.49,2.82,59.44,59.44,0,0,1-.61,8.47,19,19,0,0,1-2,6.25,5.63,5.63,0,0,1-4,2.82c-1.72.24-3.92-.37-6.5-1.84a17.82,17.82,0,0,1-6.38-6,33.61,33.61,0,0,1-3.31-7.11,36.72,36.72,0,0,1-1.35-8.34L52.4,441a12.91,12.91,0,0,1,1.35-5.52A5.78,5.78,0,0,1,57.06,433c1.47-.49,3.67.12,6.37,1.71a23.36,23.36,0,0,1,10.43,12.14,33.55,33.55,0,0,1,2,8.34,81.7,81.7,0,0,1,.49,9.81A12,12,0,0,0,78,471.26a24.66,24.66,0,0,0,4,5.27A39.34,39.34,0,0,0,87,480.7c1.71,1.1,3.06,2.08,4.29,2.69,3.43,2,6,3.07,7.85,3.19s3.18-.12,4-1a4.85,4.85,0,0,0,1.47-3.19c.13-1.35.25-2.45.25-3.43a74.05,74.05,0,0,0-.49-8.34,67,67,0,0,0-2-10.91,89.15,89.15,0,0,0-4.3-12.51,70.71,70.71,0,0,0-7.35-13.12,78,78,0,0,0-11.41-12.87,67.07,67.07,0,0,0-15.69-11.78" transform="translate(-0.04 -0.38)"/><path class="cls-7" d="M187.53,481.8c-3.31-2-5.89-2.82-7.85-2.57a5.41,5.41,0,0,0-4.17,2.57,14,14,0,0,0-1.72,6.13c-.24,2.58-.37,5.15-.37,8l-.24,76.89a16.59,16.59,0,0,1-1.47,6.74,12,12,0,0,1-1.35,2.08,4.06,4.06,0,0,1-2,1.23,5.21,5.21,0,0,1-2.82.12,13.94,13.94,0,0,1-3.68-1.47,15.52,15.52,0,0,1-3.56-2.7,14,14,0,0,1-2.7-3.31,20.5,20.5,0,0,1-2-3.55,26.56,26.56,0,0,1-1.35-3.56,32.47,32.47,0,0,1-1.47-8.46l.25-76.88c0-2.82-.13-5.64-.37-8.34A29.91,29.91,0,0,0,149,466.6a25.6,25.6,0,0,0-4.29-7.48,27.31,27.31,0,0,0-7.72-6.38c-3.32-1.84-5.89-2.7-7.73-2.58a5.45,5.45,0,0,0-4.17,2.58,14,14,0,0,0-1.84,6.13c-.24,2.58-.37,5.15-.37,8l-.24,74.43a62.37,62.37,0,0,0,2.82,19.13,70,70,0,0,0,8,17.41,80.2,80.2,0,0,0,12.38,15.09,76.9,76.9,0,0,0,16.07,11.89c5.88,3.31,11.16,5.64,16.06,6.62s9.08.86,12.51-.49a15,15,0,0,0,8.09-8.09c2-4.05,2.82-9.32,2.94-16.07l.25-74.43q0-4.23-.37-8.46a37.7,37.7,0,0,0-1.71-8.21,28.44,28.44,0,0,0-4.17-7.48,28.06,28.06,0,0,0-8-6.38" transform="translate(-0.04 -0.38)"/></g></g><g class="cls-5"><g class="cls-8"><path class="cls-7" d="M323.39,573.77l-.12-36.67L335,530.36a15.55,15.55,0,0,1,7.48-1.84,7.19,7.19,0,0,1,2.7.74,7.12,7.12,0,0,1,2.45,2,12.58,12.58,0,0,1,1.72,3.68,20.61,20.61,0,0,1,.61,5.88,32.06,32.06,0,0,1-.61,6.13,32.89,32.89,0,0,1-1.6,5.28,30.87,30.87,0,0,1-2.33,4.53,29.64,29.64,0,0,1-2.57,3.56,28.86,28.86,0,0,1-7.11,6.25l-12.39,7.24m-.24-57.39L323,483.15l10.18-5.89a15.78,15.78,0,0,1,6.87-1.71,8,8,0,0,1,2.45.73,5.29,5.29,0,0,1,2.21,1.84,10,10,0,0,1,1.59,3.44,22.75,22.75,0,0,1,.61,5.51,26.26,26.26,0,0,1-.49,5.52,22.18,22.18,0,0,1-1.47,4.66,32,32,0,0,1-2.08,4.05,25.42,25.42,0,0,1-2.33,3.19,29,29,0,0,1-6.5,5.76l-10.91,6.13m11.64-63-24.64,14.23a24.06,24.06,0,0,0-7.48,6.25,22.68,22.68,0,0,0-3.8,7.23,33.55,33.55,0,0,0-1.35,8c-.13,2.69-.25,5.51-.25,8.33l.25,92c0,2.82.12,5.64.24,8.22a16,16,0,0,0,1.47,6.37,4.56,4.56,0,0,0,3.81,2.82c1.71.25,4.29-.61,7.48-2.45l27.83-16.06a86.53,86.53,0,0,0,18.76-15.94,76.85,76.85,0,0,0,6.87-8.83,75,75,0,0,0,6-10.67,62.69,62.69,0,0,0,4.17-12.51,60.76,60.76,0,0,0,1.59-14.35c0-1.1,0-2.45-.12-4a42.48,42.48,0,0,0-.74-5.27,21.19,21.19,0,0,0-2-5.28,12.34,12.34,0,0,0-3.68-4.29,14.16,14.16,0,0,0-5.88-2.33,21.9,21.9,0,0,0-8.59.74,27,27,0,0,0,2.09-2.33q1.47-1.84,3.31-4.42a84.61,84.61,0,0,0,7.48-13.49,59.62,59.62,0,0,0,2.69-8.33,31.37,31.37,0,0,0,1-9q0-8.82-2.95-14a14.2,14.2,0,0,0-7.84-6.63,20.88,20.88,0,0,0-11.65,0,54.33,54.33,0,0,0-14.11,6" transform="translate(-0.04 -0.38)"/><path class="cls-7" d="M409.1,410.43a25.59,25.59,0,0,0-7.72,6.38,24.45,24.45,0,0,0-4.17,7.6,32,32,0,0,0-1.72,8.22c-.24,2.82-.37,5.64-.37,8.46l.25,91.72q0,4.23.37,8.09a13.92,13.92,0,0,0,1.84,6.14,5.43,5.43,0,0,0,4.17,2.69q2.76.38,7.72-2.57a25.64,25.64,0,0,0,7.73-6.38,25.17,25.17,0,0,0,4.17-7.48,31.44,31.44,0,0,0,1.71-8.21q.38-4.23.37-8.46l-.25-91.73c0-2.82-.12-5.51-.36-8A14,14,0,0,0,421,410.8a5.47,5.47,0,0,0-4.17-2.7c-1.84-.49-4.42.37-7.73,2.33" transform="translate(-0.04 -0.38)"/></g></g><path class="cls-9" d="M303.06,404.23,313.32,400c2.24,7.42,8.62,10.37,10.29,18.13.91,4.21,1.83,8.54.95,12.76-1.19,5.73-5.85,10.84-12,13.19a24.13,24.13,0,0,1-19.43-1.25c-6.47-3.52-10.89-7.63-16-12.84-1.94-2-3.92-4-5-6.56s-1-5.82.85-7.85c1.27.51,2.69,0,3.95-.54Z" transform="translate(-0.04 -0.38)"/><path class="cls-9" d="M153.56,384.13c-9.92,2.91-20.43,6.83-27.34,18.05A24.36,24.36,0,0,0,122.28,415a23.82,23.82,0,0,0,3,10.93c4.77,8.89,12.92,13.23,20.28,10.8,5.09-1.68,9.57-6.21,14.51-8.71,7.06-3.58,14.69-2.85,22.14-3.13a80.92,80.92,0,0,0,19.63-3.22c6.24-1.82,13.28-5.58,15.41-14.7,1.59-6.86-.21-14.37-2-21.13-4.63-17.47-16.17-11.71-26-10A325.35,325.35,0,0,0,153.56,384.13Z" transform="translate(-0.04 -0.38)"/><path class="cls-10" d="M341.47,280.41a109.26,109.26,0,0,1,31.12,21.93,21.89,21.89,0,0,1,5.35,7.48c8.72,23.44-5.64,48.31-19.23,65.61-16,20.34-42.06,31.48-64.85,40.35a138.15,138.15,0,0,1-23.43,7.15c-17.15,3.34-39.26,4.53-56-.92-7.94-2.59-16.91-7.28-18.46-16.54-.64-3.87,1.21-9.06,2.2-12.69a41.8,41.8,0,0,1,2.2-7.18c1.18-2.35,3.5-3.67,4.5-6.25s.47-5.78-1.7-7a6.48,6.48,0,0,0-3.1-.64,40.75,40.75,0,0,0-8.74.8c-2.21.44-3.21,2.5-5.12,3.44a5,5,0,0,1-2.19.49,6,6,0,0,0-2.07.66,12,12,0,0,1-2.26.61l-5.37,1.08-2.66.53a14,14,0,0,1-3.91.41,5.46,5.46,0,0,1-2.5-.8,12.23,12.23,0,0,0-1-.81,8,8,0,0,0-1.22-.26c-2-.52-3.89-1.32-5.89-1.8-7.92-1.93-16-3.56-23.81-6.08a146.12,146.12,0,0,1-32.72-15.89,18.22,18.22,0,0,1-4.88-4,17.74,17.74,0,0,1-2.91-7.63c-3.31-17.51,2.23-36.69,14.15-49a172,172,0,0,1,16.15-14.2c4.81-3.87,10.71-5.72,16.26-8.35a268,268,0,0,0,36.06-20.65c5.44-3.69,11.49-8.36,18-9.18,5.92-.73,12.51,0,18.59-.13,17-.41,34.16-.81,50.72,3.48A139.92,139.92,0,0,1,289,254.63c13.47,6.61,25.73,15.58,39.31,20.38A134.5,134.5,0,0,1,341.47,280.41Z" transform="translate(-0.04 -0.38)"/><path class="cls-11" d="M99.59,364.11l225.78,35.8c2-.55,2-2.62,1-5.51L316,379.85,136,353.49c-17.24.56-38,.77-40.75,2.75C95,360.65,96,363.73,99.59,364.11Z" transform="translate(-0.04 -0.38)"/><path class="cls-10" d="M202.78,74.46c-.3-5-.31-10.07-.64-15-.64-9.47-.25-19.21,3-28.14A47.07,47.07,0,0,1,227.21,6.08a51.91,51.91,0,0,1,32-5.07,84,84,0,0,1,22.13,7,48.16,48.16,0,0,1,12.44,7.57c5.08,4.55,8.61,10.83,11.42,17.29a110.27,110.27,0,0,1,8,28.17c1.35,9.36,0,18.17,1,27.45a532.59,532.59,0,0,1,3,67.07c-.2,11.24-1.08,22.35-.26,33.27.65,8.65-5,12.81-12.12,15-8.35,2.55-15.48-.89-22-7-13-12.32-11.4-30.65-11.4-47.64,0-3.61,1.95-10.88.83-14.09-1.95-5.63-12-.43-16.16-.07a118.79,118.79,0,0,1-18.09-.29c-5.69-.38-11.43-.77-17-2.33-3.81-1.08-7.92-3.18-9.13-7.26a15.87,15.87,0,0,1-.43-4.62c0-4.39.78-9.61.07-13.92-.53-3.27-2.34-5.85-3.64-9A71.46,71.46,0,0,1,202.78,74.46Z" transform="translate(-0.04 -0.38)"/><path class="cls-12" d="M272.88,166.18c7.8-.49,16.63-1.66,20.83-6.58a15.27,15.27,0,0,0,2.8-5.74,71.41,71.41,0,0,0,3-17.89c.17-4.24-.15-8.74-3.32-12.28-5-5.55-15.79-6.85-24.21-4.53-6.12,1.68-11,4.91-17.24,6-5.33.94-10.54,2.33-15.8,3.63-4.63,1.14-9.52.35-14.19-.4a2.57,2.57,0,0,0-2.19.3,3.15,3.15,0,0,0-.8,1.68c-.89,3.37-3.61,7.48-2.72,11.1s4.81,4.85,7.7,6.83c4.19,2.87,4.71,7.47,7.72,10.84,3.23,3.61,9,3.81,13.28,5.17C255.79,166.87,264.35,166.72,272.88,166.18Z" transform="translate(-0.04 -0.38)"/><path class="cls-7" d="M222.33,261.37a174,174,0,0,0,48.72,5.74,5.58,5.58,0,0,0,3-.65c1.6-1,1.94-3.36,2.12-5.38,3.4-38.87,6.38-77.86,9.7-116.67.38-4.39,2.24-8.39,3.73-12.43a65.37,65.37,0,0,0,1.81-6.33c.49-1.91,2-3,2.09-5.28a.54.54,0,0,0,0-.33.55.55,0,0,0-.29-.23c-1.56-.76-3.74-2.13-5.46-2.29-1.45-.13-2.57,1.55-3.35,2.71a176,176,0,0,0-11.79,20.24c-4.08,8.2-11.93,8.94-19.93,9.29-7.06.31-14.45.37-17.2-7.63-1.3-3.78-1.44-8-2.91-11.67a15.67,15.67,0,0,0-8.06-8.59,14.23,14.23,0,0,0-1.38,5.27,52.33,52.33,0,0,0-.49,11c.36,4.1,2.59,6.63,3.55,10.24,1,3.78,0,9.49-.13,13.43C225.65,170.6,219.72,260.69,222.33,261.37Z" transform="translate(-0.04 -0.38)"/><path class="cls-13" d="M136,348.46h0a6.62,6.62,0,0,1,.45-2.42l36.17-91.18a4.77,4.77,0,0,1,4.87-3.26L313,267.22c2.49.29,4.38,2.75,4.38,5.69V373.46a6.58,6.58,0,0,1-.45,2.42l-.39,1a4.75,4.75,0,0,1-5,3.25l-171.27-26C137.81,353.76,136,351.34,136,348.46Z" transform="translate(-0.04 -0.38)"/><path class="cls-14" d="M293.56,267.14c-3.2,2.73-6.28,5.57-7.31,10a1.84,1.84,0,0,0,.08,1.37,1.36,1.36,0,0,0,.83.52,5,5,0,0,0,4.52-.93c.72-.58,1.51-1.4,2.35-1.09s1,1.43,1.05,2.36a4.68,4.68,0,0,1-.1,1.71,4.18,4.18,0,0,1-.65,1.19c-1.65,2.44-3.56,4.5-4.82,7.24-2.09,5.68,3.91,8.5,8,9.48,6.14,1.46,12.67-.76,17.4-5.19,7.44-7,9.24-16,11.54-25.85.83-3.57,1.66-7.36.61-10.86C321,236.82,300.83,260.94,293.56,267.14Z" transform="translate(-0.04 -0.38)"/><path class="cls-15" d="M361.67,217.62c-.08-1.12-.18-2.26-.32-3.44-2.87-25.62-11.84-49.2-26.86-69.35-8-10.75-16.47-15.42-28.19-20.25-4.54-1.87-13.15-9.18-17.55-4.35-1.6,1.75-2.32,4.22-2.92,6.6-3.26,12.78-5,26-6.73,39.08-3.92,29.8-7.86,59.81-6.53,89.87a16.35,16.35,0,0,0,1.21,6.51c2.25,4.6,8,3,11.59,1.66,2.27-.84,4.33-2.74,6.49-3.51,2.78-1,5.62,0,8.42-.49,3.19-.53,4.5-2.68,7.18-4.06,3.92-2,8.35-2.42,10.74,1.73,3,4.87,3.92,12,5.13,17.65.78,3.63,1.7,9.38,6,6.19,3.07-2.26,5.05-7,6.89-10.37,5.23-9.61,12.59-17.51,18.51-26.57S362.4,228,361.67,217.62ZM323.37,231c-.17,4.54-3.6,7.67-6.93,9.83-2.22,1.44-8.74,6.12-11.07,3.66a7,7,0,0,1-1.46-3.49,40.56,40.56,0,0,1-.44-13c.27-2,.68-4,.9-6a61.17,61.17,0,0,0,.22-6.77l-.06-17.06a43,43,0,0,1,.5-8.26c.5-2.61,2.47-7.33,5.48-6.41s5.13,6.16,6.24,8.94A95.12,95.12,0,0,1,323.37,231Z" transform="translate(-0.04 -0.38)"/><polygon class="cls-10" points="156.89 352.74 297.42 374.17 296.84 377.5 155.84 356.28 156.89 352.74"/><path class="cls-16" d="M169.71,304.32c1.5.93,5.3.75,7,1,2.52.41,5,.87,7.54,1.33,2.05.38,3-.18,3.49-2.55.8-4,.65-6.81-4.16-6.69a31.26,31.26,0,0,1-5.45-.83c-1.72-.28-5.32-1.51-6.88-.57-1.94,1.17-3.68,6.68-1.66,8.19Z" transform="translate(-0.04 -0.38)"/><path class="cls-16" d="M304.05,317.44a2.57,2.57,0,0,0-.46-.47c-2.21-1.75-9.1-1-12-1.83-3.24-.85-3.13,1.58-3.29,3.66s-1.74,4.72,2,5.23,10.37,3.61,13.45.32C305.24,322.74,305.32,319.12,304.05,317.44Z" transform="translate(-0.04 -0.38)"/><path class="cls-16" d="M169.05,314.85a37.72,37.72,0,0,1,7.27,1.17c2.83.71,4.41.45,4.87-3.39.42-3.48-.29-4.94-3.52-5a23.92,23.92,0,0,1-3.64-.56,30.92,30.92,0,0,1-4.09-.7C167.53,305.68,163,314.55,169.05,314.85Z" transform="translate(-0.04 -0.38)"/><path class="cls-16" d="M303.73,328.29a22.73,22.73,0,0,1-3.64-.56,24.6,24.6,0,0,1-3.63-.63c-3.08-1-4.27.15-4.76,3.63s.44,4.53,3.4,4.73c2.18.16,6.17,2.44,8.23,1.65C306.27,336,307.64,328.31,303.73,328.29Z" transform="translate(-0.04 -0.38)"/><path class="cls-16" d="M300.06,338.41c-2.32.78-5-2.39-6.74.82-2.27,4.17-.83,7,3.58,7.77l3.17.52c5.35.85,5.76.52,5.92-5.25C306.14,336.9,301.68,340.37,300.06,338.41Z" transform="translate(-0.04 -0.38)"/><path class="cls-16" d="M275.4,310.48c3.09.72,4.68.32,5.29-3.67.66-4.38-1.11-5.28-4.39-5.19-3.19-1.19-4.88-.63-5.52,3.67C270.07,310.07,272.64,309.84,275.4,310.48Z" transform="translate(-0.04 -0.38)"/><path class="cls-16" d="M212.49,300.21c3.19.38,5.36.91,5.92-3.89.49-4.2-1.16-4.86-3.71-4.85-3-.41-5.67-2-6.19,3.09C208.1,298.52,208.92,299.79,212.49,300.21Z" transform="translate(-0.04 -0.38)"/><path class="cls-16" d="M276.53,343.82c3.31.58,4.64-.28,5.15-4s-.52-5-3.73-4.74c-3.32-1.45-4.44.06-5,3.67S273.49,343.29,276.53,343.82Z" transform="translate(-0.04 -0.38)"/><path class="cls-16" d="M203.48,300.63c-3-.4-4.79-.1-4.44,3.93-1.55,3.53.1,4.62,3.36,5.17,3.09.53,4.25-.26,4.77-3.73C207.71,302.34,206.86,301.08,203.48,300.63Z" transform="translate(-0.04 -0.38)"/><path class="cls-16" d="M217.25,307.81c.3-3.32.4-5.66-3.52-5.28-3-1.23-4.36-.37-4.81,3.28-.41,3.35-.32,5.24,3.44,5.56C215.19,311.61,216.9,311.7,217.25,307.81Z" transform="translate(-0.04 -0.38)"/><path class="cls-16" d="M272,321.16c3.2.44,4.4-.32,4.75-3.83.31-3.06.55-5.43-3.23-5-2.87-1.05-4.59-.68-5.07,3.2C268,319,268.34,320.65,272,321.16Z" transform="translate(-0.04 -0.38)"/><path class="cls-16" d="M266.73,315.42c.41-3.36,0-5.14-3.43-4.79-2.87-1-4.55-.64-5,3.23-.37,3.37-.18,5.06,3.47,5.64C265.29,320.06,266.29,319,266.73,315.42Z" transform="translate(-0.04 -0.38)"/><path class="cls-16" d="M278.29,317.29c-.32,3-.42,4.91,3.18,5.41,3.26.46,4.73,0,5.17-3.92.39-3.44-.17-5.18-3.61-4.91C279.94,312.52,278.67,313.71,278.29,317.29Z" transform="translate(-0.04 -0.38)"/><path class="cls-16" d="M266.72,342.18c3,.5,4.31-.06,4.86-3.64.59-3.8-.52-4.78-3.78-5.31s-4.59.42-4.33,3.93C262.13,340.67,263.68,341.68,266.72,342.18Z" transform="translate(-0.04 -0.38)"/><path class="cls-16" d="M255,346.57c.71-3.67-.57-4.84-3.66-4.6-3.18-1.32-4.12.12-4.71,3.52-.71,4.06,1,4.54,4,5.19C254.18,351.47,254.42,349.47,255,346.57Z" transform="translate(-0.04 -0.38)"/><path class="cls-16" d="M237.05,310.57c.48-3.49-.47-4.52-3.56-5s-4.72.1-4.4,4c-1.23,3-.39,4.46,3,5.08S236.55,314.15,237.05,310.57Z" transform="translate(-0.04 -0.38)"/><path class="cls-16" d="M225.48,341.93c.39-3.53-.38-5-3.67-4.79-3-1.3-4.32-.3-4.71,3.31-.35,3.14-.22,4.81,3.25,5.29C223.52,346.18,225,345.88,225.48,341.93Z" transform="translate(-0.04 -0.38)"/><path class="cls-16" d="M285.57,312.2c3.21.44,4.78.09,5.18-3.85.34-3.3,0-5.25-3.73-4.9-2.91-1.54-4.15-.26-4.49,3.28C282.25,309.63,281.84,311.7,285.57,312.2Z" transform="translate(-0.04 -0.38)"/><path class="cls-16" d="M195.47,337.13c.43-3.36,0-5.22-3.66-4.86-2.41-1-4.11-1-4.38,2.86-.22,3.11-.66,5.3,3.3,5.79C193.9,341.31,195,340.61,195.47,337.13Z" transform="translate(-0.04 -0.38)"/><path class="cls-16" d="M185.61,335.32c.43-3.5-.29-5-3.56-4.68-3.31-1.35-4.55,0-5.13,3.67s.85,4.31,3.69,4.9C183.94,339.91,185.16,339.08,185.61,335.32Z" transform="translate(-0.04 -0.38)"/><path class="cls-16" d="M246.65,338.86c2.68.18,4.76.72,5-3.4.14-2.84.89-5.49-2.74-5.17-2.68-.41-5.19-1.67-5.46,2.86C243.22,336.21,242.65,338.59,246.65,338.86Z" transform="translate(-0.04 -0.38)"/><path class="cls-16" d="M246.52,312.33c1.15-3.22.26-4.55-3.05-5.17-3.51-.66-4.44.5-4.94,4s.51,4.53,3.58,5.05C245.36,316.79,246.75,315.87,246.52,312.33Z" transform="translate(-0.04 -0.38)"/><path class="cls-16" d="M270.82,345.22c-3.21-1.74-3.73.47-4.31,3.58-.67,3.57.52,4.44,3.54,5,3.5.7,4.4-.49,4.94-4.07C275.59,345.82,274,345.14,270.82,345.22Z" transform="translate(-0.04 -0.38)"/><path class="cls-16" d="M167.16,326.14a11.46,11.46,0,0,0,2.3-.08c2.09-.35,2.71-1.15,2.55-3.45.8-2.91,1-5.16-2.79-5.47-3.25-.27-5.53,1.75-6.09,5.13a3.84,3.84,0,0,0,.37,2.65C164,325.73,165.64,326.07,167.16,326.14Z" transform="translate(-0.04 -0.38)"/><path class="cls-16" d="M187,329.13c2.73.35,4.71.61,4.94-3.36.17-2.75,1-5.22-2.95-5.39-2.54-.11-5.1-1.13-4.76,3.45C183.24,326.6,183.43,328.66,187,329.13Z" transform="translate(-0.04 -0.38)"/><path class="cls-16" d="M236.7,337.23c2.9.45,4.36.18,4.9-3.55s-.41-4.85-3.73-5.32c-3.12-.44-4.76.06-4.42,3.8C232.11,335.68,233.64,336.75,236.7,337.23Z" transform="translate(-0.04 -0.38)"/><path class="cls-16" d="M201.57,298.46c3.26.48,4.69,0,5.13-3.89.4-3.41-.32-4.68-3.52-5.11-2.92-.39-4.89-.39-4.5,3.52C197.75,296,198,297.93,201.57,298.46Z" transform="translate(-0.04 -0.38)"/><path class="cls-16" d="M281.08,346.91c-3-1.53-3.91.07-4.54,3.44-.77,4.1,1,4.56,4,5.19,3.5.73,4-1,4.52-4C285.7,347.76,284.37,346.69,281.08,346.91Z" transform="translate(-0.04 -0.38)"/><path class="cls-16" d="M264.67,349.08c.08-2.59,1.33-5.32-2.78-5.57-2.57-.15-5.15-1.17-4.83,3.18-.8,3-.94,5.28,2.9,5.52C262.45,352.36,264.54,353,264.67,349.08Z" transform="translate(-0.04 -0.38)"/><path class="cls-16" d="M205.2,338.82c.4-3.32-.12-4.75-3.43-5.17-3-.38-4.89-.18-4.6,4-1.54,3.36.09,4.3,3.19,4.84S204.76,342.44,205.2,338.82Z" transform="translate(-0.04 -0.38)"/><path class="cls-16" d="M256.81,314.18c.2-2.9.68-5.07-3.07-5.29-2.58-.15-5.06-1-4.8,2.87-.36,2.95-1.5,5.63,2.66,6C254.56,318.08,256.51,318.36,256.81,314.18Z" transform="translate(-0.04 -0.38)"/><path class="cls-16" d="M235.05,343.36c.7-3.71-.77-4.3-3.64-4.85-3.33-.64-4.52.52-4.29,4.18-1.69,3.73.73,4,3.42,4.66C234,348.21,234.47,346.39,235.05,343.36Z" transform="translate(-0.04 -0.38)"/><path class="cls-16" d="M222,313c3.54.68,4.38-.66,4.9-4.12s-.56-4.46-3.58-5c-3.17-.53-4.67.21-4.38,4C217.69,311,218.73,312.33,222,313Z" transform="translate(-0.04 -0.38)"/><path class="cls-16" d="M214.79,340.54c.34-3,.5-4.87-3.13-5.28-3.07-.35-4.8-.08-4.41,4-1.53,3.36,0,4.31,3.13,4.86S214.42,343.77,214.79,340.54Z" transform="translate(-0.04 -0.38)"/><path class="cls-16" d="M194.18,299.12c-3-.31-4.83-.17-4.5,3.63-1,3.09-.57,4.87,3,5.41,3.22.49,4.27-.43,4.66-3.82C197.64,301.33,197.8,299.5,194.18,299.12Z" transform="translate(-0.04 -0.38)"/><path class="cls-16" d="M245.56,327.4c2.66.24,4.64.76,5-3.32.28-3.2.22-5.28-3.57-4.9-2.67-1.19-4.32-.78-4.78,3.12C241.8,325.61,242.23,327.1,245.56,327.4Z" transform="translate(-0.04 -0.38)"/><path class="cls-16" d="M215.81,322.56c3,.5,4.33.08,4.73-3.55.37-3.3.05-5.17-3.66-4.74-3-1.57-4.06-.15-4.64,3.28S212.81,322.05,215.81,322.56Z" transform="translate(-0.04 -0.38)"/><path class="cls-16" d="M202.15,315.67c-.39,3.26,0,4.86,3.35,5.18,2.59.24,4.68.92,4.93-3.23.19-3,.59-5.4-3.15-5C204.54,311.7,202.62,311.69,202.15,315.67Z" transform="translate(-0.04 -0.38)"/><path class="cls-16" d="M301.05,350.13c-3.08-1.36-4.33-.22-4.77,3.33-.4,3.23,0,4.73,3.35,5.25,3.13.48,4.34-.17,4.69-3.7C304.63,351.93,304.79,349.67,301.05,350.13Z" transform="translate(-0.04 -0.38)"/><path class="cls-16" d="M294.1,353.12c1.46-3.61-.33-4.32-3.27-4.89s-3.93.44-4.33,3.57-.33,4.81,3.21,5.28C292.93,357.5,294.38,356.75,294.1,353.12Z" transform="translate(-0.04 -0.38)"/><path class="cls-16" d="M287.81,336.52c-3.63-.8-3.9,1.13-4.41,4.07-.56,3.21.19,4.36,3.2,4.83s4.75-.21,4.46-3.91C292.46,338,290.81,337.18,287.81,336.52Z" transform="translate(-0.04 -0.38)"/><path class="cls-16" d="M296.39,314c3.19.45,3.92-.8,4.37-3.82s.34-4.81-3.2-5.29c-3.12-.42-4.33.45-4.19,3.7C292.44,311.65,292.81,313.47,296.39,314Z" transform="translate(-0.04 -0.38)"/><path class="cls-16" d="M245.11,345.51c.28-3,.47-4.95-3.15-5.27-2.74-.25-4.68-.66-4.86,3.35-.13,2.79-1,5.55,3,5.16C243,349.79,244.75,349.4,245.11,345.51Z" transform="translate(-0.04 -0.38)"/><path class="cls-16" d="M256.74,340.54c3.41.72,4-.87,4.58-4,.65-3.65-.64-4.41-3.61-4.95-3.28-.59-4.58.43-4.33,3.93C252,339.16,253.84,339.92,256.74,340.54Z" transform="translate(-0.04 -0.38)"/><path class="cls-16" d="M208.57,323.78c-3-1.24-4.43-.38-4.82,3.29-.33,3.1-.29,4.89,3.22,5.33,3,.38,4.49.05,4.8-3.63C212,325.78,212.4,323.35,208.57,323.78Z" transform="translate(-0.04 -0.38)"/><path class="cls-16" d="M197.18,330.81c3.41.59,4.11-.83,4.54-4,.4-3,.07-4.44-3.1-4.86-3-.39-4.87-.28-4.47,3.64C193,328.84,193.85,330.24,197.18,330.81Z" transform="translate(-0.04 -0.38)"/><path class="cls-16" d="M177.18,327.52c3.25.61,4.17-.54,4.67-3.86s-.34-4.56-3.48-5-4.74.08-4.41,3.8C172.64,325.9,174.12,326.94,177.18,327.52Z" transform="translate(-0.04 -0.38)"/><path class="cls-16" d="M286.17,325.6c-3-1.52-4-.05-4.63,3.37-.64,3.74.84,4.38,3.69,4.94,3.08.6,4.24-.11,4.69-3.63S289.7,325.24,286.17,325.6Z" transform="translate(-0.04 -0.38)"/><path class="cls-16" d="M235.41,325.7c2.4.21,4.89,1.14,4.4-3.23,1-3,.64-4.76-3-5.22-3.13-.41-4.29.22-4.78,3.74C231.59,324.35,232.47,325.45,235.41,325.7Z" transform="translate(-0.04 -0.38)"/><path class="cls-16" d="M192.56,314.39c-.35,3-.11,4.51,3.09,4.84,2.67.27,4.6.75,4.9-3.29.23-3.06.44-5.34-3.3-4.93C194.12,309.59,193,310.93,192.56,314.39Z" transform="translate(-0.04 -0.38)"/><path class="cls-16" d="M190.4,314.34c.22-2.92.78-5.44-3.11-5-2.75-1.09-4.16-.49-4.54,3-.32,3.09-.34,4.87,3.19,5.25C188.65,317.94,190.13,317.88,190.4,314.34Z" transform="translate(-0.04 -0.38)"/><path class="cls-16" d="M227.26,335.62c2.88.42,4.13-.09,4.44-3.46.27-2.9.72-5-3-5.29-2.91-.27-4.89-.34-4.53,3.62C222.91,333.83,224,335.14,227.26,335.62Z" transform="translate(-0.04 -0.38)"/><path class="cls-16" d="M217.34,333.79c3.68,1.58,3.75-1.12,4.38-3.91.9-4-1.15-4.09-3.77-4.75-3.47-.88-3.62,1.22-4.14,3.87C213.13,332.44,214,334.06,217.34,333.79Z" transform="translate(-0.04 -0.38)"/><path class="cls-16" d="M275.11,332c2.49.92,4.69,1.22,4.83-2.94.07-2.43,1.21-4.93-2.65-5.16-2.67-.16-5.07-1.14-5.25,3.37C271.94,330,271.35,332.36,275.11,332Z" transform="translate(-0.04 -0.38)"/><path class="cls-16" d="M264.94,330.57c2.58.17,4.82,1,4.94-3.23.06-2.51,1-4.93-2.76-5.09-2.53-.11-5.14-1.25-4.77,3.11C261.69,328.07,261.24,330.32,264.94,330.57Z" transform="translate(-0.04 -0.38)"/><path class="cls-16" d="M255.53,329.06c2.94.47,4.37-.16,4.14-3.45.75-2.76.87-4.65-2.66-5.07-3.09-.38-4.31.22-4.75,3.72C251.84,327.48,252.56,328.59,255.53,329.06Z" transform="translate(-0.04 -0.38)"/><path class="cls-16" d="M227.8,315.8c-2.58-.17-4.8-1-4.89,3.19,0,2.42-1.22,4.95,2.63,5.11,2.5.1,5.12,1.22,4.81-3.05C230.94,318.35,231.53,316.06,227.8,315.8Z" transform="translate(-0.04 -0.38)"/><path class="cls-16" d="M220.35,300.47h0c.9,1.9,2.68,1.3,4.08,1.54,12.15,2.07,24.32,4,36.49,6,6.91,1.13,7,1.06,6.91-6.87-.84-2-2.64-1.34-4-1.57-12.22-2.09-24.46-4-36.69-6-6.21-1-6.21-1-6.88,5.94a5.61,5.61,0,0,0,.09,1Z" transform="translate(-0.04 -0.38)"/><path class="cls-16" d="M227.26,348.89c-1.25,1-3.83-2.23-4.5,1.58-.59,3.35,2.11,2.67,3.59,2.8s4.08,2.3,4.76-1.3C231.76,348.56,228.92,349.8,227.26,348.89Z" transform="translate(-0.04 -0.38)"/><path class="cls-16" d="M278.59,357.57c-1.58-.2-4.24-2.33-4.65,1.53-.37,3.45,2.6,1.82,3.86,2.79,1.62-.35,3.94,1.86,4.49-1.58S280,357.75,278.59,357.57Z" transform="translate(-0.04 -0.38)"/><path class="cls-16" d="M288.56,359c-1.5.59-4.08-2.15-4.52,1.76-.38,3.44,2.39,2.37,3.81,2.6s4.16,2.23,4.59-1.53C292.83,358.41,290,359.9,288.56,359Z" transform="translate(-0.04 -0.38)"/><path class="cls-16" d="M298.81,360.64c-1.65.51-4.24-2.12-4.68,1.71-.39,3.36,2.36,2.42,3.83,2.63s4.17,2.21,4.61-1.55C303,360,300,361.66,298.81,360.64Z" transform="translate(-0.04 -0.38)"/><path class="cls-16" d="M237.57,350.65c-1.57.51-4.12-2.15-4.63,1.63-.44,3.35,2.28,2.5,3.75,2.67s4.13,2.25,4.64-1.45C241.8,350.11,238.94,351.52,237.57,350.65Z" transform="translate(-0.04 -0.38)"/><path class="cls-16" d="M186.82,342.3c-1.49.78-4-2.28-4.63,1.6-.54,3.5,2.24,2.54,3.63,2.66s4,2.49,4.63-1.31C191,341.67,188.08,343.36,186.82,342.3Z" transform="translate(-0.04 -0.38)"/><path class="cls-16" d="M217.37,347.32c-1.15,1.34-4.07-2.74-4.73,1.69-.45,3.09,2.07,2.48,3.44,2.54,1.63.08,4,2.42,4.87-1.21C221.66,347.21,219.16,348.06,217.37,347.32Z" transform="translate(-0.04 -0.38)"/><path class="cls-16" d="M247.62,352.31c-1.62.34-4-1.85-4.24,1.75s2.72,2.22,4.25,2.63c1.38.37,3.83,2,4.07-1.57C252,351.33,248.79,353.48,247.62,352.31Z" transform="translate(-0.04 -0.38)"/><path class="cls-16" d="M258.23,354.29c-1.55-.1-4-2.48-4.73,1.16s2.14,2.16,3.58,3c1.46-.7,3.89,2.28,4.65-1.43C262.44,353.52,259.63,354.38,258.23,354.29Z" transform="translate(-0.04 -0.38)"/><path class="cls-16" d="M267.88,355.48c-1.17,1.25-3.87-2.31-4.36,1.8-.42,3.48,2.33,2.46,3.72,2.6s4.07,2.51,4.6-1.39C272.31,355,269.38,356.65,267.88,355.48Z" transform="translate(-0.04 -0.38)"/><path class="cls-16" d="M196.8,344c-1.46.74-4-2.31-4.56,1.65-.46,3.48,2.32,2.47,3.71,2.61s4.06,2.49,4.6-1.39C201.05,343.29,198.11,345,196.8,344Z" transform="translate(-0.04 -0.38)"/><path class="cls-16" d="M165.69,338.77c-1.12,1.39-3.72-2.38-4.42,1.62-.63,3.54,2.14,2.63,3.54,2.74,1.55.12,4,2.45,4.72-1.23S167.29,339.85,165.69,338.77Z" transform="translate(-0.04 -0.38)"/><path class="cls-16" d="M207,345.61c-1.45.67-3.82-2.07-4.39,1.52s2.2,2.62,3.69,2.81,3.77,2.2,4.35-1.32S208.24,346.63,207,345.61Z" transform="translate(-0.04 -0.38)"/><path class="cls-16" d="M182.35,295c1.46.13,3.78,2.21,4.4-.87.69-3.4-2.33-1.82-3.77-2.94-1.17,1-3.59-2-4,1.49C178.54,295.66,181.07,294.89,182.35,295Z" transform="translate(-0.04 -0.38)"/><path class="cls-16" d="M192.52,291.71c1.54.06,4.08,2.54,4.58-1.17.39-2.91-2.28-1.64-3.73-2.59-1.22.85-3.55-1.93-4.16,1.33C188.65,292.31,191.24,291.65,192.52,291.71Z" transform="translate(-0.04 -0.38)"/><path class="cls-16" d="M183.73,290.22c1.25.39,3.56,1.82,3.77-1.3.21-3.31-2.65-1.58-3.84-2.6-1.47.34-3.7-1.7-4.06,1.25C179.16,291.27,182.22,289.75,183.73,290.22Z" transform="translate(-0.04 -0.38)"/><path class="cls-16" d="M173.45,288.44c1.53.09,4.09,2.5,4.56-1.19.37-2.89-2.3-1.62-3.6-2.46-1.38.6-3.66-2.05-4.26,1.24C169.59,289.09,172.18,288.37,173.45,288.44Z" transform="translate(-0.04 -0.38)"/><path class="cls-16" d="M176.45,340.44c-1.25,1.21-4-2.13-4.35,2-.3,3.45,2.45,2.31,3.85,2.51s4.1,2.46,4.49-1.53C180.78,339.84,177.82,341.81,176.45,340.44Z" transform="translate(-0.04 -0.38)"/><path class="cls-16" d="M168.23,336.6c7.1,1.2,7.1,1.18,7.35-6.9-1.8-1.95-4.24-1.36-6.38-1.75-2.59-.48-5-.26-7.63-.75a1.48,1.48,0,0,0-.66,0,1.5,1.5,0,0,0-.69.56,17.4,17.4,0,0,0-2.18,3.63,2.36,2.36,0,0,0-.14,2.24C159.27,335.61,165.94,336.22,168.23,336.6Z" transform="translate(-0.04 -0.38)"/><path class="cls-16" d="M225.34,287.24q15.74,2.38,31.41,5.14c3.27.59,4.88-.34,5.25-4.07.5-4.95,1.18-9.89,2.07-14.78.68-3.76-.29-5.56-4-6-5.33-.63-10.62-1.68-15.93-2.55s-10.64-1.62-15.93-2.65c-2.68-.52-3.95.19-4.28,3.3-.58,5.44-1.35,10.86-2.26,16.25C221.14,285.29,222.21,286.76,225.34,287.24Z" transform="translate(-0.04 -0.38)"/><path class="cls-14" d="M177.86,270l.09.13c1,1.47,2.92,2.61,4.17,3.93,2.72,2.89,5.12,6.12,7.64,9.21,6,7.27,11.43,11.25,20.45,11.8,4.37.27,8.89,0,12.86-2,2.06-1,5.93-3.66,6.54-6.22a5.93,5.93,0,0,0-.6-3.71,16,16,0,0,0-4.91-6.24c-2.89-2.17-6.76-3-9.07-6a3.41,3.41,0,0,1-.7-1.38,1.46,1.46,0,0,1,.45-1.43,1.83,1.83,0,0,1,1.11-.25,5.17,5.17,0,0,1,2.18.29,4.51,4.51,0,0,0,3.47-.17,1.35,1.35,0,0,0,.77-.47,1.21,1.21,0,0,0,.15-.82c-.22-2.94-5.67-6.29-7.71-7.85a59.1,59.1,0,0,0-10.14-6.27A54.52,54.52,0,0,0,182.37,247c-2.68,4-5.74,7-7.12,11.67-.67,2.3-.95,5,.35,7C176.48,267,177,268.76,177.86,270Z" transform="translate(-0.04 -0.38)"/><path class="cls-15" d="M225.11,161.81c.3-8.53.86-17,1.79-25.39.56-5.11,1.51-9.82,1.9-15-7.84-4-17.22-3.22-25.31.18s-15.14,9.13-22,15C169.08,147.27,156.86,158.72,148,173a102.11,102.11,0,0,0-13.61,35.7c-1.59,8.89-2,18.27.63,26.86,3.09,10.09,10.09,18,18.09,23.87,3.68,2.67,7.49,4.47,10.66,7.72,2.92,3,4.89,7.47,9.6,6.22,3.83-1,6.66-5.14,8.84-8.4A58.67,58.67,0,0,0,187,256.9c.71-1.52,1.28-3.12,2.08-4.59a15.72,15.72,0,0,1,7.38-6.56c3.68-1.82,5.27-1.35,8.76,1,7.24,4.79,20.73,20.29,20.68,1.73C225.89,220,224.07,190.59,225.11,161.81ZM198.86,214.4c-.1,1.58-.21,3.16-.35,4.74-.58,7,2.4,21.16-6.55,14.92a37,37,0,0,0-3.76-2.25c-3.39-1.79-6.64-2.25-7.86-6.18s.57-8.36,1.41-12.21c1-4.64,1-8.89,1.31-13.56.38-5.17,8.2-16.46,14-13.15C202,189.52,199.15,209.55,198.86,214.4Z" transform="translate(-0.04 -0.38)"/><path class="cls-14" d="M218.59,93c.07,1.43.18,2.86.28,4.29a74.78,74.78,0,0,0,5.56,21.78,42.54,42.54,0,0,0,26.08,24.1c3.13,1,6.5,1.57,9.67.72,3.4-.92,6.19-3.37,8.69-5.93,11.68-12,21.18-28.9,21.1-45.94l0-7.07c0-4.75-1-6.38-5-8.2-4.66-2.09-9.13-4.6-13.8-6.68-9.21-4.1-18.9-7.45-29-8.31a7.61,7.61,0,0,0-4.36.56c-1.37.77-2.18,2.26-3,3.61-1.86,2.94-4.68,6-7.76,7.48-2.77,1.28-4,1.27-5.7,4.21a21.12,21.12,0,0,0-2.4,7.35A41.45,41.45,0,0,0,218.59,93Z" transform="translate(-0.04 -0.38)"/></svg>