<svg id="Capa_1" data-name="Capa 1" xmlns="http://www.w3.org/2000/svg" viewBox="0 0 1607.35 1080"><defs><style>.cls-1{fill:#6f47d1;}.cls-2{fill:#9a8dc4;}.cls-3{fill:#7a7a7a;}.cls-4{fill:#2d125e;}.cls-5{fill:#a5a5a5;}.cls-6{fill:#e3f4fc;}.cls-7{fill:#8f53ff;}.cls-8{fill:#10276d;}.cls-9{fill:#fff;}.cls-10{fill:#f4c4c4;}.cls-11{fill:#634b95;}.cls-12{fill:#070707;}.cls-13{fill:red;}.cls-14{fill:#502dba;}.cls-15{fill:#fdf1e3;}.cls-16{fill:#112e72;}.cls-17{fill:#293950;}.cls-18{fill:#634b96;}.cls-19{fill:#b597ff;}.cls-20{fill:#fda800;}</style></defs><title>Cubi dibujo</title><rect class="cls-1" x="879.87" y="537.66" width="245.77" height="165.77" rx="12"/><polygon class="cls-2" points="162.21 992.3 884.78 997.46 776.73 525.77 58.98 517.72 54.07 538.36 162.21 992.3"/><path class="cls-1" d="M805.17,352.65H693.86c-5.91,0-12.59-1.54-17.8,1.6-6.37,3.82-11.51,9.55-16.07,15.5-5.83,7.6-11,15.86-18,22.34-.29-.52-.54-1.06-.83-1.58V358.85c0-4.49.82-6.2-4.13-6.2-33.52,0-60.95-28.79-60.95-64V236.07c0-35.18,27.43-64,60.95-64H805.17c33.52,0,61,28.79,61,64v52.61C866.12,323.86,838.69,352.65,805.17,352.65Z" transform="translate(-1 0)"/><rect x="1071.57" y="369.06" width="44.24" height="54.87" rx="2.87"/><path class="cls-3" d="M1123.76,414.55h-58.15a2.88,2.88,0,0,1-2.87-2.87V347.49h63.9v64.19A2.88,2.88,0,0,1,1123.76,414.55Z" transform="translate(-1 0)"/><path class="cls-4" d="M1097.15,74.09c-62.44,0-113.06,53.12-113.06,118.64,0,58.2,45.17,90.49,68.74,138.3,3.42,6.94,7,14.37,13.42,18.34,5.55,3.43,12.33,3.67,18.78,3.64,4,0,8.08-.18,12.12-.35,4,.17,8.08.33,12.12.35,6.45,0,13.22-.21,18.78-3.64,6.42-4,10-11.4,13.42-18.34,23.56-47.81,68.73-80.1,68.73-138.3C1210.2,127.21,1159.59,74.09,1097.15,74.09Z" transform="translate(-1 0)"/><rect class="cls-5" x="1051.91" y="362.97" width="83.56" height="15.48" rx="1.5"/><rect class="cls-5" x="1051.91" y="388.76" width="83.56" height="15.48" rx="1.5"/><polygon class="cls-6" points="648.84 765.33 781.56 765.33 806.13 854.94 678.33 854.94 648.84 765.33"/><polygon class="cls-6" points="683.25 871.74 815.97 871.74 840.54 961.35 712.74 961.35 683.25 871.74"/><polygon class="cls-6" points="611.98 646.68 732.32 584.78 774.18 749.86 642.39 749.86 611.98 646.68"/><path class="cls-1" d="M176.84,1012.92l-10.74.2c-3.83.07-7.18-2.84-8.14-7.08L53.64,545.57a10.34,10.34,0,0,1,1.52-8.18,7.9,7.9,0,0,1,6.31-3.54h0L168.84,532l-.49-29.63L61,504.22h0c-10.71.2-20.61,5.7-27.16,15.1a42.13,42.13,0,0,0-6.28,33.38l104.32,460.47c4,17.72,18.3,29.88,34.74,29.58l10.74-.2Z" transform="translate(-1 0)"/><rect class="cls-7" x="152.38" y="1007.78" width="776.64" height="61.9" rx="3.54"/><path class="cls-8" d="M868.88,1020.86H173.36c-16.53,0-30.68-11.9-34.41-28.93L41.81,549.36a38.79,38.79,0,0,1,6.86-31.85,34.47,34.47,0,0,1,27.55-14h0l684.82.4c16.1,0,30.16,11.54,34.18,28L903.08,974.15a38.8,38.8,0,0,1-6.38,32.37A34.46,34.46,0,0,1,868.88,1020.86ZM76.22,531.91a8,8,0,0,0-6.4,3.27A9.56,9.56,0,0,0,68.15,543l97.14,442.58a8.43,8.43,0,0,0,8.07,6.91H868.88a8,8,0,0,0,6.46-3.36,9.48,9.48,0,0,0,1.55-7.93L769.05,539a8.46,8.46,0,0,0-8-6.7l-684.82-.4Z" transform="translate(-1 0)"/><path class="cls-4" d="M1370.67,957.55l-4.38,97.29c-.37,8.26-3.71,8.34-9.88,13.28-1.52,1.22-3.17,3.11-2.44,5,.64,1.64,2.67,2,4.35,2.06,22.47,1.07,45.13.06,67.65-.12q42.91-.36,85.83-.89a9.06,9.06,0,0,0,3.07-.39c9.7-3.56,6.08-28.94,7.23-37.06,3.05-21.67,5.16-42.69,6.71-64.61,1.29-18.37,7.77-37.15,10-55.88,5-42,4.3-84.5,3.6-126.76-.65-39.55-.86-107-41.29-128.1,4.35,2.27,5.63,2.89,10.43,2.11,1.48-4.84-2-9.73-5.42-13.29-24-24.83-60.62-35.41-93.36-27a31.75,31.75,0,0,0-9.52,3.78c-4,2.61-7,6.66-9.8,10.74a188.25,188.25,0,0,0-22.52,46c-10.13,30.66-12.37,63.57-12.24,96a424.43,424.43,0,0,0,2.93,51.42c1.62,12.85-3.92,26.48-5.81,39.35-2.13,14.5,4.32,22.58,10.08,35.11,6.34,13.81,5.78,29.86,5.1,45.18Z" transform="translate(-1 0)"/><path class="cls-4" d="M1274.56,993.65,1250.22,850.8c-8.78-51.55-17.34-106,.06-155.13,3.45-9.73,7.87-19.07,10.86-29,2.58-8.56,4-17.45,5.51-26.3.62-3.77,1-8.21-1.58-10.86s-6.6-2.09-10-1.26c-36.19,8.8-64.76,37.92-86.89,69.23-28.51,40.34-49.48,85.89-70.27,131.13,19.55,1.83,41.27-6.17,57.76,5,14.79,10,18.14,30.77,20.68,49.06a905,905,0,0,0,18.47,95.07c2.52,10.08,5.32,20.35,11.16,28.77s15.39,14.75,25.27,13.69c10.43-1.13,18.47-9.8,25.53-17.93" transform="translate(-1 0)"/><path class="cls-9" d="M1265.93,627.84c-20.49,63.06-37.12,128.51-41.79,195.18A393.92,393.92,0,0,0,1231,928.14c6.73,33.49,14.12,69.61,33.56,97.85,11.34,16.48,27.31,30.06,46.06,35.15a86.12,86.12,0,0,0,16.65,2.59c4.67.33,8.45,3.12,12.87,4.79,2.68,1,5.34,1.6,8,2.72a16.7,16.7,0,0,1,3.26,1.35c.7.5,1.1,1.53,1.71,2.19a5.22,5.22,0,0,0,1.45,1.16,6.77,6.77,0,0,0,3,.5c2.91,0,5.81.24,8.71,0l5.36-.37c1.45-.1,3.21-.42,3.73-1.85a4.59,4.59,0,0,0,.15-1.57c0-3.47.8-6.82,1-10.26.2-3.78.23-7.56.11-11.33-.22-7.54-1-15-2-22.52q-2.76-21.25-3.82-42.69c-1.43-29.15,3.86-59.83-.06-88.24-4.14-29.95-2.29-62,0-92.11,4.59-61.14,17.57-121.38,36.06-179.49l-24.58-25.79-118.16,12.17Z" transform="translate(-1 0)"/><path class="cls-10" d="M1288.85,626.05v36.11c15.89,53.47,49.44,38.61,73.73-15.48V579.62l24.58-61.9-39.32-72.22L1239.7,455.82l-14.75,129Z" transform="translate(-1 0)"/><path class="cls-11" d="M1424,726.64c5.69-32.89,38.93-53.44,69.45-46.85,7.64,1.65,16,7.07,21.25,13.24,4.24,5,6.83,11.33,8.88,17.69a140.93,140.93,0,0,1,6.54,34.63,162.21,162.21,0,0,1,0,18c-.23,4.52.85,8.71.66,13.24-.9,21.41-2.69,42.84-5.62,64.05a461.2,461.2,0,0,1-24.32,96.71,339.22,339.22,0,0,1-14.1,32.87c-11.83,23.92-33.59,49.63-58.56,58.5-22.62,8-46.76,12.71-70.21,17.09a679,679,0,0,1-77.46,10.3c-18,1.25-37.81,2.83-55.55-2l-19.66-56.75c55.94-11.32,112.45-30.71,169.58-59.32C1409.28,912.35,1414.19,809.18,1424,726.64Z" transform="translate(-1 0)"/><path class="cls-12" d="M1203.82,652c0,.71-.22,2.93.45,3.38s2.11-.89,2.78-1.36a7.11,7.11,0,0,0,1.3-1.08c.28-.33.5-.7.8-1a5.89,5.89,0,0,1,1-.7c5-3.14,9.26-7.23,14.4-10.18a154,154,0,0,1,20.42-9.6,39.1,39.1,0,0,1,10.76-2.9c4.18-.41,8.39-.42,12.57-.87,1.52-.16,20.59-2.58,20.59-1.59,0-8.38.82-17.26-.09-25.55-16.79-1.09-32.25-9.13-42.11-23.88-9.41-14.1-12.47-32.5-8.93-49.31,1.37-6.47,3.64-12.7,5-19.18,1-4.9.92-10.25,1.24-15.23.35-5.65-1.22-14.26,4.63-17.38,2.25-1.2,4.87-1.24,7.39-1.25l39.07-.2a36.18,36.18,0,0,0,7.57-.56c6.38-1.39,12-6.18,18.47-6.39s12.27,4.18,16.48,9.3c6.11,7.44,9.82,17.1,11.78,26.57a167,167,0,0,1,2.33,17.87q.42,4.41.71,8.83c.15,2.34.15,4.37,1.07,6.58a1,1,0,0,0,.34.5.86.86,0,0,0,.35.09,3,3,0,0,0,2.27-1,13.82,13.82,0,0,0,1.31-2.33,8.38,8.38,0,0,1,2.5-1.82c3-1.78,5.14-2.39,8-.46,3.59,2.45,5.4,5.09,4.83,9.47-.63,4.92-1.14,9.53-2.76,14.25-2.38,6.91-6.35,15.46-12.55,19.5-3.08,25.08-.13,42.27,4.91,56.74.31.88,38-.48,42.09-.2a203.09,203.09,0,0,1,34.39,5.15c24.76,6.1,48.77,13,68.35,31.21a90,90,0,0,1,22.16,31.86c4.73,11.63,5.06,23.76,10,35.15a66.9,66.9,0,0,0,13.13-25,79,79,0,0,0,2.72-21.33,102.24,102.24,0,0,0-.75-11.87c-.25-2.09-.55-4.18-.91-6.25a33.82,33.82,0,0,0-2.06-6,29,29,0,0,1-1.56-5,9.86,9.86,0,0,1,.28-5.2.94.94,0,0,1,1.47-.68,11.07,11.07,0,0,1,3.87,2.67,14.54,14.54,0,0,0,3.86,2.87,71.5,71.5,0,0,0,9.56,4.46,66.86,66.86,0,0,0,9.94,2.91c.89.19,9.55,1.09,9.6,1.33-17.82-75.15-40.58-90-63.9-98-25.29-7.37-49.63-19.83-68.23-39.62a127.16,127.16,0,0,1-20.78-29.88c-2.76-5.49-5.07-11.27-7.7-16.78-1.89-4-2.72-8.77-4-13s-2.73-8.66-4.17-13c-2.65-7.89-5-16.31-9.08-23.52-14.93-26.3-29.56-41.43-59.12-48.78-38.68-9.62-81.85,1.19-111.43,27.91-9.92,9-18.66,20.26-20.52,33.5-1.51,10.8,3.92,19.44,4.91,29.63,1,10.49-1.42,22.59-2.65,33-1.56,13.11-.36,26.08-4.47,38.86-3.34,10.39-8.88,19.86-12.34,30.2-4,12-4.63,24.09-3.26,36.57C1203.27,626.76,1203,639.49,1203.82,652Z" transform="translate(-1 0)"/><path class="cls-9" d="M438.48,749.85,413.9,796.28c-12,13-29.49,14.19-54.07,0l29.49-46.43C400.41,739,418.81,743.13,438.48,749.85Z" transform="translate(-1 0)"/><polygon class="cls-9" points="349 435.19 358.83 435.19 452.22 435.19 525.95 533.2 509.24 971.67 368.56 971.67 275.27 610.58 349 435.19"/><path class="cls-4" d="M350,435.19c-110.6-2.58-169.59,64.48-199.08,183.12-14.74,139.28,0,175.39,59,185.71,2,92.1,4.52,165.62,7.37,167.65H379.49V811.76c6.23-1.34,14.75,0,14.75-5.16-10.12-.24-18.66-1.14-19.67-5.16-4.91-20.63,13.39-43,34.41-61.9-9.52-1-24.57,0-39.32,0C367.08,645.82,359.46,540.12,350,435.19Z" transform="translate(-1 0)"/><path class="cls-10" d="M359.83,445.5c5,6.61,10.26,13.16,16.92,17.81,7,4.87,12.54,11.32,20,15.68,3.75,2.19,7.75,4.1,12,4.58,11.44,1.28,20.37-13,24.79-22.59V424.87c26.49-5.72,47.12-18.19,54.07-46.43,0-30.95-4.92-51.58-14.75-82.53-78.4-77.06-168.48,25.89-113,82.53Z" transform="translate(-1 0)"/><path class="cls-13" d="M418.81,739.54" transform="translate(-1 0)"/><path class="cls-10" d="M748.05,487c11.79-9.06,21.55-26.21,22-41.7.15-5.3-.37-10.63.31-15.89s2.75-10.31,7-13.44c5.4-4,7.35,1.07,7,6.47s-.85,10.83,1.95,15.61c3.79,6.46,8.81,5.4,14.85,4.55,6.74-.95,13.08-4.14,19-7.58,4.21-2.46,8.37-5,12.63-7.38l.77-.42c5.59-3.44,23.09-18.2,26.75-5.79,3.78,12.81-4.37,30.79-12.37,39.92-15.77,18-34.46,30.88-54.26,43.59L770.84,516.9Z" transform="translate(-1 0)"/><path class="cls-9" d="M753.07,481.61c-.37-.07,1.52,10.69,1.88,11.71a31.52,31.52,0,0,0,5.75,10,34.22,34.22,0,0,0,8.17,7c2.82,1.71,7.76,2.28,8.72,6.13a7.76,7.76,0,0,1-.19,3.64,35.78,35.78,0,0,1-6.22,13.49c-3.76,5-8.6,11-13.23,15.09-8.92-16.83-19.88-32.87-29.76-49.15l-4.62-7.62C732.94,488.28,745.59,480.08,753.07,481.61Z" transform="translate(-1 0)"/><path class="cls-4" d="M453.22,435.19c63.9,0,108.14,46.42,167.13,139.28,34.41-15.48,70.48-57.3,113-98-1.28,30.5,10.72,52.51,34.41,67.06-42.07,82.31-96.25,135.62-147.46,139.28-30.16-.09-55.86-16.9-78.65-36.11,5.29,105.74,6.95,221,4.92,325H472.88C473.55,759,472.84,552.84,453.22,435.19Z" transform="translate(-1 0)"/><path class="cls-10" d="M433.56,749.53c15.8,0,33.28,1.48,39.32-6.49,18.34-22.27,38-19,28.32-11.08-12.52,10.29-8.65,24.06,1.18,24.06,14.74,0,34.4-6.49,34.4,13a47.16,47.16,0,0,1-3,9.59,37.72,37.72,0,0,1-6.66,10.26,36.31,36.31,0,0,1-8.42,6.81,43.43,43.43,0,0,1-21.2,5.79c-29.45-5.06-53.35-8.93-83.56-6.49C424.71,781.28,431.77,766.31,433.56,749.53Z" transform="translate(-1 0)"/><path class="cls-12" d="M380.91,309.25a22.62,22.62,0,0,1,1.82-2.43,46.56,46.56,0,0,0,3.2-3.66c1-1.42,1.68-3.09,2.92-4.28a11.49,11.49,0,0,1,5.2-2.39c11.8-3.15,24.13-4.42,36.27-5.85a115.33,115.33,0,0,1,11.9-.56l16.52-.22c4.3-.05,9.4,1.12,13.56.28,26.75-5.42,2.88-44.59-6.51-56.16-27-33.3-83.66-32.4-120-16.14-30.69,13.73-55.07,42-61.64,75-5,25.18.26,51.8,12.09,74.58,9.39,18.09,24.93,35.22,45.19,37.4,5.76.62,12-.16,16.51-3.74,13-10.26-11.4-48.85,2.87-46.83,3.61.51,6.87,3.56,9.57,5.94a19.59,19.59,0,0,0,4.49,3.41c2.1,1,4.49.91,6.78.83a5.25,5.25,0,0,0,2.16-.39c6.59-3.29-6-27.4-6.8-32.56C375.86,323.86,376.82,315.55,380.91,309.25Z" transform="translate(-1 0)"/><path class="cls-14" d="M1412,951c0-6.95,90.14-6.95,90.14,0,4.18-.65,3.73,102.59,0,103.17-4.65,13.48-11,18.41-21.21,20.63h-42.42c-9.36-1.09-23.39-6.48-26.51-20.63C1407,1021.47,1406.72,997.46,1412,951Z" transform="translate(-1 0)"/><path class="cls-14" d="M1502.88,1046.94c-3.18-.06-6.36-.36-9.52-.54a8.91,8.91,0,0,1-3.07-.55,3.24,3.24,0,0,1-2-2.34,5,5,0,0,1,.21-2c.61-2.54,1.41-5.35,3.58-6.65,1.68-1,3.73-.82,5.65-.71a62.72,62.72,0,0,0,12.77-.62,39.76,39.76,0,0,0,9.61-2.6,30.53,30.53,0,0,0,13.91-11.32c.33-.51.65-1,1-1.55a29.6,29.6,0,0,0,.47-28.25c-4-7.52-10.91-12.55-18.65-15-7.32-2.34-15.39-2.4-23-3.21-2.14-.23-4.37-.5-6.15-1.76a3.89,3.89,0,0,1-1.23-1.32,3.39,3.39,0,0,1-.31-2.06,5.43,5.43,0,0,1,2.36-3.53,13.68,13.68,0,0,1,3.9-1.7c7.54-2.33,14.81-1.79,22.45-.18a51.93,51.93,0,0,1,12.66,4.39,43,43,0,0,1,18.13,17.14c.19.33.38.67.56,1a43.06,43.06,0,0,1-.69,41.14,42,42,0,0,1-12.77,13.78,48.82,48.82,0,0,1-18.32,7.41,60.28,60.28,0,0,1-7.56.94C1505.55,1047,1504.21,1047,1502.88,1046.94Z" transform="translate(-1 0)"/><path class="cls-9" d="M1416.69,1018.78c0,4.76,0,9.66,1.33,14.11l6.87.65a2.16,2.16,0,0,0,1.61-.28,3.56,3.56,0,0,0,.93-2.08c1.37-6.57,1.36-13.46,1.34-20.27q-.06-21.39-.13-42.79a6.51,6.51,0,0,0-.35-2.59,4.52,4.52,0,0,0-1.81-1.84c-11.55-7.73-9.71,5.32-9.73,16Z" transform="translate(-1 0)"/><path class="cls-15" d="M1433.55,851.45c2.62-.62,5.22,1.59,6.19,4.21s.77,5.54.7,8.35a79.72,79.72,0,0,0,2.86,23.37c4,14.48,12.19,29.41,7.47,43.66a5.34,5.34,0,0,1-1.46,2.54,5.43,5.43,0,0,1-3.57.82c-10.62-.09-11.13,1.62-13.53-7.69-1.77-6.89,1.36-18.85,1.64-26.12C1434,896,1433.34,851.5,1433.55,851.45Z" transform="translate(-1 0)"/><path class="cls-15" d="M1461.11,935.56l-.07-31.24c0-1.87.69-4.44,2.46-4.18l8.1,20.38c1.43,3.58,2.87,7.54,1.77,11.24-1.46,4.91-7.85,7.32-11.95,4.5" transform="translate(-1 0)"/><path class="cls-8" d="M1220,1038.73,1180.71,853c-4.92-20.64-14.75-25.8-31.07-25.8H1134.9c16.32,0,26.15,5.16,31.06,25.8l39.33,185.7c6.43,22.77-2.42,30.89-19.66,31h14.74C1217.62,1069.62,1226.47,1061.5,1220,1038.73Z" transform="translate(-1 0)"/><rect class="cls-8" x="884.78" y="1054.21" width="481.71" height="20.63" rx="2"/><path class="cls-1" d="M831.71,853c-4.9-18.66.8-26.45,14.75-25.8H1134.9c16.32,0,26.15,5.16,31.06,25.8l39.33,185.7c6.43,22.77-2.42,30.89-19.66,31H900.53c-14.75,0-25,1.39-29.49-20.63Z" transform="translate(-1 0)"/><path class="cls-4" d="M546.62,992.31H227.11v-25.8c123.84,5.39,240.07,8.41,319.51,0Z" transform="translate(-1 0)"/><ellipse class="cls-16" cx="176.96" cy="1046.47" rx="9.83" ry="12.9"/><rect class="cls-16" x="211.36" y="1038.73" width="9.83" height="30.95"/><rect class="cls-16" x="226.11" y="1038.73" width="9.83" height="30.95"/><rect class="cls-16" x="240.86" y="1038.73" width="9.83" height="30.95"/><rect class="cls-16" x="255.6" y="1038.73" width="9.83" height="30.95"/><rect class="cls-17" y="1069.68" width="1607.35" height="10.32"/><rect class="cls-16" x="265.43" y="1038.73" width="9.83" height="30.95"/><rect class="cls-16" x="280.18" y="1038.73" width="9.83" height="30.95"/><rect class="cls-16" x="294.93" y="1038.73" width="9.83" height="30.95"/><rect class="cls-16" x="304.76" y="1038.73" width="9.83" height="30.95"/><rect class="cls-16" x="319.5" y="1038.73" width="9.83" height="30.95"/><rect class="cls-16" x="408.62" y="985.03" width="15.48" height="122.89" transform="translate(1461.83 630.11) rotate(90)"/><ellipse class="cls-18" cx="1098.6" cy="195.31" rx="81.11" ry="85.12"/><rect class="cls-16" x="499.55" y="1031.72" width="15.48" height="29.49" transform="translate(1552.76 539.18) rotate(90)"/><rect class="cls-16" x="543.79" y="1031.72" width="15.48" height="29.49" transform="translate(1597 494.94) rotate(90)"/><path class="cls-19" d="M1121.72,205.63c-6,0-11.67,2.74-17.24,4.72a2.56,2.56,0,0,0-1.4.89,2.78,2.78,0,0,0-.29,1.46c-.13,8.37,0,16.75.19,25.12.08,2.85.63,3.08-1.53,4-1.28.53-3.6.22-5,.29-3.24.16-6.6.33-9.77-.56,1.81-9.22.45-20.11.45-29.58a3.37,3.37,0,0,0-.29-1.7,3,3,0,0,0-1.32-1.07c-7.87-4.08-19.2-5.49-27-.62-7.61,4.73-11.92,13.71-11.92,22.88,0,14.22,9.92,25.8,22.12,25.8a17.5,17.5,0,0,0,6.34-1.3V360.39h9.83V252.06h19.66V360.39h9.83V255.63a17.55,17.55,0,0,0,7.37,1.59c12.2,0,22.12-11.58,22.12-25.8S1133.92,205.63,1121.72,205.63Zm-53,41.27c-6.78,0-12.29-6.94-12.29-15.48s5.51-15.47,12.29-15.47c8.08,0,10.22,10.12,10.22,15.47C1078.91,237.88,1076.17,246.9,1068.69,246.9Zm53,0c-3.46,0-5.79-1.91-7.37-4.46v-.7h-.42a23.09,23.09,0,0,1-2.43-10.32,21.19,21.19,0,0,1,2.93-11.27,8.28,8.28,0,0,1,7.29-4.2c6.78,0,12.29,6.94,12.29,15.47S1128.5,246.9,1121.72,246.9Z" transform="translate(-1 0)"/><path class="cls-19" d="M1022.3,179.5a11.78,11.78,0,0,0,2-3.34c1.85-4.44,1.83-9.63,3.05-14.33a71.62,71.62,0,0,1,4.3-12.21,55.1,55.1,0,0,1,14.36-19.1,56.59,56.59,0,0,1,12.46-7.91,67.35,67.35,0,0,1,7.35-2.93c1.78-.59,3.77-.32,5.1-1.86a10.88,10.88,0,0,0,1-13.37c-2.88-4.5-8.3-5.22-12.76-3.43a36.5,36.5,0,0,0-4.21,1.84q-3,1.62-5.81,3.45a95.07,95.07,0,0,0-28.48,28.19,113.48,113.48,0,0,0-11.07,21.88c-1.64,4.3-3.58,8.54-4.37,13.12-.61,3.52-.52,10.64,3.67,12,3.78,1.2,8.79,1.63,12.17-.84A8.18,8.18,0,0,0,1022.3,179.5Z" transform="translate(-1 0)"/><path class="cls-19" d="M1171.71,173.72c-.59,1.28,0,3.08.32,4.65.46,2.45.77,5,1,7.44a107.51,107.51,0,0,1,.64,14.23,86.88,86.88,0,0,1-1.33,13.34c-.58,3.19-3,8.27-2.15,11.54s6.81,3.74,9,4.07c3.24.49,7.28,1.12,10.11-1.09,1.76-1.38,1.76-4.32,2.17-6.7.51-3,1-6,1.33-9a140.43,140.43,0,0,0,1.13-19.27c-.08-5.65-.15-11.41-2.55-16.53-2.17-4.61-8.26-5.08-12.09-4.92-2,.08-5.06.1-6.83,1.27A2.25,2.25,0,0,0,1171.71,173.72Z" transform="translate(-1 0)"/><rect class="cls-4" x="909.36" y="187.58" width="44.24" height="10.32" rx="1"/><rect class="cls-4" x="1233.78" y="187.58" width="44.24" height="10.32" rx="1"/><path class="cls-20" d="M1187.63,27.41l-20,37.88a1.46,1.46,0,0,1-2,.61l-6-3.5a1.58,1.58,0,0,1-.58-2.11l20-37.88a1.45,1.45,0,0,1,2-.61l6,3.49A1.6,1.6,0,0,1,1187.63,27.41Z" transform="translate(-1 0)"/><path class="cls-4" d="M1187.63,27.41l-20,37.88a1.46,1.46,0,0,1-2,.61l-6-3.5a1.58,1.58,0,0,1-.58-2.11l20-37.88a1.44,1.44,0,0,1,2-.61l6,3.49A1.6,1.6,0,0,1,1187.63,27.41Z" transform="translate(-1 0)"/><rect class="cls-4" x="1066.55" y="18.3" width="46.43" height="9.83" rx="1" transform="translate(1065.55 1112.98) rotate(-90)"/><path class="cls-4" d="M1015.5,69.47,993.63,32.74a1.61,1.61,0,0,1,.47-2.15l5.82-3.81a1.44,1.44,0,0,1,2,.49L1023.83,64a1.61,1.61,0,0,1-.47,2.15L1017.54,70A1.43,1.43,0,0,1,1015.5,69.47Z" transform="translate(-1 0)"/><path class="cls-4" d="M1254,98.33l-35.37,22.3a1.44,1.44,0,0,1-2-.53l-3.54-6.17a1.61,1.61,0,0,1,.51-2.14l35.38-22.31a1.44,1.44,0,0,1,2,.54l3.54,6.17A1.61,1.61,0,0,1,1254,98.33Z" transform="translate(-1 0)"/><path class="cls-4" d="M969.62,122.91l-35.74-21.65a1.61,1.61,0,0,1-.54-2.13l3.43-6.24a1.46,1.46,0,0,1,2-.57L974.54,114a1.6,1.6,0,0,1,.54,2.13l-3.43,6.23A1.45,1.45,0,0,1,969.62,122.91Z" transform="translate(-1 0)"/><ellipse class="cls-9" cx="651.3" cy="272.69" rx="17.2" ry="18.05"/><ellipse class="cls-9" cx="720.11" cy="272.69" rx="17.2" ry="18.05"/><ellipse class="cls-9" cx="784.02" cy="272.69" rx="17.2" ry="18.05"/><path class="cls-9" d="M1077.25,652.51V619.09c2.9-.28,4.85-.73,4.85-1.32a8.76,8.76,0,0,0-2.18-6.58,18.06,18.06,0,0,0-5-3.74c-4.57-2.6-61.23-28.33-70.72-28.7v-.07l-.66,0c-.21,0-.43,0-.65,0v.07c-9.5.37-66.16,26.1-70.72,28.7a17.78,17.78,0,0,0-5,3.74,8.76,8.76,0,0,0-2.18,6.58c0,2,21.64,2.34,28.58.24v31.92c-.15.15,24.93.23,50,.23s50.15-.08,50-.23V618c3.83,1.16,12.13,1.57,18.81,1.37v33.13a8.56,8.56,0,0,0-4.92,8c0,4.73,3.31,8.57,7.38,8.57s7.37-3.84,7.37-8.57A8.57,8.57,0,0,0,1077.25,652.51Z" transform="translate(-1 0)"/></svg>