<?xml version="1.0" encoding="utf-8"?>
<!-- Generator: Adobe Illustrator 24.0.3, SVG Export Plug-In . SVG Version: 6.00 Build 0)  -->
<svg version="1.1" id="Capa_1" xmlns="http://www.w3.org/2000/svg" xmlns:xlink="http://www.w3.org/1999/xlink" x="0px" y="0px"
	 viewBox="0 0 396.4 406.1" style="enable-background:new 0 0 396.4 406.1;" xml:space="preserve">
	<style type="text/css">
		.st0{fill:#7837F0;}
		.st1{fill:#5828B0;}
		.st2{fill:#9054FF;}
		.st3{enable-background:new    ;}
		.st4{clip-path:url(#SVGID_2_);}
		.st5{fill:#FFFFFF;}
		.st6{clip-path:url(#SVGID_4_);}
		.st7{fill:#F8E8AB;}
		.st8{fill:#A38736;}
		.st9{fill:#CCCCCC;}
		.st10{fill:#F0C443;}
	</style>
	<g>
		<path class="st0" d="M396.4,128.9v148c0,18.7-10.3,35.9-26.7,44.8L221,400.2c-14.2,7.8-31.4,7.8-45.6,0L26.8,321.8
			C10.3,312.9,0.1,295.7,0.1,277V129c0-8.5,2.1-16.8,6.2-24.3h0.1C11,96,18.2,88.9,26.9,84.3L175.4,5.8c14.2-7.7,31.3-7.7,45.5,0
			l148.7,78.5c8.7,4.6,15.8,11.7,20.5,20.4h0.1C394.3,112.1,396.4,120.4,396.4,128.9z"/>
		<path class="st1" d="M198.2,202.9v203.2c-8,0-15.8-2-22.8-5.8L26.8,321.8C10.3,312.9,0,295.7,0,276.9v-148c0-8.5,2.1-16.9,6.2-24.3
			L198.2,202.9z"/>
		<path class="st2" d="M390.2,104.8l-192,98.3l-192-98.3C10.8,96,18,88.9,26.8,84.3L175.4,5.7c14.2-7.6,31.3-7.6,45.6,0l148.7,78.5
			C378.4,88.9,385.6,96,390.2,104.8L390.2,104.8z"/>
	</g>
	<g>
		<g>
			<g class="st3">
				<g>
					<defs>
						<polygon id="SVGID_1_" points="19.3,245 19.6,132.3 164.4,215.9 164.1,328.6 					"/>
					</defs>
					<clipPath id="SVGID_2_">
						<use xlink:href="#SVGID_1_"  style="overflow:visible;"/>
					</clipPath>
					<g class="st4">
						<g>
							<g>
								<g>
									<path class="st5" d="M51.9,150.9c-6.1-3.1-11.4-4.8-16.2-4.9c-2-0.1-4,0.2-6,0.7c-1.9,0.6-3.7,1.6-5.2,3.2
										c-1.5,1.6-2.7,3.8-3.7,6.6c-0.9,2.8-1.4,6.4-1.4,10.7l0,44.5c0,5.3,0.6,10.2,1.9,14.6c1.3,4.4,2.9,8.5,4.9,12.1
										s4.2,6.8,6.7,9.6c2.4,2.8,4.8,5.2,7.1,7.2c2.3,2,4.4,3.7,6.3,4.9s3.2,2.1,4.1,2.6c5.2,3,9.9,4.9,14.2,5.7
										c4.3,0.8,8,0.5,11.2-0.8c3.1-1.4,5.5-3.9,7.3-7.5c1.7-3.6,2.6-8.3,2.6-14.2c0-0.3-0.1-0.9-0.2-1.8c-0.1-0.9-0.5-2.1-1.2-3.4
										c-0.7-1.3-1.8-2.8-3.3-4.4c-1.5-1.6-3.6-3.2-6.4-4.8c-2.8-1.6-5-2.6-6.6-3.1c-1.6-0.5-2.8-0.6-3.7-0.3
										c-0.8,0.2-1.4,0.7-1.6,1.4s-0.3,1.5-0.4,2.3c0,2.5-0.2,4.8-0.5,6.9c-0.3,2.1-0.9,3.8-1.6,5.1c-0.8,1.3-1.9,2.1-3.3,2.3
										s-3.2-0.3-5.3-1.5c-2.3-1.3-4-3-5.2-4.9c-1.2-2-2.1-3.9-2.7-5.8c-0.6-2.1-1-4.4-1.1-6.8l0.1-50.5c0.1-1.9,0.5-3.4,1.1-4.5
										c0.6-0.9,1.4-1.6,2.7-2c1.2-0.4,3,0.1,5.2,1.4c2.2,1.3,4,2.7,5.3,4.4c1.4,1.7,2.5,3.5,3.2,5.5c0.8,2,1.3,4.3,1.6,6.8
										c0.3,2.5,0.4,5.1,0.4,8c0,1.9,0.5,3.6,1.4,5.1c0.9,1.6,2,3,3.3,4.3s2.6,2.4,4,3.4c1.4,0.9,2.5,1.7,3.5,2.2
										c2.8,1.6,4.9,2.5,6.4,2.6s2.6-0.1,3.3-0.8s1.1-1.5,1.2-2.6c0.1-1.1,0.2-2,0.2-2.8c0-1.9-0.1-4.1-0.4-6.8
										c-0.2-2.7-0.8-5.7-1.6-8.9s-2-6.6-3.5-10.2c-1.5-3.6-3.5-7.1-6-10.7c-2.5-3.6-5.6-7.1-9.3-10.5
										C61.4,157,57,153.8,51.9,150.9"/>
									<path class="st5" d="M152.9,209.9c-2.7-1.6-4.8-2.3-6.4-2.1c-1.5,0.2-2.7,0.9-3.4,2.1c-0.8,1.3-1.2,2.9-1.4,5
										s-0.3,4.2-0.3,6.5l-0.2,62.7c-0.1,2.3-0.5,4.1-1.2,5.5c-0.3,0.6-0.7,1.2-1.1,1.7s-1,0.8-1.6,1s-1.4,0.3-2.3,0.1
										c-0.9-0.2-1.9-0.6-3-1.2s-2.1-1.4-2.9-2.2c-0.9-0.8-1.6-1.7-2.2-2.7c-0.6-0.9-1.2-1.9-1.6-2.9c-0.5-1-0.8-2-1.1-2.9
										c-0.7-2.2-1.1-4.5-1.2-6.9l0.2-62.7c0-2.3-0.1-4.6-0.3-6.8c-0.2-2.3-0.6-4.5-1.4-6.6c-0.8-2.1-1.9-4.2-3.5-6.1
										c-1.5-1.9-3.7-3.7-6.3-5.2c-2.7-1.5-4.8-2.2-6.3-2.1c-1.5,0.2-2.7,0.9-3.4,2.1c-0.8,1.3-1.3,2.9-1.5,5s-0.3,4.2-0.3,6.5
										l-0.2,60.7c0,5.4,0.7,10.6,2.3,15.6c1.5,5,3.7,9.8,6.5,14.2c2.8,4.5,6.2,8.5,10.1,12.3s8.3,7,13.1,9.7s9.1,4.6,13.1,5.4
										c4,0.9,7.4,0.7,10.2-0.4s5.1-3.3,6.6-6.6c1.6-3.3,2.3-7.6,2.4-13.1l0.2-60.7c0-2.3-0.1-4.6-0.3-6.9
										c-0.2-2.3-0.7-4.5-1.4-6.7c-0.8-2.1-1.9-4.2-3.4-6.1C157.7,213.1,155.6,211.4,152.9,209.9"/>
								</g>
							</g>
						</g>
					</g>
				</g>
			</g>
		</g>
	</g>
	<g>
		<g>
			<g class="st3">
				<g>
					<defs>
						<polygon id="SVGID_3_" points="242.7,315.8 242.3,204.4 345.1,145 345.5,256.5 					"/>
					</defs>
					<clipPath id="SVGID_4_">
						<use xlink:href="#SVGID_3_"  style="overflow:visible;"/>
					</clipPath>
					<g class="st6">
						<g>
							<g>
								<g>
									<path class="st5" d="M263.7,284.9l-0.1-29.9l9.6-5.5c2.3-1.1,4.3-1.6,6.1-1.5c0.7,0.1,1.5,0.2,2.2,0.6
										c0.7,0.3,1.4,0.9,2,1.6c0.6,0.8,1,1.8,1.4,3c0.4,1.3,0.5,2.9,0.5,4.8c0,1.8-0.2,3.5-0.5,5s-0.8,3-1.3,4.3
										c-0.6,1.4-1.2,2.6-1.9,3.7c-0.7,1.1-1.4,2.1-2.1,2.9c-1.7,2.1-3.6,3.7-5.8,5.1L263.7,284.9 M263.5,238.1l-0.1-27.1l8.3-4.8
										c2.1-1,3.9-1.4,5.6-1.4c0.7,0.1,1.4,0.3,2,0.6c0.7,0.3,1.3,0.8,1.8,1.5s1,1.6,1.3,2.8s0.5,2.7,0.5,4.5
										c0,1.6-0.1,3.1-0.4,4.5s-0.7,2.7-1.2,3.8c-0.5,1.2-1.1,2.3-1.7,3.3s-1.3,1.9-1.9,2.6c-1.6,1.9-3.3,3.4-5.3,4.7L263.5,238.1
										M273,186.7l-20.1,11.6c-2.6,1.5-4.7,3.2-6.1,5.1c-1.4,1.9-2.5,3.8-3.1,5.9c-0.6,2.1-1,4.2-1.1,6.5
										c-0.1,2.2-0.2,4.5-0.2,6.8l0.2,75c0,2.3,0.1,4.6,0.2,6.7s0.5,3.8,1.2,5.2c0.6,1.4,1.7,2.1,3.1,2.3c1.4,0.2,3.5-0.5,6.1-2
										l22.7-13.1c5.7-3.6,10.8-7.9,15.3-13c1.9-2.1,3.8-4.5,5.6-7.2c1.8-2.7,3.5-5.6,4.9-8.7s2.6-6.5,3.4-10.2
										c0.9-3.7,1.3-7.6,1.3-11.7c0-0.9,0-2-0.1-3.3c-0.1-1.4-0.3-2.8-0.6-4.3c-0.3-1.5-0.9-2.9-1.6-4.3c-0.7-1.4-1.7-2.5-3-3.5
										c-1.3-0.9-2.9-1.6-4.8-1.9c-1.9-0.3-4.2-0.1-7,0.6c0.3-0.3,0.9-0.9,1.7-1.9c0.8-1,1.7-2.2,2.7-3.6c1-1.5,2.1-3.1,3.1-5
										c1.1-1.9,2.1-3.9,3-6c0.9-2.2,1.6-4.4,2.2-6.8c0.6-2.4,0.9-4.8,0.8-7.3c0-4.8-0.8-8.6-2.4-11.4c-1.6-2.7-3.7-4.5-6.4-5.4
										s-5.9-0.9-9.5,0C280.9,182.7,277.1,184.3,273,186.7"/>
									<path class="st5" d="M333.6,151.7c-2.7,1.5-4.8,3.3-6.3,5.2s-2.7,4-3.4,6.2c-0.8,2.2-1.2,4.4-1.4,6.7
										c-0.2,2.3-0.3,4.6-0.3,6.9l0.2,74.8c0,2.3,0.1,4.5,0.3,6.6c0.2,2.1,0.7,3.7,1.5,5s1.9,2,3.4,2.2s3.6-0.5,6.3-2.1
										c2.7-1.5,4.8-3.3,6.3-5.2c1.5-1.9,2.7-4,3.4-6.1c0.8-2.2,1.2-4.4,1.4-6.7c0.2-2.3,0.3-4.6,0.3-6.9l-0.2-74.8
										c0-2.3-0.1-4.5-0.3-6.5c-0.2-2.1-0.7-3.7-1.5-5s-1.9-2-3.4-2.2C338.4,149.4,336.3,150.1,333.6,151.7"/>
								</g>
							</g>
						</g>
					</g>
				</g>
			</g>
		</g>
	</g>
	<g id="_x30_01---Degree">
		<g>
			<g>
				<path id="Shape_116_" class="st5" d="M309.8,101.5c0,21.2-4.7,38.5-10.4,38.5c-35.1-4.1-70.6-6.5-106.2-7.2l-12.9-4.6
					c7.2-9.5,4.6-21.3-6.5-28.5c-0.2-12.8,7.9-23.8,4.6-29.1c40.5-0.4,80.9-2.9,121-7.5C305.1,63,309.8,80.2,309.8,101.5z"/>
				<g>
					<path id="Shape_115_" class="st7" d="M94.8,139.9l-0.5,0.1C94.5,140,94.7,139.9,94.8,139.9z"/>
					<path id="Shape_114_" class="st7" d="M94.8,63.1c-0.2,0-0.3,0-0.4-0.1C94.5,63,94.6,63,94.8,63.1z"/>
					<path id="Shape_113_" class="st5" d="M94.8,63.1c33.7,4.4,67.6,6.8,101.7,7.3c3.1,5.6,14.6,17.4,14.6,31.1c0,0.9,0,1.8-0.1,2.7
						c-5.8,7.2-6.2,16.5-1.1,24l-11.5,4.3c-34.7,0.5-69.3,2.9-103.6,7.3L94.8,63.1z"/>
				</g>
				<path id="Shape_112_" class="st8" d="M178.9,103.9c0-0.9,0-1.8,0-2.7c0.4-10.5-1.1-21.1-4.3-31.1c6.3,0.2,12.9,0.3,19.7,0.3
					c5.1,0,10.1,0,15-0.2c3.1,9.4,4.6,19.3,4.2,29.1L178.9,103.9z"/>
				<path id="Shape_111_" class="st8" d="M203.7,126l-10.3,24.6c-0.5,1.4-2,2.4-3.5,2.4s-2.9-0.9-3.6-2.3l-2.8-6.4l-6.4,2.8
					c-1.4,0.6-3,0.4-4.2-0.7c-1.1-1.1-1.4-2.8-0.9-4.2l9.7-23.5l1.8-4.3L203.7,126z"/>
				<path id="Shape_110_" class="st8" d="M212.6,113.5l1.9,4.6l9.7,23.2c0.5,1.4,0.3,3.1-0.9,4.2c-1.1,1.1-2.8,1.3-4.2,0.7l-6.4-2.8
					l-2.8,6.4c-0.6,1.4-2.1,2.3-3.6,2.3s-2.9-1-3.5-2.4l-10.3-24.6L212.6,113.5z"/>
				<path id="Shape_109_" class="st9" d="M102,101.5c0,20.4-3.1,37-7.1,38.4c-0.2,0.1-0.4,0.1-0.5,0.1c-4.2,0-7.7-17.2-7.7-38.5
					c0-21.2,3.5-38.5,7.7-38.5h0.1c0.1,0,0.2,0,0.4,0l0,0C98.8,64.4,102,81,102,101.5z"/>
				<path id="Shape_108_" class="st10" d="M221.3,116.6c0,12.8-10.4,23.1-23.1,23.1s-23-10.4-23-23.1s10.4-23.1,23.1-23.1
					c5.7,0,11.2,2.1,15.4,5.9C218.5,103.8,221.3,110.1,221.3,116.6z"/>
			</g>
		</g>
	</g>
</svg>
