<svg id="Capa_1" data-name="Capa 1" xmlns="http://www.w3.org/2000/svg" xmlns:xlink="http://www.w3.org/1999/xlink" viewBox="0 0 728.56 500.07"><defs><style>.cls-1,.cls-42{fill:#b5d0ff;}.cls-1,.cls-10,.cls-58,.cls-9{opacity:0.2;}.cls-1,.cls-10,.cls-17,.cls-44,.cls-57,.cls-58,.cls-9{isolation:isolate;}.cls-2{fill:#744add;}.cls-3{fill:#5730a0;}.cls-4{fill:#8f53ff;}.cls-5{fill:#b8b8f4;}.cls-57,.cls-6{opacity:0.3;}.cls-7{fill:#eefaff;}.cls-8{fill:#7272dd;}.cls-9{fill:url(#Degradado_sin_nombre);}.cls-10{fill:url(#Degradado_sin_nombre_2);}.cls-11{fill:#9494ed;}.cls-12{fill:#f98094;}.cls-13,.cls-17{fill:#fff;}.cls-14{fill:#854dce;}.cls-15,.cls-48,.cls-49,.cls-50,.cls-51,.cls-54,.cls-55,.cls-56{fill:none;stroke-linecap:round;}.cls-15{stroke:#5730a0;stroke-width:2px;}.cls-15,.cls-54,.cls-55,.cls-56{stroke-linejoin:round;}.cls-16{fill:#d6d4ff;}.cls-17{opacity:0.31;}.cls-18{fill:#6c3db7;}.cls-19{fill:#f4c4c4;}.cls-20{fill:#01263a;}.cls-21{fill:#8d1612;}.cls-22{fill:#ff4c2f;}.cls-23{fill:#fafff7;}.cls-24{fill:#452e17;}.cls-25{fill:#f4f4f4;}.cls-26{fill:#2d125e;}.cls-27{fill:#9999ef;}.cls-28{fill:#4c4051;}.cls-29{fill:#f7b59c;}.cls-30{fill:#594a5f;}.cls-31{fill:#060707;}.cls-32{fill:#d1deff;}.cls-33{fill:#eaa18b;}.cls-34,.cls-57,.cls-58{fill:#9999f1;}.cls-35{fill:#5146af;}.cls-36{fill:#c2e0f2;}.cls-37{fill:#1a1a47;}.cls-38{fill:#9ca2f2;}.cls-39{fill:#b0b2ff;}.cls-40{fill:#3d3d72;}.cls-41,.cls-44{fill:#94c1f7;}.cls-43{fill:#cfe3ff;}.cls-44,.cls-52{opacity:0.5;}.cls-45{fill:#e1efff;}.cls-46{fill:#cce1ff;}.cls-47{fill:#7878ff;}.cls-48,.cls-49,.cls-50,.cls-51{stroke:#9acee2;stroke-miterlimit:10;}.cls-49{stroke-dasharray:11.86 4.94;}.cls-50{stroke-dasharray:11.84 4.93;}.cls-51{stroke-dasharray:12 5;}.cls-53{fill:#389fe5;}.cls-54,.cls-55,.cls-56{stroke:#fff;}.cls-54{stroke-width:1.38px;}.cls-55{stroke-width:1.06px;}.cls-56{stroke-width:1.62px;}.cls-59{fill:#8787dd;}.cls-60{fill:#383493;}</style><linearGradient id="Degradado_sin_nombre" x1="398.41" y1="364.3" x2="398.41" y2="108.5" gradientTransform="matrix(1, 0, 0, -1, 1, 501)" gradientUnits="userSpaceOnUse"><stop offset="0" stop-color="#fff"/><stop offset="1" stop-color="#fff" stop-opacity="0"/></linearGradient><linearGradient id="Degradado_sin_nombre_2" x1="452.01" y1="364.3" x2="452.01" y2="108.5" xlink:href="#Degradado_sin_nombre"/></defs><title>Login</title><g id="OBJECTS"><path class="cls-1" d="M31.41,479.38s-76.65-92.53,9.7-193.32c69.62-81.26,47.42-112.55,44.15-167.37-2.67-46.32,48-114.85,124-118.24C333.64-5.13,364.69,36.22,430.79,33.31s95.93-26.92,172.7-17.46C746,33.31,726.71,173.15,706,277.69s41.6,140.2-3.27,201.81" transform="translate(1 0.07)"/><polygon class="cls-2" points="410.69 464.17 286.01 464.17 299.59 411.05 302.63 398.93 308.57 375.52 388.13 375.52 394.07 398.93 397.1 411.05 410.69 464.17"/><polygon class="cls-3" points="397.1 411.05 299.59 411.05 302.63 398.93 394.07 398.93 397.1 411.05"/><path class="cls-4" d="M457.47,478.9H237.22a9.53,9.53,0,0,1-9.58-9.58h0a9.53,9.53,0,0,1,9.58-9.59H457.47a9.53,9.53,0,0,1,9.58,9.59h0A9.69,9.69,0,0,1,457.47,478.9Z" transform="translate(1 0.07)"/><path class="cls-4" d="M550.61,149.5V383.69a10,10,0,0,1-10.06,10.07H154.15a10,10,0,0,1-10.07-10.07V149.5a10,10,0,0,1,10.07-10.07h386.4A10,10,0,0,1,550.61,149.5Z" transform="translate(1 0.07)"/><rect class="cls-5" x="152.48" y="146.78" width="390.89" height="206.42"/><g class="cls-6"><rect class="cls-7" x="493.76" y="146.78" width="10.92" height="175.61"/><rect class="cls-7" x="521.54" y="146.78" width="10.92" height="175.61"/><rect class="cls-7" x="160.61" y="146.78" width="10.92" height="175.61"/><rect class="cls-7" x="188.38" y="146.78" width="10.92" height="175.61"/><rect class="cls-7" x="216.15" y="146.78" width="10.92" height="175.61"/><rect class="cls-7" x="243.92" y="146.78" width="10.92" height="175.61"/><rect class="cls-7" x="271.7" y="146.78" width="10.92" height="175.61"/><rect class="cls-7" x="299.47" y="146.78" width="10.92" height="175.61"/><rect class="cls-7" x="327.24" y="146.78" width="10.92" height="175.61"/><rect class="cls-7" x="355.02" y="146.78" width="10.92" height="175.61"/><rect class="cls-7" x="382.67" y="146.78" width="10.92" height="175.61"/><rect class="cls-7" x="410.44" y="146.78" width="10.92" height="175.61"/><rect class="cls-7" x="438.22" y="146.78" width="10.92" height="175.61"/><rect class="cls-7" x="465.99" y="146.78" width="10.92" height="175.61"/></g><rect class="cls-8" x="152.48" y="322.4" width="390.89" height="30.93"/><path class="cls-3" d="M347.35,382.24h0A9.34,9.34,0,0,1,338,372.9h0a9.34,9.34,0,0,1,9.34-9.34h0a9.34,9.34,0,0,1,9.34,9.34h0A9.43,9.43,0,0,1,347.35,382.24Z" transform="translate(1 0.07)"/><polygon class="cls-9" points="377.09 393.59 349.56 393.59 421.84 139.38 449.25 139.38 377.09 393.59"/><polygon class="cls-10" points="446.1 393.59 387.76 393.59 460.05 139.38 518.26 139.38 446.1 393.59"/><path class="cls-11" d="M527.45,340.76H206.66a3,3,0,0,1,0-6.07H527.45a3,3,0,0,1,0,6.07Z" transform="translate(1 0.07)"/><path class="cls-12" d="M367.12,334.69v6.07H206.66a3,3,0,0,1,0-6.07Z" transform="translate(1 0.07)"/><circle class="cls-13" cx="368.12" cy="337.8" r="5.46"/><circle class="cls-13" cx="178.6" cy="337.86" r="12.13"/><path class="cls-14" d="M175.86,332.27l6.67,5.09a.35.35,0,0,1,0,.61l-6.67,5.09c-.25.25-.61,0-.61-.36V332.63C175.13,332.27,175.49,332.15,175.86,332.27Z" transform="translate(1 0.07)"/><line class="cls-15" x1="1" y1="479.94" x2="714.49" y2="479.94"/><path class="cls-16" d="M233.83,175.33H56a1.66,1.66,0,0,1-1.7-1.7V41.32a5.44,5.44,0,0,1,5.46-5.46H227.64a8,8,0,0,1,8,8V173.51A1.87,1.87,0,0,1,233.83,175.33Z" transform="translate(1 0.07)"/><path class="cls-13" d="M225.22,168.54H64.89a3.39,3.39,0,0,1-3.4-3.4V142a3.4,3.4,0,0,1,3.4-3.4H225.22a3.39,3.39,0,0,1,3.39,3.4v23.16A3.39,3.39,0,0,1,225.22,168.54Z" transform="translate(1 0.07)"/><path class="cls-13" d="M226.43,133.49H63.67a2.17,2.17,0,0,1-2.18-2.18v-7.76a2.17,2.17,0,0,1,2.18-2.19H226.55a2.17,2.17,0,0,1,2.18,2.19v7.76A2.36,2.36,0,0,1,226.43,133.49Z" transform="translate(1 0.07)"/><path class="cls-17" d="M158.76,59.39H63.31a2.69,2.69,0,0,1-2.67-2.67h0a2.69,2.69,0,0,1,2.67-2.67h95.45a2.69,2.69,0,0,1,2.66,2.67h0A2.54,2.54,0,0,1,158.76,59.39Z" transform="translate(1 0.07)"/><path class="cls-17" d="M158.76,70.42H63.31a2.69,2.69,0,0,1-2.67-2.66h0a2.69,2.69,0,0,1,2.67-2.67h95.45a2.69,2.69,0,0,1,2.66,2.67h0A2.47,2.47,0,0,1,158.76,70.42Z" transform="translate(1 0.07)"/><path class="cls-17" d="M158.76,81.58H63.31a2.69,2.69,0,0,1-2.67-2.67h0a2.69,2.69,0,0,1,2.67-2.66h95.45a2.68,2.68,0,0,1,2.66,2.66h0A2.54,2.54,0,0,1,158.76,81.58Z" transform="translate(1 0.07)"/><path class="cls-17" d="M158.76,92.74H63.31a2.69,2.69,0,0,1-2.67-2.67h0a2.7,2.7,0,0,1,2.67-2.67h95.45a2.69,2.69,0,0,1,2.66,2.67h0A2.54,2.54,0,0,1,158.76,92.74Z" transform="translate(1 0.07)"/><path class="cls-17" d="M158.76,103.78H63.31a2.7,2.7,0,0,1-2.67-2.67h0a2.69,2.69,0,0,1,2.67-2.67h95.45a2.69,2.69,0,0,1,2.66,2.67h0A2.54,2.54,0,0,1,158.76,103.78Z" transform="translate(1 0.07)"/><path class="cls-17" d="M136.44,114.93h-73a2.69,2.69,0,0,1-2.67-2.66h0a2.69,2.69,0,0,1,2.67-2.67h73a2.69,2.69,0,0,1,2.67,2.67h0A2.69,2.69,0,0,1,136.44,114.93Z" transform="translate(1 0.07)"/><path class="cls-14" d="M233.71,31.25H56.15a1.87,1.87,0,0,0-1.82,1.82V46.65H235.65V33.07A1.89,1.89,0,0,0,233.71,31.25Z" transform="translate(1 0.07)"/><path class="cls-13" d="M208.72,38.89a1.7,1.7,0,1,1-1.69-1.7A1.82,1.82,0,0,1,208.72,38.89Z" transform="translate(1 0.07)"/><path class="cls-13" d="M217,38.89a1.7,1.7,0,1,1-1.7-1.7A1.83,1.83,0,0,1,217,38.89Z" transform="translate(1 0.07)"/><path class="cls-13" d="M225.34,38.89a1.7,1.7,0,1,1-1.7-1.7A1.83,1.83,0,0,1,225.34,38.89Z" transform="translate(1 0.07)"/><path class="cls-13" d="M228.61,55.75v57.37a1.65,1.65,0,0,1-1.69,1.69H170.16a1.65,1.65,0,0,1-1.7-1.69V55.75a1.66,1.66,0,0,1,1.7-1.7h56.76A1.65,1.65,0,0,1,228.61,55.75Z" transform="translate(1 0.07)"/><path class="cls-18" d="M228.61,102.44v10.8a1.65,1.65,0,0,1-1.69,1.69H198.78L200,102.44l13.22-14.67Z" transform="translate(1 0.07)"/><path class="cls-14" d="M220.73,114.93H170a1.65,1.65,0,0,1-1.7-1.69v-10.8l19.89-20.86Z" transform="translate(1 0.07)"/><path class="cls-14" d="M220.73,70.42a7,7,0,1,1-7-7A7.19,7.19,0,0,1,220.73,70.42Z" transform="translate(1 0.07)"/><path class="cls-19" d="M314,304l-18.92-32.5-30.2,2.42-8.25,7.52c-1.09-1.21-.85-1-1.7-1.82-6.31-7.15-21.22-18.92-33-31.17a293.91,293.91,0,0,1-23.4-27.65L196.11,222V220l-10.55-14.19-12.86-.85-9.58,11.65.49,6.18s.12,9.58,7.64,10.55c2.18.25,7.88,1.34,9.7,2.55a37.74,37.74,0,0,1,12,13.83c8.37,16.49,20.74,40,32.26,60.27,0,0,.48.85,1.33,2.19,4,6.42,16.5,24.86,26.56,25.71C265.48,338.82,314,304,314,304Z" transform="translate(1 0.07)"/><path class="cls-20" d="M357.17,132.52s4-6.06,9.58-7.52-6.06,13-6.06,13a20,20,0,0,1-3.52,1.21C356.81,139,357.17,132.52,357.17,132.52Z" transform="translate(1 0.07)"/><path d="M460.87,89.34s39.65,14.32-7.52,55.19l-7.16-2.19Z" transform="translate(1 0.07)"/><path class="cls-19" d="M360.45,212.69c18.92,23,44.26,26.8,44.26,26.8,44-.85,51.55-25.11,51.55-25.11l-24.62-5.45s-.73-32,12.85-51.91c10.19,1.94,15-14.19,12.25-18.44-3-4.73-6.43-4.12-6.43-4.12-2.91,3.15-5.57,10.55-6.79,14.19L382.28,180.3s.72,1.58,1.69,4.37a75.06,75.06,0,0,1,2.79,13.22,90.8,90.8,0,0,1,.49,12Zm78.59-57c1.33-2.18,2.66-4.48,4.24-6.67-.49,1.58-1,2.92-1.21,4.13C440.37,154.59,439.16,155.68,439,155.68Z" transform="translate(1 0.07)"/><path d="M375.73,72.12s-11.16,20.62-3.52,34.32l17.71-22.92" transform="translate(1 0.07)"/><path class="cls-19" d="M356.2,177c11.76,18.56,54.82,18.19,75.07-8.49s23.53-57.12,13.47-75.92c-5.58-10.43-19.05-16.5-32.27-17.47a37.06,37.06,0,0,0-31.41,13.47l-1.45,1.82-3.16,4.12a13.6,13.6,0,0,1-1.21,1.58,33.85,33.85,0,0,0-4.49,9.46,26.29,26.29,0,0,0-1.21,5.33,35.52,35.52,0,0,1-7.28,17C353.53,138.83,344.56,158.47,356.2,177Z" transform="translate(1 0.07)"/><path d="M376.09,36.83c-3.4.61-6.43,7.52-7.76,10.67-1.94,4.49-5.7,15,2.79,26.93,9.7,13.46,30.68,13.46,46.21,17.46,13.82,3.52,20.86,12.49,19.89,22.68a10.26,10.26,0,0,0,2.54,7.64l.25.37a8.54,8.54,0,0,1,1.94,7.15c-1.58,8-6.67,24.62-19.29,28.26-10.79,3.15-15.28-.85-17.1-2.18-6.3-4.86-9.82-10.07-22.19-16.13-6.43-3.16-13.22-2.67-22.2-4-1.69-.24-4-.48-4.24-3.15,0,0-19.53,22.92-5.82,46.81a25.31,25.31,0,0,0,15.88,12c9.22,2.18,24.5,3.52,42.21-4.49,29.11-13.09,38.69-43.17,42.57-52.63s14-34.81,6.43-58.22c-4.61-14.43-19.29-26.68-43.3-27.77C398.41,47.38,386,34.89,376.09,36.83Z" transform="translate(1 0.07)"/><path class="cls-21" d="M395.13,153.87a12.16,12.16,0,0,1-1.21,1.81c-2.67,3.4-9.46,9.95-21.23,4.13-3.63-1.82-5.57-4.25-6.42-6.67-1.82-5.1.85-10.31.85-10.31a87.82,87.82,0,0,0,10.3,5.7c5.1,2.42,11.41,4.73,17.11,5.21A1,1,0,0,0,395.13,153.87Z" transform="translate(1 0.07)"/><path class="cls-22" d="M394.77,152.77l-.37,1.1-.6,1.94c-2.67,3.39-9.46,9.94-21.23,4.12-3.63-1.82-5.58-4.25-6.42-6.67,4.85-4.61,9.7-4.61,9.7-4.61h7.88Z" transform="translate(1 0.07)"/><path class="cls-23" d="M367.72,143s-3.27,4.12-3.27,5.22c0,1.81,21.71,12,22.8,12.12s3.15-4.12,3.15-4.12L381.67,151" transform="translate(1 0.07)"/><path d="M368.81,99.05a8.74,8.74,0,0,0-.6,1.69,3.13,3.13,0,0,0,2.18,3.76c4,1.46,16.37,6.31,16.37,6.31,1.34.73,1.34-.61.85-1.45-1.57-3.4-3.27-7.65-14.92-11.53C371.24,97.23,369.42,97.47,368.81,99.05Z" transform="translate(1 0.07)"/><path d="M426.66,122.33c-.48,1.22,0,.12-.84,1.58a3.19,3.19,0,0,1-4.25,1c-3.88-1.94-15.89-7.52-15.89-7.52-1.45-.36-.48-1.33.49-1.7,3.52-1.21,7.76-2.91,18.68,2.91C426.3,119.42,427.27,120.76,426.66,122.33Z" transform="translate(1 0.07)"/><path d="M362.75,143.8s6.79,8.73,16.25,6.06c0,0,.12,7.16,16,9.46l1.33-5.58s-10.3-5.45-10.91-5.09-10.43-2.55-12.25-2.91-8.25-5.34-8.25-5.34Z" transform="translate(1 0.07)"/><path class="cls-24" d="M406.17,125c-1.82,2.91-2.55,6.19.36,8.49a2.76,2.76,0,0,0,3.4-.36,12.19,12.19,0,0,0,2.54-3.76c2.19-3.88-4-8.13-6.3-4.37Z" transform="translate(1 0.07)"/><path class="cls-13" d="M406.65,126.7c-.48.73-.72,1.58.12,2.18a.59.59,0,0,0,.85-.12c.37-.36.25-.73.49-1.21.61-.85-.85-1.82-1.46-.85Z" transform="translate(1 0.07)"/><path class="cls-24" d="M374.51,114.33c-1.45,2.3-2.18,4.85.13,6.79a2.18,2.18,0,0,0,2.66-.24c1.22-1.09,1.34-1.94,2.07-3.28,1.69-3-2.92-6.18-4.86-3.27Z" transform="translate(1 0.07)"/><path class="cls-13" d="M374.88,115.66c-.37.61-.61,1.22,0,1.82a.79.79,0,0,0,.73,0c.36-.24.24-.6.48-1,.36-.85-.73-1.58-1.21-.85Z" transform="translate(1 0.07)"/><path class="cls-19" d="M199,221.3s-15.16-32.63-25.83-40.39c0,0-3.76.61-3.28,5.09s6.92,10.07,7.16,14.32-2.55,3.63-6.06,2.91S141.53,188,139,189.28s.12,4,1.94,5.46,15.64,10.18,15.64,10.18-25-13.7-26.8-9c-1.21,3,22.07,15,22.07,15s-20-11.16-20.86-7c-.72,3.52,16.13,11.53,16.13,11.53s-10.43-5.46-11.28-3c-1,3,13.47,10.92,17.71,13.71s14.43,7.15,18.56,7,7-.48,9.34,1.82" transform="translate(1 0.07)"/><path class="cls-13" d="M477.24,291.28l8.37,31H333.16c0-8-.49-17.58-1.09-27l-32.75,20.13c-10.67-21.22-34.08-41.48-34.44-41.48,22.8-22.31,50.69-47.66,65.85-58.21,7.28-5.1,42.21-7,46.82-7.52a12.07,12.07,0,0,0,9.33-6.19s4.86,11.28,12.86,15.41c2.18.85,2.3,13.7,5.09,13.58.85,0,6.67-13.46,7.52-13.58,0,0,9.34-1.58,19.77-17.23l1.82,2.55a11.8,11.8,0,0,0,6.91,4.61,163,163,0,0,1,24,7.52c13.1,5.34,27.41,30.32,27.41,30.32l3.27,46.09-19.16-.85Z" transform="translate(1 0.07)"/><polygon class="cls-25" points="464.17 283.47 467.81 322.4 486.61 322.4 483.33 297.05 464.17 283.47"/><polyline class="cls-19" points="520.32 277.28 537.3 322.4 486.61 322.4 478.24 304.08"/><path class="cls-13" d="M445.1,208.44s38.81,5.58,50.45,17.22c5.82,5.7,10.55,16.74,17.83,33.36,11.89,27,17.46,41.84,17.46,41.84S501.49,321.23,472,315.17l-14.43-41.6Z" transform="translate(1 0.07)"/><path class="cls-25" d="M341.53,322.32h-8.37c0-8-.49-17.58-1.09-27l6.79-3.76S341.65,313.83,341.53,322.32Z" transform="translate(1 0.07)"/><path class="cls-19" d="M147.48,362.1s3.64,12.62-9.95,12.62a10.71,10.71,0,0,1-5-1.22c-5-2.42-6.19-10.91-6.19-10.91,4.25-1.09,2.79-7.28,2.79-7.28l15.16.37s-.72,4,.37,5.09C146.51,363,147.48,362.1,147.48,362.1Z" transform="translate(1 0.07)"/><path class="cls-26" d="M127.1,361.74S126.25,373,136.8,373c9.59,0,9.71-7.4,9-11.52,10.91,1,22.92,5.33,29,10.43C182,381.27,187,395.58,187,395.58a69.7,69.7,0,0,1-6.79,2.67,32.66,32.66,0,0,0-6.18,2.66l-4.25,57.85H102.85l-1.1-57.85s-4.36-1.09-8-2.18c-5.22-1.7-7.16-3.39-7.16-3.39a118.9,118.9,0,0,1,10.07-21.59C102.85,367.93,114.37,363.32,127.1,361.74Z" transform="translate(1 0.07)"/><path class="cls-19" d="M87.81,395.94S81.38,418.5,82,429.29s26.07,25.84,26.07,25.84l3.28-11.4S100.78,439.24,99.21,431s7.27-28.86,7.27-28.86-3.88-1.09-9.33-2.67A51.64,51.64,0,0,1,87.81,395.94Z" transform="translate(1 0.07)"/><path class="cls-19" d="M186.29,395.94s6.42,22.56,5.82,33.35S166,455.13,166,455.13l-3.27-11.4s10.55-4.49,12.13-12.74-7.64-29.35-7.64-29.35,4.24-1,9.58-2.42A85.47,85.47,0,0,0,186.29,395.94Z" transform="translate(1 0.07)"/><path class="cls-27" d="M178,459.61H95.33l-1.82-51.78a2.36,2.36,0,0,1,2.42-2.43h81.75a2.43,2.43,0,0,1,2.42,2.43Z" transform="translate(1 0.07)"/><path class="cls-28" d="M171.37,471.5a8.26,8.26,0,0,1,5.82-2.18c2.67-.13,10.19,1.57,13.71,1.57s7.27-.85,9.33,2.19c3.52,5.21,1.94,9.82-3.88,10.55-3.15.36-5.82-1.7-10.91-1.22s-12.62-1.21-14.8-4.73" transform="translate(1 0.07)"/><path class="cls-29" d="M164.46,469.07a51.46,51.46,0,0,0,6.55,1.34c2.66.12,8.49-.49,11.15,1.21,2.91,1.82,1.82,6.79,0,7.88-2.91,1.82-5.33.85-10.79-.85a34.75,34.75,0,0,0-11.76-1.09" transform="translate(1 0.07)"/><path d="M172.46,481s-61.37-1.09-77.62-3.28a79.68,79.68,0,0,1-18.68-4.6c-7.39-4.37-10.06-14.8-5.09-24.38,2.3-4.49,9.46-3.64,10.55-3.64H82c19.89.73,38,5.82,58.45,14.07A232.13,232.13,0,0,0,174,469.92C175.13,477.68,172.46,481,172.46,481Z" transform="translate(1 0.07)"/><path class="cls-28" d="M187.26,474.17s-1.58-.85-2.19.12a16.22,16.22,0,0,0-.6,5.7c.48,1.09,2.91.73,2.91.73l1.94-5.22Z" transform="translate(1 0.07)"/><path class="cls-30" d="M103.09,471.62s-1.82-2.18-6.07-2.3c-2.79-.13-10.55,1.69-14.31,1.57s-7.39-.85-9.82,1.58c-4.49,4.73-.36,10.67,5.82,11.4,3.28.36,4.25-1.46,9.58-1,5.1.48,13.1-1.21,15.4-4.85" transform="translate(1 0.07)"/><path class="cls-29" d="M110.37,469.07a36.76,36.76,0,0,1-6.92,1.34c-2.79.12-8.85-.61-11.64,1.21-3,1.82-1.94,7,0,8.25,3,1.94,5.58,1,11.16-.73a37.25,37.25,0,0,1,12.25-1.09" transform="translate(1 0.07)"/><path class="cls-31" d="M198.66,472.83h0a75.84,75.84,0,0,1-19.77,5c-16.37,2.06-77.74,3-77.74,3s-2.67-3.28-1.58-11.16A244.06,244.06,0,0,0,133.29,459c20-7.89,37.84-12.86,57.12-13.83,3.76.37,8.13,2.06,11.28,8.49C205.81,462.4,202.66,471.38,198.66,472.83Z" transform="translate(1 0.07)"/><path class="cls-30" d="M90,472.23s2.06-1.09,2.79.12,1.09,6.55.73,7.4c-.61,1.45-3.64,1-3.64,1l-2.43-6.67Z" transform="translate(1 0.07)"/><path d="M154.39,326.08s5.7-.6-.73,14.19c-2.42,5.58-3.27,5.22-3.27,5.46s-2.19-1.82-2.19-2.79.13-8.25.25-8.61S154.39,326.08,154.39,326.08Z" transform="translate(1 0.07)"/><path d="M120.92,329.36s-4.37-1.21-2.67,7.52a17.19,17.19,0,0,0,4.36,8.61c0,.24,2.19-1.82,2.19-2.79s-.12-8.25-.24-8.61S120.92,329.36,120.92,329.36Z" transform="translate(1 0.07)"/><path class="cls-19" d="M122.13,340.39s-1.82-1.81-2.43.61,1.46,8.61,3.88,6.19" transform="translate(1 0.07)"/><path class="cls-19" d="M150.87,340.39s1.82-1.81,2.43.61-1.46,8.61-3.88,6.19" transform="translate(1 0.07)"/><path class="cls-19" d="M137.05,359.56h-.12c-1.7.12-17.1.24-15.16-27.78h29.35S154.63,357.86,137.05,359.56Z" transform="translate(1 0.07)"/><path d="M147.11,316.14c5.58,1.58,9.1,8.61,6.31,14.19s-11.52,8.73-21.35,6.67c-5.82-1.21-7.64-3.52-11.15-3.4a6.16,6.16,0,0,1-6.07-4c-1.21-3.39-2.06-8,1.58-10.67C126.13,321.6,138.87,313.59,147.11,316.14Z" transform="translate(1 0.07)"/><path class="cls-32" d="M141.41,430.87a5.34,5.34,0,1,1-5.33-5.34A5.38,5.38,0,0,1,141.41,430.87Z" transform="translate(1 0.07)"/><path class="cls-33" d="M129.28,357.25a9.73,9.73,0,0,0,2.19,1.09,13.1,13.1,0,0,0,5.09.85,19.64,19.64,0,0,0,2.79-.36c.85-.24,1.7-.49,2.43-.73a15,15,0,0,0,2.18-1,7.63,7.63,0,0,1-2.06,1.34,9.66,9.66,0,0,1-2.43,1,12,12,0,0,1-5.82.24,11.09,11.09,0,0,1-2.42-1A11,11,0,0,1,129.28,357.25Z" transform="translate(1 0.07)"/><path class="cls-13" d="M448.5,475.74V366.47A.53.53,0,0,0,448,366h-2.67a.52.52,0,0,0-.48.48V475.74a1.45,1.45,0,0,0-1.22,1.46,1.61,1.61,0,0,0,1.58,1.58H448a1.61,1.61,0,0,0,1.58-1.58C449.71,476.59,449.1,476,448.5,475.74Z" transform="translate(1 0.07)"/><path class="cls-13" d="M665.22,475.74h0l-.12-109.63h-3.52V475.74h-.12a1.09,1.09,0,0,0-1.09,1.1v.84a1.09,1.09,0,0,0,1.09,1.1h3.76a1.09,1.09,0,0,0,1.09-1.1v-.84A1.09,1.09,0,0,0,665.22,475.74Z" transform="translate(1 0.07)"/><path class="cls-34" d="M692.75,367.2H414.05a3.26,3.26,0,0,1-3.27-3.28h0a3.25,3.25,0,0,1,3.27-3.27h278.7a3.26,3.26,0,0,1,3.28,3.27h0A3.27,3.27,0,0,1,692.75,367.2Z" transform="translate(1 0.07)"/><path class="cls-35" d="M562.62,357H482.21l-15.89-50.09a3.89,3.89,0,0,1,3.76-5.09h72.29a4.06,4.06,0,0,1,3.76,2.67Z" transform="translate(1 0.07)"/><path class="cls-13" d="M561,357H484.88l-16-50.82a1.48,1.48,0,0,1,1.33-1.94h73a1.68,1.68,0,0,1,1.57,1.22Z" transform="translate(1 0.07)"/><path class="cls-36" d="M513,312.14H478a1,1,0,0,1-1-1h0a1,1,0,0,1,1-1h35a1,1,0,0,1,1,1h0A1.05,1.05,0,0,1,513,312.14Z" transform="translate(1 0.07)"/><path class="cls-36" d="M518.47,316.5H479.3a1,1,0,0,1-1-1h0a1,1,0,0,1,1-1h39.17a1,1,0,0,1,1,1h0A1,1,0,0,1,518.47,316.5Z" transform="translate(1 0.07)"/><path class="cls-36" d="M514.84,320.87H480.76a1,1,0,0,1-1-1h0a1,1,0,0,1,1-1h34.08a1,1,0,0,1,1,1h0A1.05,1.05,0,0,1,514.84,320.87Z" transform="translate(1 0.07)"/><path class="cls-36" d="M509.14,325.23H482.09a1,1,0,0,1-1-1h0a1,1,0,0,1,1-1h27.05a1,1,0,0,1,1,1h0A1,1,0,0,1,509.14,325.23Z" transform="translate(1 0.07)"/><path class="cls-36" d="M522.72,329.6H483.55a1,1,0,0,1-1-1h0a1,1,0,0,1,1-1h39.17a1,1,0,0,1,1,1h0A1,1,0,0,1,522.72,329.6Z" transform="translate(1 0.07)"/><path class="cls-36" d="M519.08,334H485a1,1,0,0,1-1-1h0a1,1,0,0,1,1-1h34.08a1,1,0,0,1,1,1h0C519.93,333.6,519.57,334,519.08,334Z" transform="translate(1 0.07)"/><path class="cls-36" d="M526.84,342.7H487.67a1,1,0,0,1-1-1h0a1,1,0,0,1,1-1h39.17a1,1,0,0,1,1,1h0A.89.89,0,0,1,526.84,342.7Z" transform="translate(1 0.07)"/><path class="cls-36" d="M528.3,347.07H489.12a1,1,0,0,1-1-1h0a1,1,0,0,1,1-1H528.3a1,1,0,0,1,1,1h0A1,1,0,0,1,528.3,347.07Z" transform="translate(1 0.07)"/><path class="cls-36" d="M549.16,347.07H536.54a2.58,2.58,0,0,1-2.54-1.95l-10.55-33.35a2.67,2.67,0,0,1,2.54-3.51h12.62a2.57,2.57,0,0,1,2.54,1.94l10.55,33.35A2.69,2.69,0,0,1,549.16,347.07Z" transform="translate(1 0.07)"/><path class="cls-35" d="M569.41,360.65H482a2.56,2.56,0,0,1-2.55-2.55h0a2.57,2.57,0,0,1,2.55-2.55h87.44A2.57,2.57,0,0,1,572,358.1h0A2.64,2.64,0,0,1,569.41,360.65Z" transform="translate(1 0.07)"/><path class="cls-37" d="M578,293.7a2.1,2.1,0,0,1-1.7-1l-2.54-4.49a1.54,1.54,0,0,1-.12-1.45,1.88,1.88,0,0,1,1-1.21l7-3.76a1.92,1.92,0,0,1,2.55.72l2.42,4.37a2,2,0,0,1,.12,1.46,1.73,1.73,0,0,1-1,1.09l-6.91,3.76A.75.75,0,0,1,578,293.7Zm4.49-11a.76.76,0,0,0-.49.12l-7,3.76a.8.8,0,0,0-.48.6,1,1,0,0,0,.12.85h0l2.54,4.49a1,1,0,0,0,1.34.36l6.91-3.76a1.27,1.27,0,0,0,.49-.6.79.79,0,0,0-.13-.73l-2.42-4.37A.78.78,0,0,0,582.51,282.67Z" transform="translate(1 0.07)"/><path class="cls-19" d="M564.8,332.63c-.6.73-1,1.22-1,1.22s-4.24-3.16-5.45-3.52-3.76.48-5.1.73c-2.3.48-1.33-1.46-1.33-1.46a29.61,29.61,0,0,0-2.91,1.09c-1.58.61-3.16,1.94-3.64,2.06-.85.25-1.82-.24-1-1.45,1.21-1.82,6.79-6.91,8.12-7.52,1.82-.85,4.13-2.06,6.07-1.33s8.24,5.45,8.24,5.45C567,329.48,565.65,331.42,564.8,332.63Z" transform="translate(1 0.07)"/><path class="cls-38" d="M563.11,333.85s20.86,18.19,36.38,20,41.84-27.65,41.84-27.65-1.7-15.77-11.4-13.83-22.68,25.23-28.38,26.32-34.93-11.28-34.93-11.28a7.76,7.76,0,0,0-1.82,2.18A16.3,16.3,0,0,0,563.11,333.85Z" transform="translate(1 0.07)"/><path class="cls-19" d="M609.31,262.78c-5-5.7-12.25-6.31-17.95-5.7-7.39.84-13.94,5.82-16,13a16.22,16.22,0,0,0,.37,10.67c4.61,12.74,9.58,19.77,13.34,23.29,1.7,1.58,5.21-.61,8.73-1.82a1,1,0,0,1,1.21.49l2.07,3.76,14.55-2.91a49.36,49.36,0,0,1-3-8.37C614.16,292.61,618.41,273.08,609.31,262.78Z" transform="translate(1 0.07)"/><path d="M583,281a3.75,3.75,0,0,1,3.75,2.18c1.1,2.55,2.79,6.19,4,7.28a1.25,1.25,0,0,0,1.45,0,.91.91,0,0,0,.61-1.09,41.73,41.73,0,0,0-1.46-5.1,3.4,3.4,0,0,1,2.55-4.73,6,6,0,0,1,2.06.12c3.88,1.22,1.21,7.28,1.09,10.43,0,2.19,2.67,7.4,3.76,7.89,3.88,1.57,9.71.12,12.86-3.76s3.76-16.74,2.06-24.38-7.88-12-9.94-12.49a9.67,9.67,0,0,0-2.43-.24,1.91,1.91,0,0,1-1.7-.61c-2.06-1.82-8.12-5.82-17.83-1.7a22.42,22.42,0,0,0-13.94,21.47c.12,3.27,2.66,3,4.48,2.42a2.9,2.9,0,0,1,2.79.61A8.81,8.81,0,0,0,583,281Z" transform="translate(1 0.07)"/><path class="cls-38" d="M598.4,308.38s-1.34-1.46-.85-2.31c.61-1.09,7.15-6.3,14.8-6.06,1.21,0,2.66,0,4.12,3.15a24.25,24.25,0,0,1,1.82,5.22Z" transform="translate(1 0.07)"/><path class="cls-39" d="M632.6,401.16l-1.46.36c-6.55,1.21-17.1,1.33-17.1,1.33-20.86-.36-30.2-11.64-33.59-17.46a23.35,23.35,0,0,1-1.7-3.4c1.21-.6,5.34-4.36,6.91-9.58s-.12-17.58-2.79-22.19c-1.45-2.55-5.82-7.88-8.61-13.34-2.3-4.49-3.39-9.34-1-12.86a47.78,47.78,0,0,1,15.77-13.82s17.83-7.16,32.87-5.46c9.58,1,18.19,5.58,20.49,17.58C648.37,353.37,632.6,401.16,632.6,401.16Z" transform="translate(1 0.07)"/><path class="cls-29" d="M588.82,462.77a6.89,6.89,0,0,1-3.76,2.06,6.76,6.76,0,0,1-4.37-.85l-1.21-3.4,8-1.69Z" transform="translate(1 0.07)"/><path class="cls-29" d="M546.85,467a6.71,6.71,0,0,1-4,1.46,6.43,6.43,0,0,1-4.12-1.46l-.61-3.52h8.25Z" transform="translate(1 0.07)"/><path class="cls-37" d="M588.82,459c-.49.24-2.19.85-2.67,1.09-3,1-7.28,1.94-7.28,1.94-6.91-14.92-18.07-52.39-18.07-52.39-1.58-6.67,3.15-9.34,7.28-9.59a7.32,7.32,0,0,1,3.76.61c4,1.7,9.82,12.86,9.82,12.86a64.66,64.66,0,0,1,3.64,11.88C587,433.42,588.82,459,588.82,459Z" transform="translate(1 0.07)"/><path class="cls-40" d="M604.46,401.76c0,3.76-1.09,9.83-6.67,11.52-8.37,2.55-14.67,1.1-24.38-.6-8.12-1.46-21.1-6.19-25.1-7.64-.49-.25-.36.12-.36.6,1.81,9.1-1.22,58.46-1.22,58.46s-1.33.36-2.79.61a6.93,6.93,0,0,1-1.57.12c-2.07,0-6.07-.37-6.07-.37s-7.52-34.68-8.73-54.21,0-22.43,9.22-25.59c10.31-3.51,41.84-2.67,41.84-2.67h0a29.55,29.55,0,0,0,8.85,11.89A38.21,38.21,0,0,0,604.46,401.76Z" transform="translate(1 0.07)"/><path class="cls-41" d="M613.92,421.53v50a3.25,3.25,0,0,1-3.27,3.27,3.67,3.67,0,0,1-1.94-.6,3.18,3.18,0,0,1-1.34-2.55v-50h6.55Z" transform="translate(1 0.07)"/><path class="cls-42" d="M613.92,423.71v47.55a3.28,3.28,0,0,1-2.79,3.27,3,3,0,0,1-2.06-.36c-.12-.25-.24-.37-.36-.61V424.93a1.34,1.34,0,0,1,1.33-1.34h3.88Z" transform="translate(1 0.07)"/><path class="cls-41" d="M618.05,420a1.44,1.44,0,0,1-.13.73,2.09,2.09,0,0,1-.72,1.22,2.9,2.9,0,0,1-1.94.84h-9.59a2.74,2.74,0,0,1-2.78-2.79,2.87,2.87,0,0,1,2.78-2.78h9.59A2.75,2.75,0,0,1,618.05,420Z" transform="translate(1 0.07)"/><path class="cls-42" d="M617.92,420.56a2,2,0,0,1-.72,1.21,2.86,2.86,0,0,1-1.94.85H606a2.83,2.83,0,0,1,2.67-2.18h9.21Z" transform="translate(1 0.07)"/><path class="cls-43" d="M652.25,332.88h0a2.2,2.2,0,0,1-.25,1c-.72,3.27-3.51,9.58-3.88,19.16-.24,5.82,0,21.46-.24,30.92h0c0,1.46-.12,2.67-.12,3.76-.49,8.37-3.4,20.74-12,26.93-8.85,6.67-26.68,5.46-37.47,5.21s-37.6-5.09-39.66-9.09a3.46,3.46,0,0,1-.49-2.31h0a2.91,2.91,0,0,1,.85-1.57,4.25,4.25,0,0,1,4-1c4.37,1.09,17.35,3.63,23.17-3.76,7-9,6.18-19.29,9.22-41.12,2.91-20.62,9.33-26.92,20-31.05,11.4-4.36,29.71-2.54,34.32-1.09A4,4,0,0,1,652.25,332.88Z" transform="translate(1 0.07)"/><path class="cls-42" d="M648.12,477.68a1.22,1.22,0,0,1-1.21,1.22h-72.4a1.22,1.22,0,0,1-1.22-1.22,1.19,1.19,0,0,1,1-1.21l36.39-5.94,9.09,1.45,27.17,4.37A1.51,1.51,0,0,1,648.12,477.68Z" transform="translate(1 0.07)"/><path class="cls-37" d="M538.73,467a13.41,13.41,0,0,0,4.12.85A10,10,0,0,0,547,467s4.25,5.34,1.95,11.4a.76.76,0,0,1-.73.49H519.93a.58.58,0,0,1-.61-.61,2.27,2.27,0,0,1,1.94-2.3c2.67-.85,5.34-1.22,7.28-1.94s5-3.64,6.55-4.25A10.76,10.76,0,0,0,538.73,467Z" transform="translate(1 0.07)"/><path class="cls-37" d="M580.81,464.1a15,15,0,0,0,4.25.24,10.26,10.26,0,0,0,3.88-1.45s5,4.61,3.76,10.91a.77.77,0,0,1-.73.61s-14.92,3.4-20,4.12a64.91,64.91,0,0,1-8,.49c-.36,0-.72-.24-.72-.49a2.44,2.44,0,0,1,1.57-2.66c2.43-1.22,5.1-2.07,6.92-3.16s4.24-4.36,5.82-5.21A9.09,9.09,0,0,0,580.81,464.1Z" transform="translate(1 0.07)"/><path class="cls-19" d="M524.05,357.86s-2.91-1.21-4.36-1.7c-.61-.24-1.22-.36-1.58-.48a9.92,9.92,0,0,0-1.94-.25H499.68a.83.83,0,0,1-.85-.85,2.05,2.05,0,0,1,.85-1.57l1.81-1.09,5.34-3.4c2.67-1.7,4.49-1.82,7.64-1.58a24.74,24.74,0,0,1,3.28,1.1c3,1,3.76,1.45,5.82,2.18a9.85,9.85,0,0,0,1.7.48,5.07,5.07,0,0,0,.72.13A11.1,11.1,0,0,1,524.05,357.86Z" transform="translate(1 0.07)"/><path class="cls-39" d="M588.45,318.56c-2.18-1.33-8.73-5-17.1,8.13s-11,18.68-13.46,22.8c-2.91,1.82-32.62,1-32.62,1a29.2,29.2,0,0,0-2.19,7.4,107.14,107.14,0,0,0,36.63,9.34c16.13,0,32.87-31.66,33.59-35.54C594.27,327.66,593.67,321.72,588.45,318.56Z" transform="translate(1 0.07)"/><path class="cls-37" d="M574.87,290.67c-.12,0-.36-.12-.36-.24a.44.44,0,0,1,.24-.61l16.37-8.37c1.82-1,5.7-2.91,8.49,1.22.12.24.12.48-.12.6s-.49.12-.61-.12c-2.18-3.27-4.85-2.3-7.27-1l-16.38,8.37A.93.93,0,0,1,574.87,290.67Z" transform="translate(1 0.07)"/><path class="cls-19" d="M591,282.3l2.18,6.91a2.21,2.21,0,0,0,3.28-.24c1.57-1.82,3-8.37,0-9.46S591.73,280,591,282.3Z" transform="translate(1 0.07)"/><path class="cls-44" d="M651.52,330.33h0a3.69,3.69,0,0,0-2.18-1.58c-4.61-1.33-22.93-3.27-34.33,1.09-10.67,4.13-17.1,10.43-20,31.05-3,21.83-2.18,32.14-9.22,41.12-5.82,7.39-18.79,4.85-23.16,3.76a4.41,4.41,0,0,0-4,1,3.24,3.24,0,0,0-.85,1.57,3.5,3.5,0,0,0,.48,2.31c2.19,4,28.87,8.85,39.66,9.09s28.62,1.34,37.48-5.21c8.73-6.31,11.52-18.56,12-26.93a35.64,35.64,0,0,0,.12-3.76c-.25.73-6.19,17.59-27.17,13.71-20.25-3.76-22.07-26-21.35-33.48a15.2,15.2,0,0,0,.25-2.3c.24-1.33,1.33-7.28,2.67-12.37a24.65,24.65,0,0,1,8-12.37,10.06,10.06,0,0,1,1.94-1.21,3.13,3.13,0,0,0,.61-.37c.36-.12.6-.36,1-.48s.72-.37,1.09-.49a5.56,5.56,0,0,1,.85-.36c16.49-6.55,34.2-2.31,35.29-2.06C652,332.39,651.64,330.69,651.52,330.33Z" transform="translate(1 0.07)"/><path class="cls-45" d="M202.78,490.54l1.82-4.85s28.62,1.33,42.21,9.82L221,496Z" transform="translate(1 0.07)"/><path class="cls-45" d="M290.83,490.54,289,485.69s-28.62,1.33-42.2,9.82l25.83.49Z" transform="translate(1 0.07)"/><path class="cls-46" d="M246.81,495.51c-15.53-6.06-45.61-6.43-45.61-6.43v10.19h91.21V489.08S262.33,489.45,246.81,495.51Z" transform="translate(1 0.07)"/><rect class="cls-47" x="198.69" y="496.56" width="98.12" height="3.52"/><path class="cls-42" d="M495.19,125.61l8.61-5.7a11.93,11.93,0,0,0,6.18,1.82h41.6a11.53,11.53,0,0,0,11.53-11.53V97.11a11.53,11.53,0,0,0-11.53-11.53H510a11.52,11.52,0,0,0-11.52,11.53V110.2a11.51,11.51,0,0,0,1.94,6.43ZM510,114.33a1.09,1.09,0,0,1,1.1-1.09h40a1.09,1.09,0,1,1,0,2.18h-40A1.29,1.29,0,0,1,510,114.33Zm41.12-4.49H530a1.09,1.09,0,1,1,0-2.18h21.1a1.09,1.09,0,0,1,1.09,1.09A1,1,0,0,1,551.1,109.84ZM510,103.41a1.09,1.09,0,0,1,1.1-1.09h40a1.09,1.09,0,1,1,0,2.18h-40A1.09,1.09,0,0,1,510,103.41Zm41.12-4.36H521.51a1.1,1.1,0,1,1,0-2.19H551.1a1.1,1.1,0,0,1,0,2.19ZM510,92.62a1.09,1.09,0,0,1,1.1-1.09h40a1.09,1.09,0,1,1,0,2.18h-40A1.09,1.09,0,0,1,510,92.62Z" transform="translate(1 0.07)"/><line class="cls-48" x1="137.08" y1="230.59" x2="129.8" y2="230.59"/><path class="cls-49" d="M122.74,230.51H75.92a4.87,4.87,0,0,0-4.85,4.86V420.56a3.92,3.92,0,0,0,.36,1.7" transform="translate(1 0.07)"/><path class="cls-48" d="M73.25,424.68a5,5,0,0,0,2.79.85h4.37" transform="translate(1 0.07)"/><line class="cls-48" x1="559.5" y1="168.61" x2="566.77" y2="168.61"/><path class="cls-50" d="M571.72,168.54H673.47a8.64,8.64,0,0,1,8.61,8.61V327.3a8.64,8.64,0,0,1-8.61,8.61h-2.91" transform="translate(1 0.07)"/><line class="cls-48" x1="668.65" y1="335.98" x2="661.37" y2="335.98"/><path class="cls-51" d="M242.92,54.05h69.26a14.08,14.08,0,0,1,14.06,14.07v66.22" transform="translate(1 0.07)"/><path class="cls-13" d="M454.68,347.79s-8-4.73-9.82-13.94c0,0,7.52,1.57,11.4,13.94" transform="translate(1 0.07)"/><path class="cls-13" d="M457.83,347.79s8-4.73,9.83-13.94c0,0-7.52,1.57-11.4,13.94" transform="translate(1 0.07)"/><path class="cls-13" d="M455.41,347.07s-5.82-7.28-4.13-16.5c0,0,6.55,4.25,5.58,17.1" transform="translate(1 0.07)"/><path class="cls-13" d="M457.35,347.07s5.58-7.4,3.64-16.62c0,0-6.43,4.37-5.22,17.22" transform="translate(1 0.07)"/><rect class="cls-43" x="448.4" y="346.05" width="17.59" height="14.67"/><rect class="cls-44" x="448.4" y="346.05" width="5.22" height="14.67"/><g class="cls-52"><polyline class="cls-53" points="627.41 258.24 619.41 262.48 623.41 252.18"/><path class="cls-53" d="M651,245a16.74,16.74,0,1,1-16.73-16.74A16.77,16.77,0,0,1,651,245Z" transform="translate(1 0.07)"/></g><polyline class="cls-54" points="628.14 243.44 633.24 249.75 642.33 240.29"/><g class="cls-52"><polyline class="cls-53" points="107.48 313.3 115.37 317.55 111.36 307.24"/><path class="cls-53" d="M81.86,300A16.74,16.74,0,1,0,98.6,283.27,16.77,16.77,0,0,0,81.86,300Z" transform="translate(1 0.07)"/></g><polyline class="cls-54" points="92.57 298.5 97.66 304.81 106.64 295.35"/><path class="cls-13" d="M640.48,156.53H575.35a2.17,2.17,0,0,1-2.18-2.18v-66a2.17,2.17,0,0,1,2.18-2.18h65.13a2.18,2.18,0,0,1,2.19,2.18v66A2.36,2.36,0,0,1,640.48,156.53Z" transform="translate(1 0.07)"/><path class="cls-34" d="M256.39,428.32a6.72,6.72,0,1,1-7.52-5.82A6.79,6.79,0,0,1,256.39,428.32Z" transform="translate(1 0.07)"/><polyline class="cls-55" points="247.68 429.97 250.72 432.16 253.63 426.94"/><path class="cls-34" d="M274.58,73a6.75,6.75,0,1,1-8.49-4.36A6.85,6.85,0,0,1,274.58,73Z" transform="translate(1 0.07)"/><polyline class="cls-55" points="266.36 76.44 269.76 78.02 271.58 72.44"/><path class="cls-34" d="M637.81,198.25a10.33,10.33,0,1,1-9.58-11A10.33,10.33,0,0,1,637.81,198.25Z" transform="translate(1 0.07)"/><polyline class="cls-56" points="623.9 197.72 627.66 201.84 633.6 194.93"/><path class="cls-34" d="M606,197a2.43,2.43,0,1,1-2.43-2.42A2.43,2.43,0,0,1,606,197Z" transform="translate(1 0.07)"/><path class="cls-57" d="M522.48,26.28a2.43,2.43,0,1,1-2.43-2.43A2.36,2.36,0,0,1,522.48,26.28Z" transform="translate(1 0.07)"/><path class="cls-34" d="M117.88,252.71a4,4,0,1,1-4-4A4,4,0,0,1,117.88,252.71Z" transform="translate(1 0.07)"/><path class="cls-57" d="M720.41,292.85a6.07,6.07,0,1,1-6.07-6.06A6.09,6.09,0,0,1,720.41,292.85Z" transform="translate(1 0.07)"/><path class="cls-57" d="M53.85,208.68a6.07,6.07,0,1,1-6.07-6.06A6,6,0,0,1,53.85,208.68Z" transform="translate(1 0.07)"/><path class="cls-57" d="M670.32,347.79a4,4,0,1,1-4-4A4,4,0,0,1,670.32,347.79Z" transform="translate(1 0.07)"/><path class="cls-57" d="M360.93,40.59a4,4,0,1,1-4-4A4,4,0,0,1,360.93,40.59Z" transform="translate(1 0.07)"/><path class="cls-58" d="M434.79,20.7a4,4,0,1,1-4-4A4.12,4.12,0,0,1,434.79,20.7Z" transform="translate(1 0.07)"/><path class="cls-34" d="M42.93,155a.84.84,0,0,1-.85-.85v-5.58a.85.85,0,0,1,1.7,0v5.58A1,1,0,0,1,42.93,155Z" transform="translate(1 0.07)"/><path class="cls-34" d="M45.72,152.17H40.14a.85.85,0,0,1,0-1.7h5.58a.83.83,0,0,1,.85.85A1,1,0,0,1,45.72,152.17Z" transform="translate(1 0.07)"/><g class="cls-6"><path class="cls-34" d="M86.72,14.64a.83.83,0,0,1-.85-.85V8.21a.85.85,0,1,1,1.69,0v5.58A.83.83,0,0,1,86.72,14.64Z" transform="translate(1 0.07)"/><path class="cls-34" d="M89.5,11.72H83.93a.85.85,0,1,1,0-1.69H89.5a.83.83,0,0,1,.85.85A.76.76,0,0,1,89.5,11.72Z" transform="translate(1 0.07)"/></g><path class="cls-34" d="M551.58,81.46a.83.83,0,0,1-.85-.85V75a.85.85,0,0,1,1.7,0v5.58A.83.83,0,0,1,551.58,81.46Z" transform="translate(1 0.07)"/><path class="cls-34" d="M554.37,78.67h-5.58a.85.85,0,0,1,0-1.7h5.58a.85.85,0,1,1,0,1.7Z" transform="translate(1 0.07)"/><path class="cls-34" d="M723.92,376.42a.84.84,0,0,1-.85-.85V370a.85.85,0,0,1,1.7,0v5.58A.83.83,0,0,1,723.92,376.42Z" transform="translate(1 0.07)"/><path class="cls-34" d="M726.71,373.63h-5.58a.85.85,0,0,1,0-1.7h5.58a.85.85,0,0,1,0,1.7Z" transform="translate(1 0.07)"/><path class="cls-13" d="M537.52,152.9v42.69a1.35,1.35,0,0,1-1.34,1.33H494.1a1.35,1.35,0,0,1-1.34-1.33V153a1.35,1.35,0,0,1,1.34-1.34h42.2A1.31,1.31,0,0,1,537.52,152.9Z" transform="translate(1 0.07)"/><path class="cls-34" d="M537.52,187.58v8a1.35,1.35,0,0,1-1.34,1.33H515.32l.85-9.34L526,176.67Z" transform="translate(1 0.07)"/><path class="cls-59" d="M531.69,196.8H494.1a1.35,1.35,0,0,1-1.34-1.34v-8l14.68-15.4Z" transform="translate(1 0.07)"/><path class="cls-34" d="M531.57,163.93a5.22,5.22,0,1,1-5.21-5.21A5.18,5.18,0,0,1,531.57,163.93Z" transform="translate(1 0.07)"/><path class="cls-13" d="M536.54,204.2H493.73a1.05,1.05,0,0,1-1-1v-2.07a1.05,1.05,0,0,1,1-1h42.81a1.05,1.05,0,0,1,1,1v2.07A1,1,0,0,1,536.54,204.2Z" transform="translate(1 0.07)"/><path class="cls-13" d="M536.54,211.23H493.73a1,1,0,0,1-1-1V208.2a1,1,0,0,1,1-1h42.81a1,1,0,0,1,1,1v2.06A1,1,0,0,1,536.54,211.23Z" transform="translate(1 0.07)"/><path class="cls-60" d="M630.17,112.51v24.86a1.37,1.37,0,0,1-.36,1,1.72,1.72,0,0,1-1.46.73h-36.5a2.08,2.08,0,0,1-1.21-.49v-23a1.6,1.6,0,0,1,1.57-1.58H617.8a1.6,1.6,0,0,0,1.58-1.57,1.61,1.61,0,0,1,1.58-1.58h7.76A1.81,1.81,0,0,1,630.17,112.51Z" transform="translate(1 0.07)"/><path class="cls-35" d="M629.81,138.34a1.72,1.72,0,0,1-1.46.73h-36.5a2.08,2.08,0,0,1-1.21-.49c-.13-.12-.25-.36-.37-.48V138l-8.12-18.56a1.47,1.47,0,0,1,1.33-2.06h36.14a1.5,1.5,0,0,1,1.34.85l7.64,17.34Z" transform="translate(1 0.07)"/></g></svg>