<?xml version="1.0" encoding="utf-8"?>
<!-- Generator: Adobe Illustrator 23.0.2, SVG Export Plug-In . SVG Version: 6.00 Build 0)  -->
<svg version="1.1" id="Capa_1" xmlns="http://www.w3.org/2000/svg" xmlns:xlink="http://www.w3.org/1999/xlink" x="0px" y="0px"
	 viewBox="0 0 566.9 497.1" style="enable-background:new 0 0 566.9 497.1;" xml:space="preserve">
<style type="text/css">
	.st0{fill:#010202;}
</style>
<g>
	
		<ellipse transform="matrix(0.7071 -0.7071 0.7071 0.7071 -44.5718 105.8937)" class="st0" cx="105.5" cy="106.7" rx="72.3" ry="72.3"/>
	<path class="st0" d="M335.9,180.4c7.8-17.5-22.3-30.9-30.1-13.4l-36.5,74.1l-114.1-56C68.9,163.8,9.3,199.3,0,280.5v59.7
		c2.7,25.1,14.3,41.4,36.4,47.4l-1.1,92.7c-0.6,8.9,4.6,14.4,14.9,16.8h111.4c9-2.3,14-7.7,14.4-16.8l-0.3-187l52,26
		c40.9,21.7,74.8-18.9,64.7-51.9l0,0L335.9,180.4z"/>
</g>
<path class="st0" d="M519.3,1h-250c-32.9,1.9-49.8,19.7-57,46.8v127.9l41.6,20.8l19.2-37.8c25.3-61.2,116.5-23.4,91.1,37.8
	l-36.8,75.1c3.1,8.4,1.6,17.9-2.4,28h24.8l-61.6,171.1c-8.7,26.9,20.8,36.5,29.6,9.6l66.4-179.9h11.2l67.2,179.9
	c8.9,27.5,38.5,17.9,29.6-9.6l-60.8-169.5h79.9c30.5-2.3,51.3-16.2,55.7-49.6V53.5C564,22.8,547.1,6.4,519.3,1z M495.6,213.9
	c0,9.5-7.8,17.3-17.3,17.3h-75.2c-9.5,0-17.3-7.8-17.3-17.3v0c0-9.5,7.8-17.3,17.3-17.3h75.2C487.8,196.6,495.6,204.4,495.6,213.9
	L495.6,213.9z M495.6,150.6c0,9.5-7.8,17.3-17.3,17.3h-75.2c-9.5,0-17.3-7.8-17.3-17.3v0c0-9.5,7.8-17.3,17.3-17.3h75.2
	C487.8,133.3,495.6,141.1,495.6,150.6L495.6,150.6z M495.6,90.9c0,8.7-7.1,15.7-15.7,15.7H300.5c-8.7,0-15.7-7.1-15.7-15.7v-3.1
	c0-8.7,7.1-15.7,15.7-15.7h179.4c8.7,0,15.7,7.1,15.7,15.7V90.9z"/>
</svg>
