<?xml version="1.0" encoding="utf-8"?>
<!-- Generator: Adobe Illustrator 23.0.2, SVG Export Plug-In . SVG Version: 6.00 Build 0)  -->
<svg version="1.1" id="Capa_1" xmlns="http://www.w3.org/2000/svg" xmlns:xlink="http://www.w3.org/1999/xlink" x="0px" y="0px"
	 viewBox="0 0 566.9 566.9" style="enable-background:new 0 0 566.9 566.9;" xml:space="preserve">
<path d="M548,454.4L372.3,282.5l171.9-175.7c24.3-24.8,23.8-64.6-1-88.9c-24.8-24.3-64.6-23.8-88.9,1L282.5,194.6L106.8,22.7
	C82-1.6,42.2-1.1,17.9,23.7s-23.8,64.6,1,88.9l175.7,171.9L22.7,460.1c-24.3,24.8-23.8,64.6,1,88.9c12.2,12,28.1,17.9,43.9,17.9
	c16.3,0,32.6-6.3,44.9-18.9l171.9-175.7l175.7,171.9c12.2,12,28.1,17.9,43.9,17.9c16.3,0,32.6-6.3,44.9-18.9
	C573.3,518.4,572.8,478.6,548,454.4z"/>
</svg>
