<?xml version="1.0" encoding="utf-8"?>
<!-- Generator: Adobe Illustrator 23.0.2, SVG Export Plug-In . SVG Version: 6.00 Build 0)  -->
<svg version="1.1" id="Capa_1" xmlns="http://www.w3.org/2000/svg" xmlns:xlink="http://www.w3.org/1999/xlink" x="0px" y="0px"
	 viewBox="0 0 317.2 391.4" style="enable-background:new 0 0 317.2 391.4;" xml:space="preserve">
<style type="text/css">
	.st0{fill:none;stroke:#000000;stroke-width:23;stroke-miterlimit:10;}
	.st1{fill:none;stroke:#000000;stroke-width:23;stroke-linecap:round;stroke-miterlimit:10;}
</style>
<g>
	<path class="st0" d="M11.5,28.6v345.7c0,3.1,2.5,5.7,5.7,5.7h282.7c3.1,0,5.7-2.5,5.7-5.7v-273c0-1.5-0.6-2.9-1.7-4l-84.2-84.2
		c-1.1-1.1-2.5-1.7-4-1.7L28.2,11.9C19,11.9,11.5,19.4,11.5,28.6z"/>
	<path class="st1" d="M203.3,44.2v56.4c0,3.3,2.3,6,5.2,6h57.2"/>
	<line class="st1" x1="66.5" y1="151.3" x2="241.2" y2="151.3"/>
	<line class="st1" x1="66.5" y1="203.3" x2="241.2" y2="203.3"/>
	<line class="st1" x1="66.5" y1="254.3" x2="241.2" y2="254.3"/>
</g>
</svg>
