<?xml version="1.0" encoding="utf-8"?>
<!-- Generator: Adobe Illustrator 23.0.2, SVG Export Plug-In . SVG Version: 6.00 Build 0)  -->
<svg version="1.1" id="Capa_1" xmlns="http://www.w3.org/2000/svg" xmlns:xlink="http://www.w3.org/1999/xlink" x="0px" y="0px"
	 viewBox="0 0 543.9 566.9" style="enable-background:new 0 0 543.9 566.9;" xml:space="preserve">
<style type="text/css">
	.st0{stroke:#1D1D1B;stroke-width:36;stroke-miterlimit:10;}
</style>
<g>
	<path class="st0" d="M243.2,148"/>
	<path d="M336.2,165.5h-81c-6.6,0-12-5.4-12-12V137c0-6.6,5.4-12,12-12h81c6.6,0,12,5.4,12,12v16.5
		C348.2,160.1,342.8,165.5,336.2,165.5z"/>
	<path d="M336.2,269.9h-81c-6.6,0-12-5.4-12-12v-16.5c0-6.6,5.4-12,12-12h81c6.6,0,12,5.4,12,12v16.5
		C348.2,264.5,342.8,269.9,336.2,269.9z"/>
	<path d="M210.9,219.6l-11.3-11.3c-4.8-4.8-12.6-4.8-17.4,0L140.5,250l-15.1-16.7c-4.5-5-12.4-5.4-17.3-0.8l-11.8,10.7
		c-5,4.5-5.4,12.4-0.8,17.3l34.7,38.1c4.5,5,12.4,5.4,17.3,0.8l2.8-2.5c0.9-0.5,1.7-1.1,2.5-1.9l4-4l2.5-2.3c0.7-0.6,1.2-1.3,1.7-2
		l49.9-49.9C215.7,232.2,215.7,224.4,210.9,219.6z"/>
	<path d="M210.9,109.1l-11.3-11.3c-4.8-4.8-12.6-4.8-17.4,0l-41.7,41.7l-15.1-16.7c-4.5-5-12.4-5.4-17.3-0.8l-11.8,10.7
		c-5,4.5-5.4,12.4-0.8,17.3l34.7,38.1c4.5,5,12.4,5.4,17.3,0.8l2.8-2.5c0.9-0.5,1.7-1.1,2.5-1.9l4-4l2.5-2.3c0.7-0.6,1.2-1.3,1.7-2
		l49.9-49.9C215.7,121.7,215.7,113.9,210.9,109.1z"/>
	<path d="M210.9,328.1l-11.3-11.3c-4.8-4.8-12.6-4.8-17.4,0l-41.7,41.7l-15.1-16.7c-4.5-5-12.4-5.4-17.3-0.8l-11.8,10.7
		c-5,4.5-5.4,12.4-0.8,17.3l34.7,38.1c4.5,5,12.4,5.4,17.3,0.8l2.8-2.5c0.9-0.5,1.7-1.1,2.5-1.9l4-4l2.5-2.3c0.7-0.6,1.2-1.3,1.7-2
		l49.9-49.9C215.7,340.7,215.7,332.9,210.9,328.1z"/>
	<path d="M438.4,199.9L286.1,463.7l-4.6,91.9c-0.6,11,6,13.2,17.1,9.9l83.8-46.2l153.3-265.5l3.1-5.4
		C566.5,191.1,466,142.7,438.4,199.9z"/>
	<path d="M255.5,375.3h41.7l24.9-40.5h-66.5c-6.8,0-12.3,5.5-12.3,12.3v16C243.2,369.8,248.7,375.3,255.5,375.3z"/>
	<g>
		<path d="M254.4,449.6H71.4c-10.7,0-19.4-8.7-19.4-19.4V71.1c0-10.7,8.7-19.4,19.4-19.4h298.3c10.7,0,19.4,8.7,19.4,19.4v154.4
			l50.8-82.8v-77c0-36.3-29.4-65.8-65.8-65.8H65.8C29.4,0,0,29.4,0,65.8V436c0,36.3,29.4,65.8,65.8,65.8h184.7L254.4,449.6z"/>
	</g>
</g>
</svg>
