<svg id="Capa_1" data-name="Capa 1" xmlns="http://www.w3.org/2000/svg" viewBox="0 0 534.46 283.07"><defs><style>.cls-1{fill:#fff;stroke-width:13px;}.cls-1,.cls-2{stroke:#000;stroke-miterlimit:10;}.cls-2{fill:none;stroke-width:17.9px;}.cls-3{font-size:119.2px;font-family:MyriadPro-Regular, Myriad Pro;}.cls-4{letter-spacing:-0.03em;}.cls-5{letter-spacing:-0.01em;}</style></defs><title>Free-negro</title><polygon class="cls-1" points="63.68 202.86 118.91 93.56 483.41 7.81 526.63 188.74 159.8 276.04 63.68 202.86"/><circle cx="146.8" cy="184.63" r="19.89"/><path class="cls-2" d="M146.81,184.29c-1.17,14-6.7,24.33-16.83,30.78a89.36,89.36,0,0,1-35.82,15.3C21,235.89,5.48,210.09,9.56,167.11c3.84-12.58,25.73-12.39,38.16.74,8.4,6.36,19,10.92,27.33,15.82" transform="translate(-0.01 -1.19)"/><text class="cls-3" transform="matrix(1.05, -0.25, 0.23, 0.97, 221.84, 207.52)"><tspan class="cls-4">F</tspan><tspan class="cls-5" x="54.95" y="0">r</tspan><tspan x="92.74" y="0">ee</tspan></text></svg>