<?xml version="1.0" encoding="utf-8"?>
<!-- Generator: Adobe Illustrator 23.0.2, SVG Export Plug-In . SVG Version: 6.00 Build 0)  -->
<svg version="1.1" id="Capa_1" xmlns="http://www.w3.org/2000/svg" xmlns:xlink="http://www.w3.org/1999/xlink" x="0px" y="0px"
	 viewBox="0 0 419.8 536.3" style="enable-background:new 0 0 419.8 536.3;" xml:space="preserve">
<g>
	<path d="M389.2,107.8l1.8-76.8c0,0,6.8,0.2,14.6,0.2C425.1,28,424,3.6,405.6,0c-7.6,0-10.9,0.1-14.8,0.1l-327.9,0
		C28.3,0.1,0,32.7,0,65.3v41.5v16.7v378.2c0,19.1,16.3,34.5,36.5,34.5h343.9c20.1,0,36.5-15.4,36.5-34.5V141.3
		C416.8,125.1,405.1,111.6,389.2,107.8z M34,77.5v-15c0-16.3,14-29.6,31.3-29.6h294v73.9H60.9C45.7,104.8,34,92.4,34,77.5z
		 M34,507.2V145.9c8.5-0.6,18.2-1.7,28.5-1.7h320c1,0,1.9-0.3,2.8-0.7v363.7H34z"/>
	<g>
		<path d="M197,288.7c7.6,0.3,16.8-0.4,26.1,0.4c4.9,0.5,9.7,1.3,14.5,2.4c2.6,0.6,5.2,1.3,7.5,2.6c7.9,4.3,11.7,11.2,13.5,19.4
			c2.2,10.4-2,18.7-9.2,25.9c-1.5,1.5-1.6,2.2,0.3,3.4c7.3,4.8,11.3,11.5,11.5,20c0.1,5.4,0.6,10.9-1.5,16.2
			c-4.2,10.5-11.8,17.8-23.4,20.5c-6.2,1.5-12.6,2.2-19.1,2.1c-13.1-0.1-26.1-0.3-39.2-0.5c-2.9-0.1-5.7-0.5-8.6-0.8
			c-2.6-0.2-3.5-1.4-3.4-3.9c0.8-16,1.7-32,2-48c0.3-15.6-0.5-31.2-1.4-46.9c-0.2-3.4,0.1-6.7-0.5-10.1c-0.2-1.3,0.5-2.2,1.9-2.4
			c1.9-0.2,3.9-0.4,5.8-0.5C181,288.7,188.2,288.7,197,288.7z M210.2,355.1c-2.8,0-5.6,0.1-8.4,0c-1.7-0.1-2.6,0.6-2.7,2.1
			c-0.3,5.4-0.4,10.7,0,16.1c0.1,1.8,1.2,2.7,3.1,2.8c6.3,0.4,12.7,0.7,19-0.4c2.7-0.5,5.3-1.7,6.6-4.1c3.4-6.2,1-16.1-9.7-16.5
			C215.4,355.1,212.8,355.1,210.2,355.1z M208.1,311.4c-2.3,0-4.6-0.1-6.8,0c-1.1,0.1-2.5,0.3-2.6,1.8c-0.2,4.9-0.9,9.9-0.1,14.8
			c0.3,1.7,1.3,2.7,3.2,2.8c4.4,0.2,8.8,0.4,13.2-0.1c2.6-0.3,5.1-0.9,7.5-2.1c2.7-1.4,4-3.5,4.2-6.4c0.3-5.6-3-9.5-8.8-10.5
			C214.5,311.3,211.3,311.2,208.1,311.4z"/>
		<path d="M141.3,401.4c-4.4-0.2-9.4,0.2-14.2-0.8c-2.4-0.5-3.5-1.7-3.9-3.8c-0.7-3.4-1.8-6.7-3-9.9c-0.7-1.7-1.8-2.4-3.8-2.4
			c-9.8,0.1-19.5,0-29.3,0c-3.6,0-4.1,0.5-5.4,3.6c-1.1,2.6-1,5.3-1.8,7.9c-1.1,4-1.8,4.5-6.3,4.9c-7.8,0.6-15.6,0.7-23.3,0
			c-0.3,0-0.7,0-1-0.1c-3.4-0.6-3.7-1.1-2.6-4.2c4.4-12.6,8.9-25.2,13.5-37.7c3.2-8.6,6.6-17.1,9.5-25.7c3-9.2,6.9-18,10-27.2
			c1.8-5.5,3.8-10.9,5.9-16.3c0.9-2.3,2.2-2.9,4.8-2.7c6.1,0.5,12.3,1.1,18.5,0.3c6.2-0.8,7.9,0.1,9.5,5.8c1.2,4.3,3.2,8.2,4.9,12.2
			c4.6,11.4,9.2,22.8,13.6,34.2c3.3,8.5,7.1,16.8,9.8,25.4c2.6,8.4,6.5,16.2,9.2,24.6c0.8,2.4,1.4,4.9,2.2,7.3
			c0.9,2.9,0.4,3.6-2.7,4C150.7,401.5,146.2,401.3,141.3,401.4z M101.7,327c-2.7,2.9-2.5,6.7-3.8,10c-2.3,5.8-4.6,11.7-6,17.7
			c-0.3,1.5,0.2,2,1.4,2.2c5,0.9,10,0.7,14.9,0.3c1.9-0.1,2.5-1.4,2.1-3.1c-1.2-5.3-2-10.7-4.1-15.8
			C104.7,334.6,104,330.5,101.7,327z"/>
		<path d="M268.7,345.1c-0.6-6.6,0.9-13.1,2.4-19.6c1.4-6,4.5-11.4,8.3-16.3c1.3-1.7,2.1-3.7,3.6-5.2c3.9-3.8,7.6-7.8,12.4-10.5
			c10.5-6,21.9-8.2,34.1-7c8.8,0.8,17.1,3.3,24.5,7.8c3.4,2.1,6.3,5,9.4,7.7c1.9,1.6,2.2,3.6,1.1,5.7c-2.1,3.8-4.1,7.7-6.5,11.4
			c-1.4,2-2,4.4-3.4,6.4c-2.8,3.7-3.7,4-6.9,0.6c-4.8-5.1-10.7-8.2-17.8-9.5c-6.7-1.3-12.9,0.1-18.5,3.4c-3.8,2.3-6.4,6.1-8.2,9.9
			c-5.2,11.1-4.9,22.2,1.7,32.7c2,3.3,4.7,6.4,8.4,8.5c4.8,2.7,10,2.5,15.3,2.4c7.6-0.2,13.4-4.1,18.6-8.8c3.2-2.9,4.7-2.9,7.1,0.7
			c3.6,5.4,7,11,10.7,16.5c0.8,1.2,0.4,2-0.2,2.9c-1.9,2.6-4,4.9-6.5,6.9c-2.7,2.1-5.2,4.3-8.2,6c-5.8,3.3-12.3,4.9-18.9,5.7
			c-9.1,1.2-18-0.1-26.8-2.9c-5.8-1.9-10.5-5-15.2-8.7c-8.8-6.9-14.4-15.7-17.6-25.8C269.3,359.3,268.2,352.3,268.7,345.1z"/>
	</g>
</g>
</svg>
