<?xml version="1.0" encoding="utf-8"?>
<!-- Generator: Adobe Illustrator 23.0.2, SVG Export Plug-In . SVG Version: 6.00 Build 0)  -->
<svg version="1.1" id="Capa_1" xmlns="http://www.w3.org/2000/svg" xmlns:xlink="http://www.w3.org/1999/xlink" x="0px" y="0px"
	 viewBox="0 0 563.9 566.9" style="enable-background:new 0 0 563.9 566.9;" xml:space="preserve">
<g>
	<g>
		<rect x="312.4" y="174.2" transform="matrix(0.9681 -0.2504 0.2504 0.9681 -33.5216 104.4038)" width="162.4" height="19.5"/>
		<rect x="346.2" y="207.4" transform="matrix(0.9681 -0.2504 0.2504 0.9681 -65.1939 117.0401)" width="162.4" height="214.7"/>
		<path d="M465.3,136.8l-13.7-52.8c-1.7-6.7-8.7-10.8-15.4-9.1l-132.7,34.3c-6.7,1.7-10.8,8.7-9.1,15.4l13.7,52.8L465.3,136.8z"/>
		<rect x="382.6" y="435.5" transform="matrix(0.9681 -0.2504 0.2504 0.9681 -99.3162 130.6535)" width="162.4" height="40.4"/>
		<path d="M552,472.3L394.8,513l11.5,44.4c1.7,6.7,8.7,10.8,15.4,9.1l132.7-34.3c6.7-1.7,10.8-8.7,9.1-15.4L552,472.3z"/>
	</g>
	<g>
		<rect x="168.5" y="103.4" width="123" height="345.8"/>
		<path d="M291.5,37.3V12.7c0-7-5.7-12.7-12.7-12.7h-97.7c-7,0-12.7,5.7-12.7,12.7v24.6H291.5z"/>
		<rect x="168.5" y="469.5" width="123" height="18.5"/>
		<rect x="168.5" y="57.5" width="123" height="25.7"/>
		<path d="M168.5,508.2v41.6c0,7,5.7,12.7,12.7,12.7h97.7c7,0,12.7-5.7,12.7-12.7v-41.6H168.5z"/>
	</g>
	<g>
		<path d="M149.8,121.9V87.3c0-7-5.7-12.7-12.7-12.7H12.7C5.7,74.6,0,80.3,0,87.3v34.6H149.8z"/>
		<path d="M0,142.1v307.1h149.8V142.1H0z M112.5,264h-74c-5.7,0-10.3-4.6-10.3-10.3v-74c0-5.7,4.6-10.3,10.3-10.3h74
			c5.7,0,10.3,4.6,10.3,10.3v74C122.8,259.4,118.2,264,112.5,264z"/>
		<path d="M0,508.2v41.6c0,7,5.7,12.7,12.7,12.7h124.4c7,0,12.7-5.7,12.7-12.7v-41.6H0z"/>
		<rect y="469.5" width="149.8" height="18.5"/>
	</g>
</g>
</svg>
