<?xml version="1.0" encoding="utf-8"?>
<!-- Generator: Adobe Illustrator 23.0.2, SVG Export Plug-In . SVG Version: 6.00 Build 0)  -->
<svg version="1.1" id="Capa_1" xmlns="http://www.w3.org/2000/svg" xmlns:xlink="http://www.w3.org/1999/xlink" x="0px" y="0px"
	 viewBox="0 0 566.9 543.7" style="enable-background:new 0 0 566.9 543.7;" xml:space="preserve">
<style type="text/css">
	.st0{fill:#FFFFFF;}
	.st1{fill:none;stroke:#1D1D1B;stroke-miterlimit:10;}
	.st2{fill:#8F53FF;}
</style>
<g>
	<path class="st0" d="M5,285.9"/>
	<path class="st1" d="M5,285.9"/>
</g>
<g>
	<path class="st0" d="M16,191.9"/>
</g>
<image style="overflow:visible;" width="480" height="480" xlink:href="5F141FF8.jpg"  transform="matrix(1 0 0 1 -7908 -7916.7236)">
</image>
<path class="st2" d="M218,543.7c-17.4,0-34.1-7-46.3-19.6L18.2,365.6C-6.6,340-6,299.2,19.6,274.4c25.6-24.8,66.4-24.1,91.2,1.5
	l98.6,101.8L449.3,28c20.1-29.4,60.3-36.8,89.6-16.7c29.4,20.1,36.8,60.3,16.7,89.6L271.2,515.7c-10.9,16-28.5,26.2-47.8,27.8
	C221.6,543.6,219.8,543.7,218,543.7z"/>
</svg>
