<svg id="Capa_1" data-name="Capa 1" xmlns="http://www.w3.org/2000/svg" viewBox="0 0 566.93 389.26"><defs><style>.cls-1{fill:#8f53fb;}</style></defs><title>Corona</title><path class="cls-1" d="M89.45,326.73c129.56-23.19,258.11-24.24,387.83-1.08l61.93-166.94C502,190,474.91,213.49,454.47,214.47c-11.59-9.05-14.41-59.58-10.87-140.76-67.73,97-89.54,116.91-97.23,115.6-15.14-4.2-33.92-62.08-62.1-150.29-23.48,74.51-46.6,145.91-62.11,150.2-19.62-4.59-56.42-53.82-97.23-113.44,1,81.13-1.48,133.61-9.86,138.51-6.59,4.4-48.44-23.9-88.63-58.84Z"/><circle class="cls-1" cx="13.16" cy="136.88" r="13.16"/><circle class="cls-1" cx="115.72" cy="55.6" r="13.16"/><circle class="cls-1" cx="284.35" cy="13.16" r="13.16"/><circle class="cls-1" cx="453.95" cy="49.85" r="13.16"/><circle class="cls-1" cx="553.77" cy="138.9" r="13.16"/><path class="cls-1" d="M96.66,341q187.23-28.67,376.68,0c5.28,10.8,4.93,22.15,0,33.8q-189.43,28.8-376.68,0C90.81,363.9,89.72,352.75,96.66,341Z"/></svg>