<?xml version="1.0" encoding="utf-8"?>
<!-- Generator: Adobe Illustrator 23.0.2, SVG Export Plug-In . SVG Version: 6.00 Build 0)  -->
<svg version="1.1" id="Capa_1" xmlns="http://www.w3.org/2000/svg" xmlns:xlink="http://www.w3.org/1999/xlink" x="0px" y="0px"
	 viewBox="0 0 317.2 391.4" style="enable-background:new 0 0 317.2 391.4;" xml:space="preserve">
<style type="text/css">
	.st0{fill:#8F53FF;}
</style>
<g>
	<path class="st0" d="M299.9,391.5H17.2c-9.5,0-17.2-7.7-17.2-17.2V28.6C0,13.1,12.6,0.5,28.1,0.4L215.6,0c0,0,0,0,0,0
		c4.5,0,8.9,1.8,12.1,5L312,89.2c3.2,3.2,5,7.6,5,12.1v273C317,383.8,309.3,391.5,299.9,391.5z M23,368.5h271V103.7L213.3,23
		L28.2,23.4c-2.8,0-5.2,2.3-5.2,5.2V368.5z"/>
	<path class="st0" d="M265.7,118h-57.2c-9.2,0-16.7-7.9-16.7-17.5V44.2c0-6.4,5.1-11.5,11.5-11.5s11.5,5.1,11.5,11.5V95h50.9
		c6.4,0,11.5,5.1,11.5,11.5S272.1,118,265.7,118z"/>
	<path class="st0" d="M241.2,162.8H66.5c-6.4,0-11.5-5.1-11.5-11.5s5.1-11.5,11.5-11.5h174.7c6.4,0,11.5,5.1,11.5,11.5
		S247.6,162.8,241.2,162.8z"/>
	<path class="st0" d="M241.2,214.8H66.5c-6.4,0-11.5-5.1-11.5-11.5s5.1-11.5,11.5-11.5h174.7c6.4,0,11.5,5.1,11.5,11.5
		S247.6,214.8,241.2,214.8z"/>
	<path class="st0" d="M241.2,265.8H66.5c-6.4,0-11.5-5.1-11.5-11.5c0-6.4,5.1-11.5,11.5-11.5h174.7c6.4,0,11.5,5.1,11.5,11.5
		C252.7,260.6,247.6,265.8,241.2,265.8z"/>
</g>
</svg>
