<svg id="Capa_1" data-name="Capa 1" xmlns="http://www.w3.org/2000/svg" viewBox="0 0 317 391.49"><defs><style>.cls-1,.cls-2{fill:none;stroke:#2d125e;stroke-miterlimit:10;stroke-width:23px;}.cls-2{stroke-linecap:round;}</style></defs><title>documento-morado</title><path class="cls-1" d="M11.52,28.6V374.31A5.66,5.66,0,0,0,17.18,380H299.86a5.66,5.66,0,0,0,5.66-5.66v-273a5.66,5.66,0,0,0-1.66-4L219.68,13.13a5.69,5.69,0,0,0-4-1.66l-187.52.46A16.67,16.67,0,0,0,11.52,28.6Z" transform="translate(-0.02 0.03)"/><path class="cls-2" d="M203.34,44.19v56.35c0,3.32,2.33,6,5.2,6H265.7" transform="translate(-0.02 0.03)"/><path class="cls-2" d="M66.52,151.29H241.24" transform="translate(-0.02 0.03)"/><path class="cls-2" d="M66.52,203.29H241.24" transform="translate(-0.02 0.03)"/><path class="cls-2" d="M66.52,254.29H241.24" transform="translate(-0.02 0.03)"/></svg>