<svg id="Capa_1" data-name="Capa 1" xmlns="http://www.w3.org/2000/svg" viewBox="0 0 543.65 566.93"><defs><style>.cls-1,.cls-2{fill:#8f53fb;}.cls-1{stroke:#1d1d1b;stroke-miterlimit:10;stroke-width:36px;}</style></defs><title>Ejercicios</title><path class="cls-1" d="M243.17,148"/><rect class="cls-2" x="243.17" y="124.98" width="105.01" height="40.53" rx="12"/><rect class="cls-2" x="243.17" y="229.37" width="105.01" height="40.53" rx="12"/><path class="cls-2" d="M210.88,219.64l-11.29-11.29a12.31,12.31,0,0,0-17.37,0L140.53,250l-15.15-16.66a12.32,12.32,0,0,0-17.35-.83L96.22,243.3a12.3,12.3,0,0,0-.82,17.34l34.68,38.15a12.31,12.31,0,0,0,17.35.82l2.79-2.54a11.83,11.83,0,0,0,2.49-1.9l4-4,2.53-2.31a12.34,12.34,0,0,0,1.74-2l49.9-49.9A12.33,12.33,0,0,0,210.88,219.64Z"/><path class="cls-2" d="M210.88,109.11,199.59,97.82a12.31,12.31,0,0,0-17.37,0l-41.69,41.69-15.15-16.66A12.32,12.32,0,0,0,108,122L96.22,132.76a12.31,12.31,0,0,0-.82,17.35l34.68,38.15a12.32,12.32,0,0,0,17.35.82l2.79-2.54a12.18,12.18,0,0,0,2.49-1.9l4-4,2.53-2.3a12.34,12.34,0,0,0,1.74-2l49.9-49.91A12.32,12.32,0,0,0,210.88,109.11Z"/><path class="cls-2" d="M210.88,328.12l-11.29-11.29a12.33,12.33,0,0,0-17.37,0l-41.69,41.69-15.15-16.66A12.33,12.33,0,0,0,108,341L96.22,351.78a12.31,12.31,0,0,0-.82,17.35l34.68,38.14a12.32,12.32,0,0,0,17.35.83l2.79-2.54a12.18,12.18,0,0,0,2.49-1.9l4-4,2.53-2.3a12.41,12.41,0,0,0,1.74-2l49.9-49.9A12.33,12.33,0,0,0,210.88,328.12Z"/><path class="cls-2" d="M438.39,199.9,286.11,463.66l-4.56,91.93c-.62,11,6,13.23,17.14,9.95l83.79-46.24,153.3-265.52,3.13-5.42C566.5,191.13,466,142.66,438.39,199.9Z"/><path class="cls-2" d="M255.45,375.32h41.67L322,334.79H255.45a12.32,12.32,0,0,0-12.28,12.28v16A12.32,12.32,0,0,0,255.45,375.32Z"/><path class="cls-2" d="M254.45,449.62H71.37A19.43,19.43,0,0,1,52,430.19V71.13A19.43,19.43,0,0,1,71.37,51.7H369.65a19.42,19.42,0,0,1,19.42,19.43V225.55l50.85-82.81v-77A65.77,65.77,0,0,0,374.15,0H65.77A65.76,65.76,0,0,0,0,65.77V436.05a65.77,65.77,0,0,0,65.77,65.77H250.45Z"/></svg>