<svg id="Capa_1" data-name="Capa 1" xmlns="http://www.w3.org/2000/svg" viewBox="0 0 419.79 536.26"><defs><style>.cls-1{fill:#8f53fb;}</style></defs><title>Glosario</title><path class="cls-1" d="M389.23,107.83,391,31.06s6.78.15,14.55.15C425.07,28,424,3.56,405.56,0c-7.64,0-10.87.11-14.84.11L62.85.07C28.32.07,0,32.66,0,65.32V501.76c0,19,16.33,34.5,36.47,34.5H380.34c20.14,0,36.47-15.45,36.47-34.5V141.29C416.81,125.14,405.08,111.59,389.23,107.83ZM34,77.53v-15c0-16.33,14-29.57,31.25-29.57h294V106.8H60.9C45.71,104.78,34,92.45,34,77.53Zm0,429.71V145.86c8.55-.63,18.23-1.69,28.5-1.69H382.57a6.21,6.21,0,0,0,2.76-.67V507.24Z"/><path class="cls-1" d="M197,288.72c7.6.26,16.84-.43,26.07.44a102,102,0,0,1,14.46,2.44,29.86,29.86,0,0,1,7.52,2.64c7.92,4.34,11.69,11.17,13.46,19.36,2.24,10.38-2,18.66-9.25,25.92-1.49,1.48-1.58,2.17.29,3.41,7.3,4.83,11.33,11.48,11.48,20,.09,5.43.63,10.91-1.49,16.17-4.24,10.49-11.78,17.78-23.4,20.51a81.44,81.44,0,0,1-19.1,2.15q-19.58-.15-39.15-.49c-2.87-.05-5.72-.55-8.59-.78-2.6-.21-3.52-1.36-3.4-3.93.78-16,1.69-32,2-48,.28-15.62-.49-31.25-1.35-46.86-.18-3.36.07-6.73-.46-10.08a1.92,1.92,0,0,1,1.9-2.36,51.49,51.49,0,0,1,5.8-.46C181,288.68,188.17,288.72,197,288.72Zm13.16,66.43c-2.79,0-5.59.09-8.38,0-1.71-.08-2.63.56-2.71,2.09a123.41,123.41,0,0,0,0,16.09c.14,1.77,1.16,2.69,3.08,2.81,6.34.41,12.7.72,19-.41,2.65-.47,5.33-1.72,6.61-4.06,3.42-6.24,1-16.1-9.73-16.48C215.42,355.07,212.8,355.15,210.17,355.15Zm-2.06-43.72c-2.28,0-4.57-.08-6.85,0-1.14.06-2.49.27-2.56,1.79-.23,4.95-.91,9.89-.15,14.85a3,3,0,0,0,3.17,2.8,79.34,79.34,0,0,0,13.17-.1,21.18,21.18,0,0,0,7.49-2.07,7.19,7.19,0,0,0,4.18-6.4c.34-5.59-3-9.51-8.84-10.47A42.33,42.33,0,0,0,208.11,311.43Z"/><path class="cls-1" d="M141.28,401.37c-4.44-.18-9.35.23-14.22-.79a4.4,4.4,0,0,1-3.9-3.78,59.49,59.49,0,0,0-3-9.9c-.67-1.74-1.83-2.44-3.84-2.42-9.75.07-19.51,0-29.26,0-3.6,0-4.08.48-5.37,3.6-1.07,2.58-1,5.33-1.79,7.94-1.14,4-1.81,4.54-6.26,4.88a133.89,133.89,0,0,1-23.35,0c-.34,0-.68,0-1-.1-3.4-.59-3.75-1.05-2.64-4.18,4.44-12.57,8.85-25.16,13.48-37.67,3.17-8.57,6.62-17.06,9.47-25.72,3-9.17,6.91-18,10-27.16,1.84-5.48,3.84-10.9,5.87-16.31.86-2.29,2.23-2.91,4.78-2.7,6.14.51,12.29,1.13,18.49.34s7.93.14,9.55,5.79c1.22,4.27,3.24,8.18,4.89,12.25,4.6,11.36,9.16,22.75,13.56,34.18,3.25,8.47,7.1,16.76,9.82,25.38,2.63,8.36,6.53,16.25,9.18,24.57.77,2.43,1.43,4.89,2.17,7.32.88,2.86.39,3.58-2.67,4C150.72,401.51,146.22,401.31,141.28,401.37ZM101.7,327c-2.71,2.94-2.51,6.69-3.78,10a138.8,138.8,0,0,0-6,17.74c-.34,1.45.24,2,1.42,2.24a57.57,57.57,0,0,0,15,.34c1.9-.15,2.48-1.43,2.08-3.15-1.23-5.28-2-10.68-4.07-15.76C104.74,334.62,104,330.52,101.7,327Z"/><path class="cls-1" d="M268.67,345.13c-.59-6.59.89-13.14,2.39-19.6,1.39-6,4.49-11.35,8.33-16.32,1.28-1.66,2.06-3.65,3.6-5.17,3.87-3.8,7.56-7.8,12.37-10.55a56.18,56.18,0,0,1,34.08-7,57.82,57.82,0,0,1,24.52,7.8c3.45,2.07,6.3,5,9.38,7.65a4.2,4.2,0,0,1,1.06,5.67c-2.09,3.83-4.12,7.72-6.55,11.36-1.36,2.05-2,4.37-3.44,6.36-2.76,3.73-3.75,4-6.88.64a31.85,31.85,0,0,0-17.76-9.55,25.92,25.92,0,0,0-18.48,3.4c-3.81,2.27-6.39,6.09-8.18,9.92-5.17,11.08-4.92,22.21,1.66,32.74a23.51,23.51,0,0,0,8.39,8.49c4.82,2.66,10,2.55,15.28,2.4,7.63-.21,13.36-4.05,18.59-8.78,3.2-2.9,4.68-2.9,7.06.66,3.63,5.45,7.05,11,10.68,16.46a2.21,2.21,0,0,1-.18,2.85,33.27,33.27,0,0,1-6.54,6.94,64.63,64.63,0,0,1-8.16,6c-5.85,3.27-12.28,4.86-18.91,5.71a61.38,61.38,0,0,1-26.75-2.86c-5.82-1.86-10.54-5-15.2-8.69a52.2,52.2,0,0,1-17.63-25.77A55.5,55.5,0,0,1,268.67,345.13Z"/></svg>