<svg id="Capa_1" data-name="Capa 1" xmlns="http://www.w3.org/2000/svg" viewBox="0 0 563.94 566.93"><defs><style>.cls-1{fill:#8f53fb;}</style></defs><title>Materiales</title><rect class="cls-1" x="312.37" y="174.19" width="162.42" height="19.53" transform="translate(-33.52 104.4) rotate(-14.5)"/><rect class="cls-1" x="346.19" y="207.4" width="162.42" height="214.7" transform="translate(-65.19 117.04) rotate(-14.5)"/><path class="cls-1" d="M465.26,136.75,451.59,83.92a12.71,12.71,0,0,0-15.43-9.09L303.43,109.16a12.7,12.7,0,0,0-9.09,15.43L308,177.42Z"/><rect class="cls-1" x="382.64" y="435.46" width="162.42" height="40.43" transform="translate(-99.32 130.65) rotate(-14.5)"/><path class="cls-1" d="M552,472.32,394.79,513l11.5,44.45a12.7,12.7,0,0,0,15.43,9.09L554.44,532.2a12.69,12.69,0,0,0,9.09-15.43Z"/><rect class="cls-1" x="168.49" y="103.4" width="123.02" height="345.84"/><path class="cls-1" d="M291.51,37.28V12.66A12.7,12.7,0,0,0,278.84,0H181.16a12.7,12.7,0,0,0-12.67,12.66V37.28Z"/><rect class="cls-1" x="168.49" y="469.47" width="123.02" height="18.52"/><rect class="cls-1" x="168.49" y="57.51" width="123.02" height="25.66"/><path class="cls-1" d="M168.49,508.21v41.63a12.7,12.7,0,0,0,12.67,12.66h97.68a12.7,12.7,0,0,0,12.67-12.66V508.21Z"/><path class="cls-1" d="M149.77,121.91V87.31a12.7,12.7,0,0,0-12.66-12.67H12.66A12.7,12.7,0,0,0,0,87.31v34.6Z"/><path class="cls-1" d="M0,142.14V449.23H149.77V142.14ZM112.49,264h-74a10.35,10.35,0,0,1-10.35-10.35v-74a10.35,10.35,0,0,1,10.35-10.35h74a10.35,10.35,0,0,1,10.35,10.35v74A10.36,10.36,0,0,1,112.49,264Z"/><path class="cls-1" d="M0,508.21v41.63A12.7,12.7,0,0,0,12.66,562.5H137.11a12.7,12.7,0,0,0,12.66-12.66V508.21Z"/><rect class="cls-1" y="469.47" width="149.77" height="18.52"/></svg>