<?xml version="1.0" encoding="utf-8"?>
<!-- Generator: Adobe Illustrator 23.0.2, SVG Export Plug-In . SVG Version: 6.00 Build 0)  -->
<svg version="1.1" id="Capa_1" xmlns="http://www.w3.org/2000/svg" xmlns:xlink="http://www.w3.org/1999/xlink" x="0px" y="0px"
	 viewBox="0 0 577.3 576.8" style="enable-background:new 0 0 577.3 576.8;" xml:space="preserve">
<style type="text/css">
	.st0{fill:#FFFFFF;}
	.st1{fill:none;stroke:#2D125E;stroke-width:12;stroke-miterlimit:10;}
</style>
<path class="st0" d="M0,0v576.8h576.8V0H0z M275.8,336.1l-87.6,86.7c-20.2-49-22.9-98.6,1.1-149.3L89.7,171.1
	c-25.7,9.8-52.2,6-79.4-6.7L165.5,10c13.1,25.5,15.6,51.2,7.9,77.2l100.8,102c47.7-25.4,98-21.3,149.2-1.9l-85.9,88l206.6,268.2
	L275.8,336.1z"/>
<path class="st1" d="M10.3,164.5c27.1,12.7,53.7,16.5,79.4,6.7l99.6,102.4c-24,50.7-21.3,100.3-1.1,149.3l87.6-86.7l268.3,207.4
	L337.5,275.3l85.9-88c-51.2-19.4-101.5-23.5-149.2,1.9l-100.8-102c7.7-26,5.2-51.7-7.9-77.2L10.3,164.5z"/>
</svg>
