<svg id="Capa_1" data-name="Capa 1" xmlns="http://www.w3.org/2000/svg" viewBox="0 0 566.93 566.93"><defs><style>.cls-1{fill:#8f53ff;}</style></defs><title>Whatsapp-morado</title><path class="cls-1" d="M286,0c18.89,0,34.52,2.75,50.28,4.75,16.11,2,31.41,6.72,46.46,11.85a234.25,234.25,0,0,1,37.61,17,316.1,316.1,0,0,1,34.79,21.79A279.17,279.17,0,0,1,494.38,91.1,260.84,260.84,0,0,1,530,139.9c10.14,18,18.72,36.7,24.59,56.68,6.37,21.73,11,43.8,12.13,66.23.93,18.72-1.69,37.51-4.18,56.22a261.86,261.86,0,0,1-14.81,57.42c-8.11,21.66-19.54,41.6-33.17,60.52-9.27,12.85-19.2,25.17-30.36,36.09a276,276,0,0,1-52.32,40.18,271.89,271.89,0,0,1-51.73,24.09c-18.63,6.29-37.79,11.28-57.73,13.26-32.78,3.26-65.25,2.74-97.25-5-15.31-3.69-30.7-7.41-45.1-14.51-6-2.94-12.31-5.39-18.25-8.61-6.22-3.38-12.82-2.74-19.25-.66-16.31,5.28-32.5,10.91-48.83,16.09C72.87,544.55,52,551,31.12,557.84c-8.7,2.85-17.52,5.58-26.26,8.45-1.5.49-2.93,1.25-4.23-.22s-.28-2.86.24-4.27C8.05,542,14.43,521.9,21.41,502c6.78-19.28,13.34-38.66,20-58,2.17-6.31,4-12.83,6.42-19.09,1.42-3.64.63-6.76-1.12-10-4-7.46-8.24-14.84-11.78-22.53-9.6-20.85-17.49-42.52-21.18-65.05-4.88-29.82-6-59.82-1.51-90.16A306.37,306.37,0,0,1,23.47,189.5a237.88,237.88,0,0,1,25.05-53.85c7.1-11.41,14.8-22.35,22.82-33.05,5.66-7.55,12.5-14.29,19.24-21,5.85-5.77,11.91-11.41,18.11-16.74,8.37-7.19,17.7-13.34,27-19.37,17.29-11.22,35.53-20.82,55-27.69,17.58-6.19,35.45-11.4,54-14C259.43,1.82,274-.28,286,0ZM71.54,495.55c16.37-2.15,30.51-9,45.37-13.32,13-3.8,26.09-7.61,38.79-12.45a9.79,9.79,0,0,1,8.25.77c9.05,4.66,17.63,10,27.07,14.2a246.9,246.9,0,0,0,58.22,18.09C293,510.43,335.1,505,376.11,489.08a193.08,193.08,0,0,0,36-18.49,261.42,261.42,0,0,0,30.55-23.52,230.2,230.2,0,0,0,22.84-22.85,226.76,226.76,0,0,0,23.05-32.11c5.57-9.45,10.91-19.06,14.62-29.18a286.54,286.54,0,0,0,11.42-38.06c8.65-39.94,6.12-79.06-5.19-117.94-1.4-4.81-3.92-9.31-5.19-14.14-2.46-9.39-7.49-17.7-12.09-25.91a235.23,235.23,0,0,0-23.24-33.76,250.27,250.27,0,0,0-54.31-49.76A201.56,201.56,0,0,0,357,56.76a290.6,290.6,0,0,0-57.78-10.2c-27.33-2.06-53.69,2.71-79.57,10.16a208.28,208.28,0,0,0-54.31,24.85c-9.71,6.19-19.59,12.44-28.11,20.07a268.35,268.35,0,0,0-32.56,34.46,213.51,213.51,0,0,0-23.92,37.73C71.12,193.54,63.56,214,60,236c-7.42,45.64-2.8,89.55,15.36,132.12,4.68,11,10,21.79,17.1,31.18,5.88,7.71,7.82,14.91,4.32,23.54C87.16,446.49,80.92,471.27,71.54,495.55Z" transform="translate(0)"/><path class="cls-1" d="M360.43,414.5c12.22.52,20.78-2.51,29.4-5.17,29.61-9.13,42.09-28.47,42.94-56.36.14-4.55-2.09-7.73-6.26-9.85-8.19-4.16-16.34-8.41-24.38-12.86-11.12-6.17-22.31-12.12-34.29-16.57-5.54-2.06-10.56-.52-12.89,3.47-3.16,5.42-8.07,9-11.63,14s-8.3,9.28-12.83,13.54c-4.08,3.83-8.9,3.19-13.6,1-1.37-.65-2.53-1.81-3.94-2.31-13.27-4.74-24.8-12.57-35.9-20.79-22.1-16.36-38.94-37.37-52.62-61-4.63-8-4.47-12,2.08-18.43A134.27,134.27,0,0,0,244,222.31c2.37-3.53,3.19-7,1.64-11.1-6.1-16-11.55-32.35-18.23-48.15-8.84-20.92-4.31-19.81-28.78-21.78-9.39-.76-17.11,2.68-23.27,8.63-10.18,9.83-18.53,21.08-22.24,35.2-2.74,10.43-5.78,20.87-4.33,31.67,2.38,17.63,8.71,34.14,17.12,49.72A254.08,254.08,0,0,0,184,295.19c9.32,12.8,18.53,25.91,29.51,37.23,10.59,10.92,21.4,21.75,33.35,31.48,11.46,9.34,23.85,16.85,36.7,23.7s26.31,11.73,39.75,17C336.3,409.65,349.52,413.33,360.43,414.5Z" transform="translate(0)"/><path class="cls-1" d="M360.43,414.5c-10.91-1.17-24.13-4.85-37.12-9.92-13.44-5.25-27-10.21-39.75-17s-25.24-14.36-36.7-23.7c-12-9.73-22.76-20.56-33.35-31.48-11-11.32-20.19-24.43-29.51-37.23a254.08,254.08,0,0,1-18.06-28.69c-8.41-15.58-14.74-32.09-17.12-49.72-1.45-10.8,1.59-21.24,4.33-31.67,3.71-14.12,12.06-25.37,22.24-35.2,6.16-5.95,13.88-9.39,23.27-8.63,24.47,2,19.94.86,28.78,21.78,6.68,15.8,12.13,32.11,18.23,48.15,1.55,4.1.73,7.57-1.64,11.1a134.27,134.27,0,0,1-17.52,20.79c-6.55,6.45-6.71,10.44-2.08,18.43,13.68,23.63,30.52,44.64,52.62,61,11.1,8.22,22.63,16.05,35.9,20.79,1.41.5,2.57,1.66,3.94,2.31,4.7,2.22,9.52,2.86,13.6-1,4.53-4.26,9.22-8.55,12.83-13.54s8.47-8.54,11.63-14c2.33-4,7.35-5.53,12.89-3.47,12,4.45,23.17,10.4,34.29,16.57,8,4.45,16.19,8.7,24.38,12.86,4.17,2.12,6.4,5.3,6.26,9.85-.85,27.89-13.33,47.23-42.94,56.36C381.21,412,372.65,415,360.43,414.5Z" transform="translate(0)"/></svg>